<?xml version="1.0" standalone="no"?>
<!DOCTYPE svg PUBLIC "-//W3C//DTD SVG 1.1//EN" "http://www.w3.org/Graphics/SVG/1.1/DTD/svg11.dtd" >
<svg>
<metadata>
Created by FontForge 20090914 at Sat Aug 10 22:35:34 2013
 By www-data
Copyright (c) ParaGraph Intl., 1990-1995. All Rights Reserved. ITC Franklin Gothic is a registered trade mark of International Typeface Corporation.
</metadata>
<defs>
<font id="FranklinGothicBookC" horiz-adv-x="1228" >
  <font-face 
    font-family="FranklinGothicBookC"
    font-weight="400"
    font-stretch="normal"
    units-per-em="2048"
    panose-1="0 0 5 0 0 0 0 0 0 0"
    ascent="1655"
    descent="-393"
    x-height="1044"
    cap-height="1405"
    bbox="-131 -392.999 2132 1841"
    underline-thickness="102"
    underline-position="-102"
    unicode-range="U+000D-U+E000"
  />
<missing-glyph horiz-adv-x="748" 
d="M68 0v1365h544v-1365h-544zM136 68h408v1229h-408v-1229z" />
    <glyph glyph-name=".notdef" horiz-adv-x="748" 
d="M68 0v1365h544v-1365h-544zM136 68h408v1229h-408v-1229z" />
    <glyph glyph-name="glyph1" horiz-adv-x="2048" 
 />
    <glyph glyph-name="glyph1" horiz-adv-x="2048" 
 />
    <glyph glyph-name="uni000D" unicode="&#xd;" horiz-adv-x="2048" 
 />
    <glyph glyph-name="space" unicode=" " horiz-adv-x="477" 
 />
    <glyph glyph-name="exclam" unicode="!" horiz-adv-x="614" 
d="M178 1405h242l-74 -1055h-94zM190 0v219h218v-219h-218z" />
    <glyph glyph-name="quotedbl" unicode="&#x22;" horiz-adv-x="739" 
d="M111 1405h192l-55 -504h-82zM436 1405h193l-56 -504h-81z" />
    <glyph glyph-name="numbersign" unicode="#" 
d="M74 424v129h241l60 326h-225v129h251l74 397h139l-73 -397h270l74 397h139l-74 -397h205v-129h-231l-60 -326h223v-129h-247l-82 -424h-140l82 424h-270l-82 -424h-139l82 424h-217zM455 553h270l59 326h-270z" />
    <glyph glyph-name="dollar" unicode="$" horiz-adv-x="1193" 
d="M121 367l138.998 53.002c24 -69.333 62 -126.333 114 -171s114.333 -68.334 187 -71.001v486c-55.333 12 -104 26 -146 42s-82.167 37.333 -120.5 64s-67.666 60.5 -87.999 101.5s-30.5 88.5 -30.5 142.5c0 47.333 9 92.666 27 135.999s43.167 81.5 75.5 114.5
s72.833 59.833 121.5 80.5s102.334 32.334 161.001 35.001v170h125v-170c87.333 -2 167 -26 239 -72s124.667 -112 158 -198l-139 -47c-18.667 57.333 -51.667 101.166 -99 131.499s-100.333 47.166 -159 50.499v-440c286.667 -48 430 -176.333 430 -385
c0 -96 -36.5 -179.667 -109.5 -251s-179.167 -113.333 -318.5 -126v-197h-127v197c-100.667 6 -190.667 36.833 -270 92.5s-136 132.834 -170 231.501zM327.998 1038c0 -56.667 21.333 -105.5 64 -146.5s99 -63.833 169 -68.5v422c-69.333 -2 -125.5 -23.5 -168.5 -64.5
s-64.5 -88.5 -64.5 -142.5zM685.998 178.002c77.333 -0.666992 141 20.8311 191 64.498s75 95.834 75 156.501c0 32 -6.33301 61.333 -19 88s-28.5 48.334 -47.5 65.001s-40.833 31.167 -65.5 43.5s-48 21.5 -70 27.5s-43.333 10 -64 12v-457z" />
    <glyph glyph-name="percent" unicode="%" horiz-adv-x="1486" 
d="M80 1057c0 108 24.833 196.333 74.5 265s120.5 103 212.5 103c91.333 0 161.833 -34.333 211.5 -103s74.5 -157 74.5 -265s-24.833 -196.5 -74.5 -265.5s-120.167 -103.5 -211.5 -103.5s-162 34.5 -212 103.5s-75 157.5 -75 265.5zM207 1057
c0 -174.667 53.333 -262 160 -262c106 0 159 87.333 159 262s-53 262 -159 262c-106.667 0 -160 -87.333 -160 -262zM244 0l850 1405h149l-850 -1405h-149zM834 348c0 108 24.833 196.5 74.5 265.5s120.167 103.5 211.5 103.5s162 -34.5 212 -103.5s75 -157.5 75 -265.5
s-24.833 -196.333 -74.5 -265s-120.5 -103 -212.5 -103c-91.333 0 -161.833 34.333 -211.5 103s-74.5 157 -74.5 265zM961 348c0 -174.667 53 -262 159 -262c106.667 0 160 87.333 160 262s-53.333 262 -160 262c-106 0 -159 -87.333 -159 -262z" />
    <glyph glyph-name="ampersand" unicode="&#x26;" horiz-adv-x="1415" 
d="M94 393c0 14.667 0.829102 29.5059 2.49609 44.5059s5.33398 33.833 11.001 56.5s13.334 44.5 23.001 65.5s23.667 43.833 42 68.5s39.5 47.667 63.5 69s54.333 42.5 91 63.5s77.334 39.167 122.001 54.5l-29 41c-38 56 -67 104.833 -87 146.5s-30 83.5 -30 125.5
c0 36.667 6.5 72 19.5 106s32.5 65.667 58.5 95s61.5 52.666 106.5 69.999s96.167 26 153.5 26c62.667 0 118.334 -8.33301 167.001 -25s87.5 -39.167 116.5 -67.5s50.833 -59.833 65.5 -94.5s22 -71.334 22 -110.001c0 -164 -114.667 -285.333 -344 -364l288 -432
c102 113.333 169.667 258.666 203 435.999l152 -31c-47.333 -207.333 -132 -377.333 -254 -510c25.333 -34.667 49.333 -56.667 72 -66s53.334 -14 92.001 -14c34.667 0 72.667 3.66699 114 11v-148c-22 -2 -42.5 -4.33301 -61.5 -7s-34.5 -4.5 -46.5 -5.5
s-27.667 -1.5 -47 -1.5c-18.667 0 -36.334 1.66699 -53.001 5s-30.167 6.5 -40.5 9.5s-22.333 9.16699 -36 18.5s-22.5 15.666 -26.5 18.999s-13 11.666 -27 24.999l-24 23l-25 23c-106 -92.667 -233 -139 -381 -139c-76 0 -144.667 12 -206 36s-111 55.833 -149 95.5
s-67.167 83.667 -87.5 132s-30.5 98.166 -30.5 149.499zM282.996 416.006c0 -78 27.334 -145 82.001 -201s131 -84 229 -84c98.667 0 184.667 31.333 258 94l-328 477c-42.667 -10.667 -84.334 -31 -125.001 -61c-77.333 -56.667 -116 -131.667 -116 -225zM478.997 1124.01
c0 -13.333 1.5 -27.0029 4.5 -41.0029s6.33301 -26.167 10 -36.5s9.66699 -22.833 18 -37.5l19 -33c4.33301 -7.33301 12 -19 23 -35s18.167 -26.667 21.5 -32l27 -41l41 23l40.5 21.5c19.667 10.333 34.5 18.333 44.5 24s22 14.334 36 26.001s25.667 23.834 35 36.501
c24.667 36 37 74.333 37 115c0 47.333 -17.833 85.833 -53.5 115.5s-81.5 44.5 -137.5 44.5c-48.667 0 -88.5 -13.667 -119.5 -41s-46.5 -63.666 -46.5 -108.999z" />
    <glyph glyph-name="quotesingle" unicode="'" horiz-adv-x="614" 
d="M211 1405h192l-55 -504h-82z" />
    <glyph glyph-name="parenleft" unicode="(" horiz-adv-x="569" 
d="M86 530c0 140.667 24.3301 287.335 72.9971 440.002s125.334 297.667 230.001 435h107c-172 -264 -258 -552.667 -258 -866c0 -56.667 3.33301 -114.834 10 -174.501s18.334 -129 35.001 -208s43.334 -162.5 80.001 -250.5s81.667 -173.333 135 -256h-107
c-59.333 73.333 -110 150.666 -152 231.999s-73.667 160.833 -95 238.5s-36.333 149.167 -45 214.5s-13 130.333 -13 195z" />
    <glyph glyph-name="parenright" unicode=")" horiz-adv-x="569" 
d="M72 -350c53.333 82.667 98.3301 167.999 134.997 255.999s63.334 171.5 80.001 250.5s28.334 148.333 35.001 208s10 117.834 10 174.501c0 313.333 -86 602 -258 866h106c104.667 -137.333 181.334 -282.333 230.001 -435s73 -299.334 73 -440.001
c0 -64.667 -4.33301 -129.667 -13 -195s-23.667 -136.833 -45 -214.5s-53 -157.167 -95 -238.5s-92.667 -158.666 -152 -231.999h-106z" />
    <glyph glyph-name="asterisk" unicode="*" horiz-adv-x="1118" 
d="M150 809l313 164l-313 164l63 104l301 -188l-14 352h118l-14 -352l301 188l64 -104l-314 -164l314 -164l-64 -104l-301 188l14 -350h-118l14 350l-301 -188z" />
    <glyph glyph-name="plus" unicode="+" horiz-adv-x="1316" 
d="M129 524v133h463v463h133v-463h463v-133h-463v-463h-133v463h-463z" />
    <glyph glyph-name="comma" unicode="," horiz-adv-x="528" 
d="M135 -248l121 248h-84v203h205v-176l-164 -275h-78z" />
    <glyph glyph-name="hyphen" unicode="-" horiz-adv-x="641" 
d="M102 463v127h437v-127h-437z" />
    <glyph glyph-name="period" unicode="." horiz-adv-x="530" 
d="M152 0v231h227v-231h-227z" />
    <glyph glyph-name="slash" unicode="/" horiz-adv-x="1067" 
d="M43 -350l848 1755h139l-848 -1755h-139z" />
    <glyph glyph-name="zero" unicode="0" horiz-adv-x="1220" 
d="M84 696c0 79.333 9.33594 162.5 28.0029 249.5s49.667 165.833 93 236.5c100 162 235 243 405 243c170.667 0 306 -81 406 -243c43.333 -70.667 74.333 -149.5 93 -236.5s28 -170.167 28 -249.5c0 -62.667 -5.33301 -123.5 -16 -182.5s-24.334 -109.667 -41.001 -152
s-30 -73.666 -40 -93.999s-19.333 -37.833 -28 -52.5c-28.667 -47.333 -61.167 -87.333 -97.5 -120s-73.166 -56.834 -110.499 -72.501s-71.333 -26.667 -102 -33s-61.334 -9.5 -92.001 -9.5s-61.334 3.16699 -92.001 9.5s-64.5 17.333 -101.5 33
s-73.667 39.834 -110 72.501s-68.833 72.667 -97.5 120c-8.66699 14.667 -18 32.167 -28 52.5s-23.333 51.666 -40 93.999s-30.334 93 -41.001 152s-16 119.833 -16 182.5zM260.003 709c0 -173.333 27.999 -312 83.999 -416c60.667 -113.333 149.334 -170 266.001 -170
c117.333 0 206.333 56.667 267 170c56 104 84 242.667 84 416c0 202.667 -38.333 352.667 -115 450c-30 37.333 -66.167 67.166 -108.5 89.499s-84.833 33.5 -127.5 33.5s-85 -11.167 -127 -33.5s-78 -52.166 -108 -89.499c-76.667 -97.333 -115 -247.333 -115 -450z" />
    <glyph glyph-name="one" unicode="1" 
d="M156 0v152h419v1040c-118 -124 -247 -223.667 -387 -299v174c182.667 91.333 326 204 430 338h134v-1253h387v-152h-983z" />
    <glyph glyph-name="two" unicode="2" 
d="M119 0l-0.000976562 145l567 447c168 132 252 266.333 252 403c0 85.333 -32.667 154.333 -98 207c-58.667 48 -132.667 72 -222 72c-58 0 -110.667 -12.667 -158 -38s-86 -59 -116 -101c-35.333 -50 -55.666 -106.667 -60.999 -170l-164 49c16 86 50 162.333 102 229
c94 121.333 229.333 182 406 182c61.333 0 118.5 -6.5 171.5 -19.5s105.5 -39.167 157.5 -78.5c105.333 -79.333 158 -186.333 158 -321c0 -174.667 -102.333 -340.667 -307 -498l-465 -356h774v-152h-997z" />
    <glyph glyph-name="three" unicode="3" 
d="M82 319l164 56.002c18.667 -74.667 60.334 -134 125.001 -178c68.667 -46.667 149 -70 241 -70c110 0 195.333 21 256 63c66 46.667 99 112.334 99 197.001c0 89.333 -41 159 -123 209c-68.667 39.333 -162.334 59 -281.001 59h-135v144h135
c103.333 0 178.333 12.333 225 37c84.667 47.333 127 112 127 194c0 78 -30.667 139.333 -92 184c-56.667 40 -125 60 -205 60c-76 0 -142.667 -20 -200 -60c-54 -38 -96.333 -89 -127 -153l-164 45c42 100 108.333 180 199 240c82.667 52.667 183 79 301 79
c117.333 0 217.666 -27.333 300.999 -82c34 -22.667 62.5 -48.334 85.5 -77.001s39.333 -57.167 49 -85.5s16.167 -52.5 19.5 -72.5s5 -39.667 5 -59c0 -78 -25.667 -144.833 -77 -200.5s-115.666 -92.834 -192.999 -111.501c101.333 -13.333 181 -52.333 239 -117
s87 -140.334 87 -227.001c0 -64 -15 -122.667 -45 -176s-68.333 -97 -115 -131c-52 -38.667 -112.5 -66 -181.5 -82s-135.5 -24 -199.5 -24c-102.667 0 -205 26.333 -307 79c-101.333 59.333 -172.333 146 -213 260z" />
    <glyph glyph-name="four" unicode="4" 
d="M70 328v116l643 961h225v-934h229v-143h-229v-328h-176v328h-692zM248 471h514v797z" />
    <glyph glyph-name="five" unicode="5" 
d="M98 311l152 51.001c12.667 -42 39.334 -83.333 80.001 -124c71.333 -71.333 160.666 -107 267.999 -107c118 0 209.333 39 274 117c54.667 66 82 139 82 219c0 100 -32.667 180.667 -98 242c-64 61.333 -141 92 -231 92c-62 0 -122.167 -15.333 -180.5 -46
s-106.833 -75.334 -145.5 -134.001l-139 28l47 756h831l-14 -152h-690l-31 -452c99.333 100.667 212 151 338 151c130 0 240 -39.333 330 -118c58 -49.333 99 -106 123 -170s36 -127 36 -189c0 -136.667 -47.667 -252 -143 -346c-102 -99.333 -234.333 -149 -397 -149
c-137.333 0 -257 44.333 -359 133c-60.667 55.333 -105 121.333 -133 198z" />
    <glyph glyph-name="six" unicode="6" 
d="M82 666c0 201.333 38.332 367.001 114.999 497.001c102 174.667 253.333 262 454 262c46.667 0 90.167 -4.66699 130.5 -14s74.833 -20.833 103.5 -34.5s55.334 -30.667 80.001 -51s44.5 -39.5 59.5 -57.5s28.667 -38 41 -60s21.333 -39.667 27 -53
s10.834 -27 15.501 -41l-147 -43c-24.667 60.667 -62.5 109.667 -113.5 147s-115.167 56 -192.5 56c-140.667 0 -246.334 -69.667 -317.001 -209c-26.667 -52 -46.5 -112.667 -59.5 -182s-20 -121.333 -21 -156s-0.833008 -65.334 0.5 -92.001
c38.667 85.333 96.5 153.833 173.5 205.5s162.5 77.5 256.5 77.5c128.667 0 237.334 -44.5 326.001 -133.5s133 -197.5 133 -325.5c0 -89.333 -22.833 -170.833 -68.5 -244.5s-107.334 -131.167 -185.001 -172.5s-162.5 -62 -254.5 -62c-30.667 0 -62 2.66699 -94 8
s-68.333 15.166 -109 29.499s-81.167 37 -121.5 68s-75.5 68.833 -105.5 113.5c-84.667 124.667 -127 280.334 -127 467.001zM304.999 432.001c0 -42 9.5 -83.668 28.5 -125.001s43.833 -74.666 74.5 -99.999c28.667 -24 64.167 -42.667 106.5 -56s83.833 -20 124.5 -20
c93.333 0 172 30.5 236 91.5s96 136.5 96 226.5c0 88 -30.5 162.833 -91.5 224.5s-135.833 92.5 -224.5 92.5c-93.333 0 -175 -32.5 -245 -97.5s-105 -143.833 -105 -236.5z" />
    <glyph glyph-name="seven" unicode="7" 
d="M141 1253l19 152h927v-107c-76 -90.667 -144.333 -186 -205 -286s-109.667 -193.667 -147 -281c-102 -239.333 -151 -483 -147 -731h-180c2.66699 306.667 77 592.667 223 858c69.333 125.333 160 257 272 395h-762z" />
    <glyph glyph-name="eight" unicode="8" 
d="M72 360c0 49.333 10.668 95.499 32.001 138.499s49.5 79.333 84.5 109s70.5 54.334 106.5 74.001s73 35.5 111 47.5c-75.333 26.667 -138.333 70 -189 130s-76 128 -76 204c0 32.667 5.5 65.5 16.5 98.5s29.167 65.5 54.5 97.5s56.333 60.167 93 84.5
s82.834 44 138.501 59s117.5 22.5 185.5 22.5c136.667 0 248.667 -31.667 336 -95s131 -147.666 131 -252.999c0 -84 -26.333 -153.333 -79 -208s-117.334 -93 -194.001 -115c49.333 -20 92.833 -41 130.5 -63s72.5 -48.167 104.5 -78.5s56.5 -65.333 73.5 -105
s25.5 -83.167 25.5 -130.5c0 -51.333 -11 -100.333 -33 -147s-54 -88.834 -96 -126.501s-97.667 -67.667 -167 -90s-147.333 -33.5 -234 -33.5c-88.667 0 -169.167 10.833 -241.5 32.5s-130.833 50.667 -175.5 87s-78.834 76.833 -102.501 121.5s-35.5 91 -35.5 139z
M248.001 374.999c0 -20.667 2.99805 -41.502 8.99805 -62.502s17.333 -43.167 34 -66.5s37.834 -43.833 63.501 -61.5s60.667 -32.334 105 -44.001s94.5 -17.5 150.5 -17.5c55.333 0 105 5.33301 149 16s79.5 24.167 106.5 40.5s49.5 35.333 67.5 57
s30.5 42.834 37.5 63.501s10.5 41.334 10.5 62.001c0 30 -7 58.167 -21 84.5s-31.167 48.833 -51.5 67.5s-45.833 36.5 -76.5 53.5s-59.167 30.833 -85.5 41.5s-56.166 21.334 -89.499 32.001l-57 18c-81.333 -17.333 -153 -44.333 -215 -81
c-28.667 -16.667 -52.667 -35.167 -72 -55.5s-33.333 -39.833 -42 -58.5s-14.667 -35 -18 -49s-5 -27.333 -5 -40zM312.999 1067c0 -14.667 1.66895 -29.002 5.00195 -43.002s10.5 -30.333 21.5 -49s25.333 -36 43 -52s42.167 -32.5 73.5 -49.5
s67.666 -31.833 108.999 -44.5l47 -14c108.667 22.667 187.834 55.834 237.501 99.501s74.5 91.167 74.5 142.5c0 62.667 -25.333 115.834 -76 159.501s-129.334 65.5 -236.001 65.5c-54 0 -101.333 -6.66699 -142 -20s-71.834 -31.166 -93.501 -53.499
s-37.667 -45.333 -48 -69s-15.5 -47.834 -15.5 -72.501z" />
    <glyph glyph-name="nine" unicode="9" 
d="M82 944c0 92 23.1699 174.997 69.5029 248.997s108.333 131.167 186 171.5s163.167 60.5 256.5 60.5c57.333 0 110.833 -6.83301 160.5 -20.5s91.5 -32 125.5 -55s62 -45 84 -66s40.667 -43.167 56 -66.5c41.333 -59.333 72.833 -133.666 94.5 -222.999
s32.5 -174.333 32.5 -255c0 -90.667 -10 -180.5 -30 -269.5s-48.333 -164.833 -85 -227.5c-102 -174.667 -253.333 -262 -454 -262c-60 0 -115 7.66699 -165 23s-90.167 33.333 -120.5 54s-57.5 45.5 -81.5 74.5s-41 52.833 -51 71.5s-19 38.334 -27 59.001l141 51
c11.333 -22 24.666 -42.5 39.999 -61.5s34.666 -38.167 57.999 -57.5s52.333 -34.666 87 -45.999s72.667 -17 114 -17c130 0 230.333 57.333 301 172c39.333 63.333 65 130 77 200s18.667 159 20 267c-38.667 -85.333 -96.5 -153.833 -173.5 -205.5
s-162.5 -77.5 -256.5 -77.5c-128.667 0 -237.334 44.333 -326.001 133s-133 196.667 -133 324zM258.003 955.997c0 -38.667 7.66699 -77.666 23 -116.999s35.666 -73.333 60.999 -102c58.667 -65.333 135.667 -98 231 -98c38 0 77 7 117 21s77.667 34 113 60
s64.333 61.167 87 105.5s34 93.5 34 147.5c0 94 -32 167.667 -96 221s-146 80 -246 80c-85.333 0 -158.666 -27.333 -219.999 -82c-69.333 -60.667 -104 -139.334 -104 -236.001z" />
    <glyph glyph-name="colon" unicode=":" horiz-adv-x="528" 
d="M152 0v231h225v-231h-225zM152 809v231h225v-231h-225z" />
    <glyph glyph-name="semicolon" unicode=";" horiz-adv-x="528" 
d="M135 -264l123 264h-106v236h225v-211l-154 -289h-88zM152 809v231h225v-231h-225z" />
    <glyph glyph-name="less" unicode="&#x3c;" 
d="M113 555v70l1001 424v-127l-809 -332l809 -332v-127z" />
    <glyph glyph-name="equal" unicode="=" horiz-adv-x="1316" 
d="M129 326v133h1059v-133h-1059zM129 723v133h1059v-133h-1059z" />
    <glyph glyph-name="greater" unicode="&#x3e;" 
d="M115 131v127l800 332l-800 332v127l1001 -424v-70z" />
    <glyph glyph-name="question" unicode="?" horiz-adv-x="1069" 
d="M43 1012c16.667 128.667 68.168 229.667 154.501 303s195.166 110 326.499 110c64 0 122.333 -8 175 -24s96.167 -37.167 130.5 -63.5s63.333 -56.833 87 -91.5s40.667 -70.167 51 -106.5s15.5 -72.833 15.5 -109.5c0 -86 -23.167 -158 -69.5 -216
s-109.833 -108.667 -190.5 -152c-42.667 -22.667 -75.167 -41.5 -97.5 -56.5s-39 -31 -50 -48s-17.5 -31.833 -19.5 -44.5s-3 -32.667 -3 -60v-105h-147v88v39c0 7.33301 0.333008 19.333 1 36s1.83398 29 3.50098 37s3.83398 19.167 6.50098 33.5
s6.16699 25.666 10.5 33.999s10 18.5 17 30.5s14.833 22.333 23.5 31s19 17.834 31 27.501s25.333 18.5 40 26.5l90 51c51.333 29.333 93.166 63.166 125.499 101.499s48.5 86.5 48.5 144.5c0 56 -15.667 104.667 -47 146c-24 32.667 -57.167 58.5 -99.5 77.5
s-90.5 28.5 -144.5 28.5c-116.667 0 -203.334 -47 -260.001 -141c-30.667 -49.333 -49 -102.666 -55 -159.999zM375.001 0v201h209v-201h-209z" />
    <glyph glyph-name="at" unicode="@" horiz-adv-x="1654" 
d="M86 666c0 122.667 22.1689 230.164 66.502 322.497s99.833 169.833 166.5 232.5c146 136 330.333 204 553 204c125.333 0 232.666 -19.667 321.999 -59s162.333 -88.333 219 -147c48 -50 86 -108.833 114 -176.5s42 -140.167 42 -217.5
c0 -69.333 -10.667 -136.666 -32 -201.999s-50.333 -119.333 -87 -162c-37.333 -41.333 -82.833 -76.333 -136.5 -105s-110.5 -43 -170.5 -43c-111.333 0 -179 39 -203 117c-66 -78 -145.333 -117 -238 -117c-32.667 0 -64.834 6.5 -96.501 19.5s-58.834 30.5 -81.501 52.5
c-25.333 24.667 -45.333 57 -60 97s-22 82.667 -22 128c0 60.667 16 126.5 48 197.5s82.333 132.167 151 183.5c70 50.667 140.333 76 211 76c109.333 0 180.333 -47 213 -141l37 114h135l-160 -495c-6.66699 -23.333 -10 -37.666 -10 -42.999c0 -56 27.333 -84 82 -84
c40 0 78.167 9.5 114.5 28.5s67.166 44.833 92.499 77.5c27.333 35.333 47.833 77 61.5 125s20.5 96 20.5 144c0 106.667 -29.333 201.334 -88 284.001c-47.333 66 -117.166 120.167 -209.499 162.5s-196.166 63.5 -311.499 63.5c-88 0 -168.833 -16 -242.5 -48
s-136.167 -73.667 -187.5 -125c-113.333 -114.667 -170 -266.667 -170 -456c0 -84 12 -162.167 36 -234.5s69.333 -138.166 136 -197.499c104 -93.333 240 -140 408 -140c120 0 228.667 20.667 326 62l47 -115c-28 -12 -51.833 -21.5 -71.5 -28.5s-58.5 -15.5 -116.5 -25.5
s-120.333 -15 -187 -15c-174 0 -324.333 46.333 -451 139c-180 133.333 -270 315.666 -270 546.999zM586.002 595.997c0 -51.333 14.332 -93.666 42.999 -126.999c30 -34 64.667 -51 104 -51c60.667 0 114 30 160 90c35.333 45.333 63.333 98.166 84 158.499
s31 112.5 31 156.5c0 36.667 -13 67.667 -39 93s-59 38 -99 38c-71.333 0 -132.666 -28 -183.999 -84c-30 -33.333 -54.167 -75.833 -72.5 -127.5s-27.5 -100.5 -27.5 -146.5z" />
    <glyph glyph-name="A" unicode="A" horiz-adv-x="1146" 
d="M25 0l454 1405h203l457 -1405h-193l-131 408h-504l-127 -408h-159zM352 551h420l-209 666z" />
    <glyph glyph-name="B" unicode="B" horiz-adv-x="1288" 
d="M180 0l-0.00292969 1405h537c26.667 0 49 -0.5 67 -1.5s42.167 -3.5 72.5 -7.5s59.5 -11.333 87.5 -22s54 -24.334 78 -41.001c87.333 -61.333 131 -150 131 -266c0 -108 -36.333 -192 -109 -252c-33.333 -28 -78.333 -50.333 -135 -67v-5
c62.667 -11.333 116 -35.666 160 -72.999c39.333 -30.667 71 -70.5 95 -119.5s36 -105.5 36 -169.5s-13.167 -121.167 -39.5 -171.5s-58.166 -90.166 -95.499 -119.499c-26 -20.667 -53.667 -37.667 -83 -51s-60.666 -22.5 -93.999 -27.5s-61.166 -8.16699 -83.499 -9.5
s-50.833 -2 -85.5 -2h-539zM355.997 151.999l351 -0.00195312c94.667 0 167 19 217 57c8 5.33301 16 12.333 24 21s17.333 20.834 28 36.501s19.334 35.334 26.001 59.001s10 49.5 10 77.5c0 74 -23.333 134.333 -70 181c-18.667 18.667 -38.834 34 -60.501 46
s-45.334 20.167 -71.001 24.5s-46.667 7 -63 8s-38.166 1.5 -65.499 1.5h-326v-512zM355.997 806.997h294.999c34 0 62.667 1 86 3s50.833 8.16699 82.5 18.5s58.834 24.833 81.501 43.5c50.667 42.667 76 98.667 76 168c0 72.667 -27.333 128 -82 166
c-48 31.333 -119.667 47 -215 47h-324v-446z" />
    <glyph glyph-name="C" unicode="C" horiz-adv-x="1236" 
d="M90 725c0 71.333 6 138.168 18 200.501s27.667 114.333 47 156s36.333 74 51 97s29.334 43.167 44.001 60.5c106 124 247.333 186 424 186c65.333 0 126.333 -8.83301 183 -26.5s111 -50.5 163 -98.5c42 -40 77.167 -87.833 105.5 -143.5s46.5 -115.5 54.5 -179.5
l-166 -31c-13.333 68 -38 128.667 -74 182c-64.667 97.333 -154.667 146 -270 146c-138.667 0 -243.334 -62.333 -314.001 -187c-51.333 -88 -77 -211.333 -77 -370c0 -150 21.667 -271 65 -363c70 -148.667 178.667 -223 326 -223c50 0 93.167 8.5 129.5 25.5
s70.833 43.5 103.5 79.5c60.667 69.333 99.667 148.333 117 237l160 -35c-24 -123.333 -76.667 -227.666 -158 -312.999c-54.667 -57.333 -109.834 -95.833 -165.501 -115.5s-115.167 -29.5 -178.5 -29.5c-38 0 -73.5 2.66699 -106.5 8s-70.667 15.5 -113 30.5
s-83.666 39.667 -123.999 74s-77.5 77.166 -111.5 128.499c-43.333 66 -76.333 143.167 -99 231.5s-34 179.166 -34 272.499z" />
    <glyph glyph-name="D" unicode="D" horiz-adv-x="1368" 
d="M180 0l0.000976562 1405h465c190.667 0 345 -66.333 463 -199c17.333 -19.333 34.166 -41.333 50.499 -66s34.333 -57.5 54 -98.5s35.5 -90.333 47.5 -148s18 -119.167 18 -184.5c0 -154.667 -30 -290.667 -90 -408c-26.667 -52.667 -58.5 -98.167 -95.5 -136.5
s-73.167 -67.833 -108.5 -88.5s-74.333 -37 -117 -49s-79.667 -19.5 -111 -22.5s-65 -4.5 -101 -4.5h-475zM356.001 152h246c32 0 61.333 1.66699 88 5s59 10.166 97 20.499s74.333 28.5 109 54.5s65.667 58.667 93 98c67.333 98.667 101 227 101 385
c0 82.667 -11.5 157.834 -34.5 225.501s-53.833 124.167 -92.5 169.5c-26 30.667 -54.333 56.167 -85 76.5s-62 35 -94 44s-60.5 15 -85.5 18s-52.5 4.5 -82.5 4.5h-260v-1101z" />
    <glyph glyph-name="E" unicode="E" horiz-adv-x="1161" 
d="M180 0v1405h889v-152h-713v-446h566v-143h-566v-512h734v-152h-910z" />
    <glyph glyph-name="F" unicode="F" horiz-adv-x="1077" 
d="M180 0v1405h860v-152h-684v-446h568v-143h-568v-664h-176z" />
    <glyph glyph-name="G" unicode="G" horiz-adv-x="1372" 
d="M90 688c0 83.333 11.5 169.333 34.5 258s55.833 164.667 98.5 228c14.667 21.333 30.834 42 48.501 62s41.5 42 71.5 66s62 44.667 96 62s74.833 31.833 122.5 43.5s97.5 17.5 149.5 17.5c143.333 0 262 -44.333 356 -133c74.667 -72.667 121 -162.667 139 -270l-166 -41
c-8 48 -27 95.667 -57 143c-70 100 -169 150 -297 150c-79.333 0 -145.833 -19.167 -199.5 -57.5s-95.834 -84.166 -126.501 -137.499c-54 -94 -81 -224.333 -81 -391c0 -143.333 27.667 -262.666 83 -357.999c34 -57.333 79.167 -104.833 135.5 -142.5
s124.5 -56.5 204.5 -56.5c97.333 0 179.333 34 246 102c64 65.333 96 148.666 96 249.999v78h-354v148h531v-719h-109l-47 174c-36 -51.333 -79.667 -91.666 -131 -120.999c-75.333 -42 -164.666 -63 -267.999 -63c-174.667 0 -315.334 67.333 -422.001 202
c-52 65.333 -90.667 143.166 -116 233.499s-38 181.166 -38 272.499z" />
    <glyph glyph-name="H" unicode="H" horiz-adv-x="1368" 
d="M180 0v1405h176v-590h656v590h176v-1405h-176v672h-656v-672h-176z" />
    <glyph glyph-name="I" unicode="I" horiz-adv-x="536" 
d="M180 0v1405h176v-1405h-176z" />
    <glyph glyph-name="J" unicode="J" horiz-adv-x="792" 
d="M0 8l-0.000976562 152c55.333 -19.333 115.333 -29 180 -29c84.667 0 150.334 21.333 197.001 64c17.333 16 31.5 33.333 42.5 52s18.5 39.834 22.5 63.501s6.5 43.167 7.5 58.5s1.5 37 1.5 65v971h176v-946c0 -77.333 -5.5 -141.833 -16.5 -193.5
s-34.167 -99.834 -69.5 -144.501c-74.667 -94 -186.667 -141 -336 -141c-64.667 0 -133 9.33301 -205 28z" />
    <glyph glyph-name="K" unicode="K" horiz-adv-x="1304" 
d="M180 0v1405h176v-813h4l625 813h195l-379 -492l489 -913h-194l-418 774l-322 -399v-375h-176z" />
    <glyph glyph-name="L" unicode="L" horiz-adv-x="1044" 
d="M180 0v1405h176v-1253h660v-152h-836z" />
    <glyph glyph-name="M" unicode="M" horiz-adv-x="1720" 
d="M180 0v1405h258l422 -1124h4l418 1124h258v-1405h-176v1227h-4l-451 -1227h-118l-461 1227h-2v-1227h-148z" />
    <glyph glyph-name="N" unicode="N" horiz-adv-x="1392" 
d="M180 0v1405h221l668 -1145h4c-5.33301 31.333 -8 69 -8 113v1032h147v-1405h-172l-686 1178l-30 47h-5c6 -42.667 9 -85 9 -127v-1098h-148z" />
    <glyph glyph-name="O" unicode="O" horiz-adv-x="1335" 
d="M90 702c0 126.667 18 239 54 337s85 177.667 147 239c100.667 98 226.334 147 377.001 147c150 0 275.333 -49 376 -147c62 -61.333 111 -141 147 -239s54 -210.333 54 -337s-18 -238.834 -54 -336.501s-85 -177.167 -147 -238.5c-100.667 -98 -226 -147 -376 -147
c-150.667 0 -276.334 49 -377.001 147c-62 61.333 -111 140.833 -147 238.5s-54 209.834 -54 336.501zM279 702c0 -187.333 38.667 -331.332 116 -431.999c70.667 -92.667 161.667 -139 273 -139c110.667 0 201.334 46.333 272.001 139c78 101.333 117 245.333 117 432
c0 187.333 -39 331.666 -117 432.999c-70.667 92.667 -161.334 139 -272.001 139c-111.333 0 -202.333 -46.333 -273 -139c-77.333 -100.667 -116 -245 -116 -433z" />
    <glyph glyph-name="P" unicode="P" horiz-adv-x="1198" 
d="M180 0l-0.00195312 1405h465c70.667 0 135 -6 193 -18s111 -36 159 -72c100 -76 150 -182.667 150 -320c0 -41.333 -4.66699 -80.5 -14 -117.5s-21.666 -68.5 -36.999 -94.5s-29.166 -46.667 -41.499 -62s-25.166 -29 -38.499 -41
c-28.667 -26.667 -59.334 -48.167 -92.001 -64.5s-67.334 -27.5 -104.001 -33.5s-65.167 -9.66699 -85.5 -11s-48.166 -2 -83.499 -2h-295v-569h-176zM355.998 721l275.001 0.00292969c31.333 0 57.166 0.666992 77.499 2s47.5 7.66602 81.5 18.999s63 27.666 87 48.999
c54 49.333 81 118.666 81 207.999c0 83.333 -27 147 -81 191c-52 42 -128.667 63 -230 63h-291v-532z" />
    <glyph glyph-name="Q" unicode="Q" horiz-adv-x="1335" 
d="M90 702c0 126 18 238.331 54 336.998s85 178.334 147 239.001c100.667 98 226.334 147 377.001 147c150 0 275.333 -49 376 -147c62 -61.333 111 -141 147 -239s54 -210.333 54 -337c0 -126 -18 -237.833 -54 -335.5s-85 -177.5 -147 -239.5
c-68 -66.667 -147 -111 -237 -133c-0.666992 -6.66699 -1 -13.334 -1 -20.001c0 -43.333 15.333 -80.333 46 -111c31.333 -30 77 -45 137 -45c43.333 0 98 7.33301 164 22v-147c-55.333 -18 -109.333 -27 -162 -27c-56 0 -105.833 8.83301 -149.5 26.5
s-78.167 41.5 -103.5 71.5s-44.333 63.333 -57 100c-11.333 33.333 -17 68 -17 104v12h-37c-56.667 2 -115.5 15.833 -176.5 41.5s-114.167 60.167 -159.5 103.5c-60.667 58.667 -109.334 137.834 -146.001 237.501s-55 212.834 -55 339.501zM279 701.998
c0 -187.333 38.667 -331.332 116 -431.999c70.667 -92.667 161.667 -139 273 -139c110.667 0 201.334 46.333 272.001 139c78 101.333 117 245.333 117 432c0 187.333 -39 331.666 -117 432.999c-70.667 92.667 -161.334 139 -272.001 139
c-111.333 0 -202.333 -46.333 -273 -139c-77.333 -100.667 -116 -245 -116 -433z" />
    <glyph glyph-name="R" unicode="R" horiz-adv-x="1304" 
d="M180 0v1405h531c138 0 243 -26 315 -78c47.333 -34.667 84.833 -79.667 112.5 -135s41.5 -115.333 41.5 -180c0 -83.333 -22.667 -159 -68 -227s-111 -116 -197 -144l281 -641h-188l-260 604h-392v-604h-176zM356 756h359.001c99.333 0 175.666 34.667 228.999 104
c31.333 42.667 47 94 47 154c0 40.667 -7.83301 77.167 -23.5 109.5s-35.834 57.833 -60.501 76.5c-43.333 35.333 -108.666 53 -195.999 53h-355v-497z" />
    <glyph glyph-name="S" unicode="S" horiz-adv-x="1230" 
d="M61 379l158.004 35c23.333 -80.667 69.666 -147.667 138.999 -201c71.333 -54.667 163.666 -82 276.999 -82c55.333 0 104.166 5.83301 146.499 17.5s75 26.167 98 43.5s41.833 37.666 56.5 60.999s24.167 44.333 28.5 63s6.5 37.667 6.5 57c0 118.667 -78 197 -234 235
l-233 58c-128.667 32 -222.334 79.167 -281.001 141.5s-88 139.166 -88 230.499c0 84.667 21.333 156.667 64 216s99.167 102.666 169.5 129.999s151.5 41 243.5 41c66 0 125.833 -7 179.5 -21s98.167 -32.167 133.5 -54.5s66.333 -49.166 93 -80.499s47 -62 61 -92
s25 -62 33 -96l-160 -43c-20 67.333 -55.333 121.333 -106 162c-61.333 49.333 -144 74 -248 74c-77.333 0 -140 -15 -188 -45c-66 -40.667 -99 -101.334 -99 -182.001c0 -30 6.5 -56.667 19.5 -80s32.167 -42.833 57.5 -58.5s51.5 -28.667 78.5 -39
s59.167 -20.166 96.5 -29.499l209 -52c115.333 -28 201.333 -64.667 258 -110c35.333 -29.333 65.666 -67.166 90.999 -113.499s38 -100.833 38 -163.5c0 -65.333 -14.167 -125.5 -42.5 -180.5s-65.833 -101.167 -112.5 -138.5c-86 -68 -203.667 -102 -353 -102
c-45.333 0 -83.833 1.33301 -115.5 4s-71.667 11.334 -120 26.001s-93.166 36 -134.499 64c-110.667 76 -184 177.667 -220 305z" />
    <glyph glyph-name="T" unicode="T" horiz-adv-x="1015" 
d="M23 1253v152h970v-152h-397v-1253h-176v1253h-397z" />
    <glyph glyph-name="U" unicode="U" horiz-adv-x="1286" 
d="M158 516l-0.00195312 888.999h176v-885c0 -37.333 0.666992 -68.833 2 -94.5s6.33301 -56.667 15 -93s21.334 -66.5 38.001 -90.5c49.333 -74 140.333 -111 273 -111c111.333 0 194.333 34 249 102c29.333 36.667 48.333 77.5 57 122.5s13 99.833 13 164.5v885h147v-889
c0 -51.333 -1.33301 -94 -4 -128s-12 -75.5 -28 -124.5s-39.333 -91.833 -70 -128.5c-86 -103.333 -213.667 -155 -383 -155c-170.667 0 -295.667 45 -375 135c-26 28.667 -47 59.834 -63 93.501s-27.167 70.167 -33.5 109.5s-10.166 71.833 -11.499 97.5
s-2 59.167 -2 100.5z" />
    <glyph glyph-name="V" unicode="V" horiz-adv-x="1132" 
d="M8 1405h185l389 -1159l387 1159h155l-475 -1405h-168z" />
    <glyph glyph-name="W" unicode="W" horiz-adv-x="1732" 
d="M41 1405h184l283 -1139l301 1139h143l322 -1139l262 1139h156l-342 -1405h-176l-306 1090l-288 -1090h-177z" />
    <glyph glyph-name="X" unicode="X" horiz-adv-x="1134" 
d="M20 0l457 733l-399 672h196l306 -520l305 520h180l-395 -649l444 -756h-196l-353 598l-364 -598h-181z" />
    <glyph glyph-name="Y" unicode="Y" horiz-adv-x="1069" 
d="M-23 1405h205l373 -647l377 647h160l-469 -813v-592h-177v592z" />
    <glyph glyph-name="Z" unicode="Z" horiz-adv-x="1101" 
d="M59 0v147l760 1106h-725v152h934v-117l-772 -1136h795v-152h-992z" />
    <glyph glyph-name="bracketleft" unicode="[" horiz-adv-x="571" 
d="M143 -350v1755h367v-111h-223v-1534h223v-110h-367z" />
    <glyph glyph-name="backslash" unicode="\" horiz-adv-x="1067" 
d="M39 1405h139l848 -1405h-139z" />
    <glyph glyph-name="bracketright" unicode="]" horiz-adv-x="571" 
d="M61 -240h224v1534h-224v111h367v-1755h-367v110z" />
    <glyph glyph-name="asciicircum" unicode="^" horiz-adv-x="1226" 
d="M213 528l354 877h95l354 -877h-123l-279 682l-278 -682h-123z" />
    <glyph glyph-name="underscore" unicode="_" horiz-adv-x="1024" 
d="M0 -133h1024v-127h-1024v127z" />
    <glyph glyph-name="grave" unicode="`" horiz-adv-x="778" 
d="M141 1378l70 133l412 -243l-41 -82z" />
    <glyph glyph-name="a" unicode="a" horiz-adv-x="1114" 
d="M82 293c0 112.667 46.999 200.666 140.999 263.999c30 20.667 62.667 37.334 98 50.001s74.666 21.5 117.999 26.5s80.5 8.16699 111.5 9.5s72.167 2 123.5 2h135v43c0 80 -13.667 138 -41 174c-23.333 32 -53 52.667 -89 62s-78.667 14 -128 14
c-176 0 -273 -60.667 -291 -182l-149 24c10.667 54 29 100 55 138s58.833 67.5 98.5 88.5s82.667 36 129 45s99.5 13.5 159.5 13.5c135.333 0 234.333 -25.333 297 -76c26.667 -21.333 48.334 -45.833 65.001 -73.5s28.334 -59.834 35.001 -96.501
s10.834 -67.834 12.501 -93.501s2.5 -60.5 2.5 -104.5v-402c0 -66 8.66699 -139 26 -219h-164c-9.33301 58 -15.333 123 -18 195c-8 -16 -16.5 -31.167 -25.5 -45.5s-23.833 -32.666 -44.5 -54.999s-43.5 -41.166 -68.5 -56.499s-57.333 -28.833 -97 -40.5
s-82.834 -17.5 -129.501 -17.5c-112 0 -201.333 30.667 -268 92c-62.667 57.333 -94 131 -94 221zM253.999 292.999c0 -59.333 25.332 -105.667 75.999 -139c38 -26 87.667 -39 149 -39c49.333 0 95.833 10.5 139.5 31.5s79.834 49.167 108.501 84.5
c25.333 32 45.333 69.667 60 113s22 84.333 22 123v51h-133c-148 0 -253.333 -17 -316 -51c-70.667 -36.667 -106 -94.667 -106 -174z" />
    <glyph glyph-name="b" unicode="b" horiz-adv-x="1132" 
d="M166 0v1405h156v-537c12 24 26.5 46.5 43.5 67.5s38 41.833 63 62.5s55.833 37 92.5 49s76.667 18 120 18c114.667 0 208.334 -40.333 281.001 -121c44 -48.667 76.5 -109.834 97.5 -183.501s31.5 -151.167 31.5 -232.5c0 -161.333 -37.667 -292.333 -113 -393
c-76.667 -103.333 -180.334 -155 -311.001 -155c-74 0 -139.333 17.333 -196 52s-100 82.667 -130 144c-32 -88.667 -52.333 -147.334 -61 -176.001h-74zM322 438.002c0 -95.333 26.168 -173 78.501 -233s118.166 -90 197.499 -90c36 0 73.167 9.5 111.5 28.5
s70.833 50.5 97.5 94.5c42 70.667 63 166.667 63 288c0 126 -20.333 221.667 -61 287c-48 78 -119.667 117 -215 117c-73.333 0 -136 -26 -188 -78c-56 -56 -84 -127 -84 -213v-201z" />
    <glyph glyph-name="c" unicode="c" horiz-adv-x="987" 
d="M82 520c0 149.333 36 274.329 108 374.996c83.333 113.333 198.333 170 345 170c119.333 0 214 -39.667 284 -119c28 -32 51.167 -69.667 69.5 -113s30.833 -85.333 37.5 -126l-148 -27c-8.66699 63.333 -27.667 116 -57 158c-43.333 61.333 -107 92 -191 92
c-86 0 -152.667 -39 -200 -117c-45.333 -73.333 -68 -171.666 -68 -294.999c0 -59.333 5.33301 -113 16 -161s20.167 -80.5 28.5 -97.5s16.166 -30.5 23.499 -40.5c47.333 -69.333 113.333 -104 198 -104c76 0 137 28.667 183 86
c35.333 44.667 57.666 101.334 66.999 170.001l148 -27c-6.66699 -49.333 -20.667 -96.166 -42 -140.499s-47 -82.166 -77 -113.499c-71.333 -73.333 -165.666 -110 -282.999 -110c-115.333 0 -210.666 34 -285.999 102c-50 46 -88.5 108 -115.5 186s-40.5 162 -40.5 252z
" />
    <glyph glyph-name="d" unicode="d" horiz-adv-x="1132" 
d="M82 514c0 189.333 46.3311 332.666 138.998 429.999c76.667 80.667 173 121 289 121c85.333 0 159 -24 221 -72c32.667 -26.667 59.334 -56 80.001 -88v500h156v-1405h-144v176h-4c-12 -35.333 -33.667 -68.666 -65 -99.999c-64 -64 -146 -96 -246 -96
c-129.333 0 -233.666 51.667 -312.999 155c-75.333 100.667 -113 227 -113 379zM261.998 526c0 -121.333 20.667 -217.332 62 -287.999c47.333 -82 115.333 -123 204 -123c44 0 84.5 9.5 121.5 28.5s67.5 43.5 91.5 73.5c20 26 36.667 58.167 50 96.5s20 75.166 20 110.499
v219c0 36 -6.83301 71.833 -20.5 107.5s-31.5 66.167 -53.5 91.5c-51.333 58.667 -118 88 -200 88c-90.667 0 -161 -39 -211 -117c-42.667 -68 -64 -163.667 -64 -287z" />
    <glyph glyph-name="e" unicode="e" horiz-adv-x="1091" 
d="M82 514c0 71.333 9.99805 139.332 29.998 203.999s49.333 123.167 88 175.5s89.667 94 153 125s134.666 46.5 213.999 46.5c53.333 0 102.333 -6.83301 147 -20.5s82.334 -31.834 113.001 -54.501s57.834 -49.5 81.501 -80.5s42.334 -62.333 56.001 -94
s24.834 -65.167 33.501 -100.5s14.5 -67.166 17.5 -95.499s4.5 -55.833 4.5 -82.5v-37h-758v-16c0 -68.667 11.667 -131 35 -187c49.333 -121.333 140 -182 272 -182c90.667 0 163 30 217 90c28.667 30.667 50 67.334 64 110.001l151 -30
c-30.667 -94.667 -87.334 -170.667 -170.001 -228c-76.667 -51.333 -166 -77 -268 -77c-147.333 0 -265.333 50.333 -354 151c-84.667 96 -127 223.667 -127 383zM269.998 626.999h570c-2.66699 76.667 -19 140 -49 190c-50 80.667 -124 121 -222 121
c-48 0 -91.333 -10 -130 -30s-71 -45.667 -97 -77c-46 -58.667 -70 -126.667 -72 -204z" />
    <glyph glyph-name="f" unicode="f" horiz-adv-x="612" 
d="M16 918v126h185v29c0 60 6.16699 114.333 18.5 163s37.5 90 75.5 124c50 43.333 122.333 65 217 65c50 0 100.667 -4.66699 152 -14v-127c-46 9.33301 -90.667 14 -134 14c-58.667 0 -101.667 -14.333 -129 -43c-30 -31.333 -45 -78.333 -45 -141v-70h246v-126h-246v-918
h-155v918h-185z" />
    <glyph glyph-name="g" unicode="g" horiz-adv-x="1038" 
d="M55 -123c0 52.667 14.332 97.1689 42.999 133.502s67 62.166 115 77.499c-12.667 6.66699 -25.5 15.334 -38.5 26.001s-26.5 28.834 -40.5 54.501s-21 53.5 -21 83.5c0 41.333 12 79.166 36 113.499s59.667 58.5 107 72.5v4c-90 63.333 -135 153.666 -135 270.999
c0 46.667 9.5 91.834 28.5 135.501s44.833 81.167 77.5 112.5c72.667 69.333 170.334 104 293.001 104c73.333 0 143.666 -14.333 210.999 -43c8.66699 88 53 144.667 133 170c26 8 59.667 12 101 12c16 0 28 -0.666992 36 -2l13 -2v-127h-29c-4 0 -10.5 0.333008 -19.5 1
s-15.5 1 -19.5 1c-44.667 0 -78 -15.667 -100 -47c-10 -14 -21 -39.333 -33 -76c66.667 -66.667 100 -152 100 -256c0 -90 -33.333 -168.333 -100 -235c-71.333 -71.333 -161.333 -107 -270 -107c-18.667 0 -46 2.66699 -82 8c-42 7.33301 -65.333 11 -70 11
c-36.667 0 -66 -7.66699 -88 -23c-26 -18.667 -39 -43.334 -39 -74.001c0 -59.333 45.667 -91.333 137 -96l217 -10c110 -5.33301 182.667 -12 218 -20c20.667 -4.66699 39.667 -10.334 57 -17.001c52.667 -20.667 92.5 -51.5 119.5 -92.5s40.5 -85.167 40.5 -132.5
c0 -45.333 -12.167 -89.666 -36.5 -132.999s-64.166 -79 -119.499 -107c-80.667 -40.667 -200 -61 -358 -61c-154.667 0 -274 23.167 -358 69.5s-126 113.166 -126 200.499zM214.999 -91.998c0 -20 4.33105 -39.001 12.998 -57.001s23.834 -36.333 45.501 -55
s55.334 -33.667 101.001 -45s101.167 -17 166.5 -17c92.667 0 167.667 8.66699 225 26c46 14.667 78.667 34.834 98 60.501s29 50.167 29 73.5c0 56.667 -35 94.334 -105 113.001c-36 9.33301 -107 16.666 -213 21.999l-249 12c-74 -32 -111 -76.333 -111 -133z
M288.997 711.001c0 -31.333 6.16602 -63.002 18.499 -95.002s28.5 -57.667 48.5 -77c40.667 -38.667 95.334 -58 164.001 -58c38 0 71.667 6.5 101 19.5s51.5 28.333 66.5 46s27.167 38.167 36.5 61.5s15.166 43 17.499 59s3.5 31.333 3.5 46
c0 66.667 -20.333 120.334 -61 161.001c-40.667 42.667 -94.667 64 -162 64c-47.333 0 -89 -10.333 -125 -31c-35.333 -20.667 -62.166 -48.667 -80.499 -84s-27.5 -72.666 -27.5 -111.999z" />
    <glyph glyph-name="h" unicode="h" horiz-adv-x="1150" 
d="M166 0l-0.00195312 1405h156v-557c30.667 66.667 74.834 119.5 132.501 158.5s125.834 58.5 204.501 58.5c108.667 0 190.667 -32 246 -96c32.667 -36 54.167 -77.333 64.5 -124s15.5 -99.667 15.5 -159v-686h-156v647c0 34.667 -0.5 61.5 -1.5 80.5
s-4.83301 41.667 -11.5 68s-16.667 48.5 -30 66.5c-33.333 45.333 -85 68 -155 68c-90 0 -165 -36.333 -225 -109c-56 -68 -84 -163.333 -84 -286v-535h-156z" />
    <glyph glyph-name="i" unicode="i" horiz-adv-x="487" 
d="M158 1225v180h172v-180h-172zM166 0v1044h156v-1044h-156z" />
    <glyph glyph-name="j" unicode="j" horiz-adv-x="485" 
d="M-131 -217c46 -9.33301 85.667 -14.0029 119 -14.0029c71.333 0 120.333 20.333 147 61c19.333 31.333 29 82 29 152v1062h155v-1054c0 -25.333 -0.5 -47.166 -1.5 -65.499s-3.83301 -40.666 -8.5 -66.999s-11.167 -49.166 -19.5 -68.499s-20.333 -38.833 -36 -58.5
s-34.5 -36.167 -56.5 -49.5c-44 -26 -105 -39 -183 -39c-50 0 -98.333 6 -145 18v123zM156 1225v180h172v-180h-172z" />
    <glyph glyph-name="k" unicode="k" horiz-adv-x="1044" 
d="M166 0v1405h156v-899l481 538h172l-322 -364l365 -680h-172l-303 569l-221 -247v-322h-156z" />
    <glyph glyph-name="l" unicode="l" horiz-adv-x="487" 
d="M166 0v1405h156v-1405h-156z" />
    <glyph glyph-name="m" unicode="m" horiz-adv-x="1728" 
d="M166 0l-0.00195312 1040h141v-200h2c29.333 67.333 72.166 121.666 128.499 162.999s119.5 62 189.5 62c92.667 0 165.667 -32 219 -96c34 -40 57 -90 69 -150c24.667 62 59.667 114.667 105 158c62 58.667 139 88 231 88c98.667 0 175.334 -31.333 230.001 -94
c54.667 -63.333 82 -155.666 82 -276.999v-694h-156v655v17.5v20.5c0 3.33301 -0.166992 10 -0.5 20s-0.666016 17.333 -0.999023 22s-1 11.667 -2 21s-2.16699 16.833 -3.5 22.5l-5 21.5c-2 8.66699 -4.33301 16 -7 22s-5.83398 12.667 -9.50098 20s-7.83398 14 -12.501 20
c-33.333 45.333 -81.666 68 -144.999 68c-70.667 0 -131.667 -24.667 -183 -74c-39.333 -38 -65.166 -77.333 -77.499 -118s-18.5 -86.667 -18.5 -138v-600h-156v655c0 95.333 -16.333 164.333 -49 207c-35.333 45.333 -86.333 68 -153 68
c-61.333 0 -114.666 -20 -159.999 -60c-68 -60.667 -102 -150.667 -102 -270v-600h-156z" />
    <glyph glyph-name="n" unicode="n" horiz-adv-x="1150" 
d="M166 0v1040h143v-192h4c31.333 68 76.833 121.167 136.5 159.5s129.5 57.5 209.5 57.5c106 0 188 -32 246 -96c32.667 -36 54.167 -77.333 64.5 -124s15.5 -99.667 15.5 -159v-686h-156v647c0 34.667 -0.5 61.5 -1.5 80.5s-4.83301 41.667 -11.5 68
s-16.667 48.5 -30 66.5c-36 45.333 -89 68 -159 68c-75.333 0 -140.333 -25.333 -195 -76c-73.333 -68 -110 -169 -110 -303v-551h-156z" />
    <glyph glyph-name="o" unicode="o" horiz-adv-x="1105" 
d="M82 522c0 90 14.333 171.667 43 245s67 133 115 179c84.667 79.333 189 119 313 119s228.333 -39.667 313 -119c48 -46 86.333 -105.667 115 -179s43 -155 43 -245s-14.333 -171.667 -43 -245s-67 -133 -115 -179c-84 -78.667 -188.333 -118 -313 -118
s-229 39.333 -313 118c-48 46 -86.333 105.667 -115 179s-43 155 -43 245zM262 522c0 -156 33.3311 -267.331 99.998 -333.998c48.667 -48.667 112.334 -73 191.001 -73c78 0 141.333 24.333 190 73c67.333 67.333 101 178.666 101 333.999s-33.667 266.666 -101 333.999
c-49.333 49.333 -112.666 74 -189.999 74c-78 0 -141.667 -24.667 -191 -74c-66.667 -66.667 -100 -178 -100 -334z" />
    <glyph glyph-name="p" unicode="p" horiz-adv-x="1124" 
d="M166 -340v1384h143v-196l2 2c24.667 58 63.167 108.333 115.5 151s117.833 64 196.5 64c120 0 216 -40.333 288 -121c43.333 -48 76 -109.5 98 -184.5s33 -152.167 33 -231.5c0 -73.333 -9.16699 -145 -27.5 -215s-45.833 -129.333 -82.5 -178
c-74.667 -103.333 -177.667 -155 -309 -155c-142 0 -240.333 61.333 -295 184h-6v-504h-156zM322 414c0 -86 24.334 -156.334 73.001 -211.001c53.333 -58.667 119.666 -88 198.999 -88c36 0 72.5 9.33301 109.5 28s68.833 50.334 95.5 95.001c42 68.667 63 164.667 63 288
c0 126 -20.333 221.667 -61 287c-47.333 78 -115.666 117 -204.999 117c-72.667 0 -135.334 -27.333 -188.001 -82c-57.333 -62 -86 -133.667 -86 -215v-219z" />
    <glyph glyph-name="q" unicode="q" horiz-adv-x="1140" 
d="M82 528c0 56.667 4.83105 109.5 14.498 158.5s22.334 90.167 38.001 123.5s30.334 60.166 44.001 80.499s27.834 38.166 42.501 53.499c75.333 80.667 172.333 121 291 121c91.333 0 165.666 -24 222.999 -72c36.667 -31.333 66 -68.666 88 -111.999l62 163h90
c-5.33301 -41.333 -8 -82.666 -8 -123.999v-1260h-156v516h-6c-16 -44.667 -43.333 -83 -82 -115c-64 -54 -142 -81 -234 -81c-62 0 -117.5 12 -166.5 36s-93.167 63.667 -132.5 119c-72 99.333 -108 230.333 -108 393zM261.998 526
c0 -119.333 20.666 -215.332 61.999 -287.999c46.667 -82 114 -123 202 -123c96.667 0 172.667 45.667 228 137c38 62.667 57 133.667 57 213v147c0 80 -24 151.667 -72 215c-51.333 68.667 -118.666 103 -201.999 103c-86.667 0 -155 -39 -205 -117
c-46.667 -70.667 -70 -166.334 -70 -287.001z" />
    <glyph glyph-name="r" unicode="r" horiz-adv-x="696" 
d="M166 0v1044h143v-247h4c8.66699 39.333 23.667 77.166 45 113.499s45.333 65.833 72 88.5c52 45.333 113.333 68 184 68c26.667 0 46.667 -1.33301 60 -4v-152h-33c-103.333 -3.33301 -184.666 -42.666 -243.999 -117.999c-28.667 -36.667 -48.334 -75.667 -59.001 -117
s-16 -92 -16 -152v-524h-156z" />
    <glyph glyph-name="s" unicode="s" horiz-adv-x="1001" 
d="M61 276l156 31.002c10 -50.667 34.667 -93.667 74 -129c60 -48 138.333 -72 235 -72c79.333 0 140.333 16.667 183 50c40.667 30 61 71.667 61 125c0 23.333 -4.5 43.833 -13.5 61.5s-19.167 31.667 -30.5 42s-28 19.666 -50 27.999s-39.5 14.166 -52.5 17.499
s-31.833 7.33301 -56.5 12l-157 31c-204 39.333 -306 136.333 -306 291c0 86.667 31.667 157 95 211c70 60 171 90 303 90c135.333 0 238.333 -34 309 -102c44.667 -42.667 76 -95.334 94 -158.001l-147 -31c-17.333 50 -47.833 89.833 -91.5 119.5
s-97.834 44.5 -162.501 44.5c-35.333 0 -66.666 -3.83301 -93.999 -11.5s-48.666 -17.167 -63.999 -28.5s-27.833 -24.666 -37.5 -39.999s-16 -29.333 -19 -42s-4.5 -25.334 -4.5 -38.001c0 -17.333 2.66699 -33.166 8 -47.499s13.666 -26.333 24.999 -36
s21.666 -17.667 30.999 -24s22.5 -12 39.5 -17s29 -8.33301 36 -10s18.5 -3.83398 34.5 -6.50098c1.33301 -0.666992 2.5 -1 3.5 -1s2.16699 -0.166992 3.5 -0.5s2.33301 -0.5 3 -0.5l141 -27c26.667 -4.66699 46.834 -8.5 60.501 -11.5s34.167 -8.33301 61.5 -16
s52 -17.5 74 -29.5s42 -26.333 60 -43c56 -53.333 84 -125 84 -215c0 -91.333 -34 -165.666 -102 -222.999c-70 -60 -174.333 -90 -313 -90c-122.667 0 -219 19 -289 57c-97.333 51.333 -159 131 -185 239z" />
    <glyph glyph-name="t" unicode="t" horiz-adv-x="647" 
d="M10 918l0.000976562 126h183v263l155 16v-279h236v-126h-236v-617c0 -68 16.333 -117 49 -147c30 -26 72.333 -39 127 -39c28.667 0 67.667 4 117 12v-127c-47.333 -8 -97 -12 -149 -12c-104.667 0 -181.334 24.333 -230.001 73c-46 47.333 -69 120 -69 218v639h-183z
" />
    <glyph glyph-name="u" unicode="u" horiz-adv-x="1142" 
d="M166 395l-0.00195312 649h156v-649c0 -101.333 17.667 -173 53 -215c16.667 -20.667 39.334 -36.667 68.001 -48s58.334 -17 89.001 -17c80.667 0 149 32.667 205 98s84 157.333 84 276v555h156v-1044h-143v207h-5c-27.333 -74 -70 -130.333 -128 -169
s-122.333 -58 -193 -58c-104 0 -186 34 -246 102c-64 72.667 -96 177 -96 313z" />
    <glyph glyph-name="v" unicode="v" horiz-adv-x="950" 
d="M27 1044h180l285 -849h4l284 849h144l-359 -1044h-168z" />
    <glyph glyph-name="w" unicode="w" horiz-adv-x="1415" 
d="M41 1044h172l215 -780h4l215 780h131l226 -780h4l223 780h143l-309 -1044h-131l-229 770l-3 2l-215 -772h-131z" />
    <glyph glyph-name="x" unicode="x" horiz-adv-x="894" 
d="M8 0l348 539l-315 505h188l220 -360l227 360h155l-303 -471l359 -573h-189l-262 422l-272 -422h-156z" />
    <glyph glyph-name="y" unicode="y" horiz-adv-x="874" 
d="M20 1044l181 -0.000976562l270 -802l281 802h143l-412 -1142c-30.667 -83.333 -67.334 -145.666 -110.001 -186.999c-54 -50 -119 -75 -195 -75c-48 0 -91.667 6.66699 -131 20v121c33.333 -9.33301 71 -14 113 -14c50.667 0 89.334 11.333 116.001 34
c34 28.667 67 89.667 99 183l12 34z" />
    <glyph glyph-name="z" unicode="z" horiz-adv-x="894" 
d="M72 0v125l553 793h-510v126h723v-88l-572 -829h572v-127h-766z" />
    <glyph glyph-name="braceleft" unicode="{" horiz-adv-x="589" 
d="M96 477l0.000976562 122.996h10c21.333 0 40.333 4.5 57 13.5s30.167 19.833 40.5 32.5s19.333 28.667 27 48s13.167 36.5 16.5 51.5s6 32.833 8 53.5s3 34.834 3 42.501v28.5v322c0 24 0.666992 44.333 2 61s6 36.834 14 60.501s19.167 42.834 33.5 57.501
s35.666 27.334 63.999 38.001s62.166 16 101.499 16h100v-122h-49c-21.333 0 -39.5 -2.66699 -54.5 -8s-26.167 -11.333 -33.5 -18s-13 -16.5 -17 -29.5s-6.16699 -23.333 -6.5 -31s-0.5 -18.834 -0.5 -33.501v-5v-4v-332c0 -117.333 -50 -217.666 -150 -300.999v-2
c48.667 -30.667 85.834 -72.834 111.501 -126.501s38.5 -111.834 38.5 -174.501v-332c0 -87.333 35.333 -131 106 -131h55v-123h-94c-80 0 -136.833 20.333 -170.5 61s-50.5 98.667 -50.5 174v318c0 53.333 -4.66699 98.833 -14 136.5s-22 65.834 -38 84.501
s-31.833 31.834 -47.5 39.501s-32.167 11.5 -49.5 11.5h-13z" />
    <glyph glyph-name="bar" unicode="|" horiz-adv-x="1036" 
d="M457 0v1405h123v-1405h-123z" />
    <glyph glyph-name="braceright" unicode="}" horiz-adv-x="589" 
d="M16 -225l56.001 -0.00292969c70.667 0 106 43.667 106 131v332c0 62.667 12.833 120.834 38.5 174.501s62.834 95.834 111.501 126.501v2c-100 83.333 -150 183.666 -150 300.999v332v7c0 13.333 -0.166992 23.833 -0.5 31.5s-2.16602 18.167 -5.49902 31.5
s-8.33301 23.5 -15 30.5s-16.667 13.5 -30 19.5s-29.666 9 -48.999 9h-62v122h113c38 0 70.667 -6 98 -18s47.5 -25.833 60.5 -41.5s23.167 -36 30.5 -61s11.5 -44.667 12.5 -59s1.5 -32.166 1.5 -53.499v-322v-28.5c0 -7 1 -21 3 -42s4.66699 -38.833 8 -53.5
s8.66602 -32 15.999 -52s16.166 -36.167 26.499 -48.5s23.833 -23 40.5 -32s35.667 -13.5 57 -13.5h11v-123h-13c-17.333 0 -33.833 -3.83301 -49.5 -11.5s-31.5 -20.834 -47.5 -39.501s-28.667 -46.834 -38 -84.501s-14 -83.167 -14 -136.5v-320
c0 -31.333 -2.83301 -59.166 -8.5 -83.499s-15.834 -48.666 -30.501 -72.999s-37.334 -43.166 -68.001 -56.499s-68.667 -20 -114 -20h-95v123z" />
    <glyph glyph-name="asciitilde" unicode="~" horiz-adv-x="1292" 
d="M129 506c12 31.333 28.666 64.3359 49.999 99.0029s45 63 71 85c50.667 44 108.667 66 174 66c12.667 0 34.334 -2.66699 65.001 -8c31.333 -6.66699 69.666 -19.667 114.999 -39l58 -27c4.66699 -2 16.667 -7.66699 36 -17s33.333 -15.833 42 -19.5
s21.167 -8.33398 37.5 -14.001s32 -9.66699 47 -12s30.833 -3.5 47.5 -3.5c45.333 0 84.333 13.667 117 41c32 27.333 58 61.666 78 102.999l96 -58c-35.333 -74.667 -75.666 -132 -120.999 -172c-53.333 -47.333 -114 -71 -182 -71c-44 0 -91 10 -141 30
c-16.667 7.33301 -49.334 22.666 -98.001 45.999l-56 26c-56.667 26 -105.667 39 -147 39c-43.333 0 -81.666 -15 -114.999 -45c-29.333 -27.333 -56 -64.333 -80 -111z" />
    <glyph glyph-name="uni00A0" unicode="&#xa0;" horiz-adv-x="477" 
 />
    <glyph glyph-name="section" unicode="&#xa7;" horiz-adv-x="1253" 
d="M141 -80l181.005 27c26.667 -62.667 68.167 -111.167 124.5 -145.5s119.166 -51.5 188.499 -51.5c84.667 0 155.334 20.667 212.001 62s85 92.333 85 153c0 28 -5.5 53.167 -16.5 75.5s-23.833 40.333 -38.5 54s-34.334 26.334 -59.001 38.001s-45.5 20.167 -62.5 25.5
s-38.167 11.333 -63.5 18l-164 43l-65 17.5c-15.333 4.33301 -37 11.5 -65 21.5s-50.333 19.667 -67 29s-35.667 22.166 -57 38.499s-37.833 33.5 -49.5 51.5s-21.667 39.833 -30 65.5s-12.5 53.5 -12.5 83.5c0 70.667 19.833 132.5 59.5 185.5s86.834 93.833 141.501 122.5
c-53.333 26.667 -94.666 63.834 -123.999 111.501s-44 101.834 -44 162.501c0 38 7 74.833 21 110.5s35.333 69.334 64 101.001s69.667 57.167 123 76.5s115 29 185 29c19.333 0 38.666 -0.833008 57.999 -2.5s44.166 -5.16699 74.499 -10.5s59.166 -14.5 86.499 -27.5
s55 -28.833 83 -47.5s53.833 -44 77.5 -76s42.5 -68.667 56.5 -110l-155 -16c-14.667 32.667 -34.334 60.167 -59.001 82.5s-50.834 38.333 -78.501 48s-51.834 16.167 -72.501 19.5s-41 5 -61 5c-70 0 -124.667 -16.833 -164 -50.5s-59 -70.167 -59 -109.5
c0 -16.667 1.83301 -32.334 5.5 -47.001s9.83398 -28.167 18.501 -40.5s17.167 -23.333 25.5 -33s19.833 -19 34.5 -28l37 -22c10 -5.66699 23.833 -11.834 41.5 -18.501l39.5 -15c8.66699 -3.33301 22 -7.83301 40 -13.5s29.667 -9.5 35 -11.5l127 -41
c22.667 -7.33301 40.334 -13.333 53.001 -18s30.167 -12 52.5 -22s40.333 -19.5 54 -28.5s28.834 -20.833 45.501 -35.5s29.667 -30.167 39 -46.5s17.333 -35.833 24 -58.5s10 -47 10 -73c0 -112 -55.333 -210.333 -166 -295
c63.333 -25.333 112.666 -64.666 147.999 -117.999s53 -112.333 53 -177c0 -44.667 -10.833 -88.834 -32.5 -132.501s-52.167 -83.5 -91.5 -119.5s-90.333 -65.167 -153 -87.5s-131.334 -33.5 -206.001 -33.5c-18 0 -35.5 0.5 -52.5 1.5s-39.5 3.83301 -67.5 8.5
s-54.333 11 -79 19s-51.834 19.667 -81.501 35s-56.5 33.333 -80.5 54s-47.5 47.167 -70.5 79.5s-41.833 68.166 -56.5 107.499zM354.005 582c0 -17.333 2.33105 -33.666 6.99805 -48.999s10 -28.5 16 -39.5s15.5 -21.833 28.5 -32.5s23.667 -18.834 32 -24.501
s21.833 -12.5 40.5 -20.5s32 -13.333 40 -16l44 -14c21.333 -6.66699 34.666 -11 39.999 -13l154 -49c48 21.333 84.833 52.5 110.5 93.5s38.5 82.167 38.5 123.5c0 14.667 -2.16699 28.667 -6.5 42s-9.16602 24.833 -14.499 34.5s-13.666 19.167 -24.999 28.5
s-20.666 16.666 -27.999 21.999s-18.833 11.5 -34.5 18.5s-26.834 11.833 -33.501 14.5s-18.667 7 -36 13s-27.666 9.66699 -30.999 11l-180 63c-16 -7.33301 -31.667 -16 -47 -26s-32.5 -23.5 -51.5 -40.5s-34.333 -37.667 -46 -62s-17.5 -50.166 -17.5 -77.499z" />
    <glyph glyph-name="copyright" unicode="&#xa9;" horiz-adv-x="1576" 
d="M47 702c0 101.333 19.5 197.833 58.5 289.5s91.5 170.5 157.5 236.5s144.667 118.5 236 157.5s187.666 58.5 288.999 58.5c135.333 0 259.833 -33 373.5 -99s203.5 -155.833 269.5 -269.5s99 -238.167 99 -373.5c0 -101.333 -19.5 -197.666 -58.5 -288.999
s-91.5 -170 -157.5 -236s-144.833 -118.5 -236.5 -157.5s-188.167 -58.5 -289.5 -58.5s-197.666 19.5 -288.999 58.5s-170 91.5 -236 157.5s-118.5 144.667 -157.5 236s-58.5 187.666 -58.5 288.999zM154 702c0 -114 28.499 -219.666 85.499 -316.999
s134.167 -174.5 231.5 -231.5s203 -85.5 317 -85.5s219.833 28.5 317.5 85.5s175 134.167 232 231.5s85.5 203 85.5 317c0 85.333 -16.833 167.166 -50.5 245.499s-79 146 -136 203s-124.667 102.333 -203 136s-160.166 50.5 -245.499 50.5
c-114 0 -219.667 -28.5 -317 -85.5s-174.5 -134.333 -231.5 -232s-85.5 -203.5 -85.5 -317.5zM400.999 723.001c0 136.667 39.666 244.669 118.999 324.002c68 68 155.333 102 262 102c102.667 0 185.334 -34 248.001 -102c40.667 -46 70 -106.333 88 -181l-127 -24
c-1.33301 4.66699 -3.66602 12 -6.99902 22s-5.83301 17.167 -7.5 21.5l-7 18.5c-3 8 -5.83301 14.667 -8.5 20s-6 11.5 -10 18.5s-8.33301 13.833 -13 20.5c-20 29.333 -41.5 49.833 -64.5 61.5s-54.167 17.5 -93.5 17.5c-66.667 0 -119 -22.333 -157 -67
c-26.667 -32 -46.334 -74.5 -59.001 -127.5s-19 -103.5 -19 -151.5c0 -108 26 -195.333 78 -262c39.333 -48 89.666 -72 150.999 -72c32 0 62.5 6.83301 91.5 20.5s52.5 31.5 70.5 53.5c8 9.33301 15.167 20.333 21.5 33s10.833 22.667 13.5 30s7 20.5 13 39.5l11 34.5
l123 -26c-18 -78 -50 -141.667 -96 -191c-60 -66.667 -142.667 -100 -248 -100c-104 0 -187.333 34 -250 102c-39.333 41.333 -69.666 94.166 -90.999 158.499s-32 133.166 -32 206.499z" />
    <glyph glyph-name="guillemotleft" unicode="&#xab;" horiz-adv-x="722" 
d="M86 526l178 291h90l-108 -291l108 -299h-90zM354 526l178 291h91l-109 -291l109 -299h-91z" />
    <glyph glyph-name="logicalnot" unicode="&#xac;" 
d="M84 657v134h1061v-553h-133v419h-928z" />
    <glyph glyph-name="uni00AD" unicode="&#xad;" horiz-adv-x="641" 
d="M102 463v127h437v-127h-437z" />
    <glyph glyph-name="registered" unicode="&#xae;" horiz-adv-x="1576" 
d="M47 702c0 101.333 19.5 197.833 58.5 289.5s91.5 170.5 157.5 236.5s144.667 118.5 236 157.5s187.666 58.5 288.999 58.5c135.333 0 259.833 -33 373.5 -99s203.5 -155.833 269.5 -269.5s99 -238.167 99 -373.5c0 -101.333 -19.5 -197.666 -58.5 -288.999
s-91.5 -170 -157.5 -236s-144.833 -118.5 -236.5 -157.5s-188.167 -58.5 -289.5 -58.5s-197.666 19.5 -288.999 58.5s-170 91.5 -236 157.5s-118.5 144.667 -157.5 236s-58.5 187.666 -58.5 288.999zM154 702c0 -114 28.499 -219.666 85.499 -316.999
s134.167 -174.5 231.5 -231.5s203 -85.5 317 -85.5s219.833 28.5 317.5 85.5s175 134.167 232 231.5s85.5 203 85.5 317c0 85.333 -16.833 167.166 -50.5 245.499s-79 146 -136 203s-124.667 102.333 -203 136s-160.166 50.5 -245.499 50.5
c-114 0 -219.667 -28.5 -317 -85.5s-174.5 -134.333 -231.5 -232s-85.5 -203.5 -85.5 -317.5zM468.999 272.001v861.001h362c76.667 0 141 -18 193 -54c32.667 -22.667 57.5 -51 74.5 -85s25.5 -69 25.5 -105c0 -27.333 -5.66699 -56.333 -17 -87
s-27.333 -56.334 -48 -77.001c-26 -26 -58.667 -45 -98 -57l176 -396h-140l-166 367h-235v-367h-127zM595.999 739.002h221c58.667 0 103 15.667 133 47c26 28 39 63 39 105s-15 75.333 -45 100c-27.333 23.333 -65 35 -113 35h-235v-287z" />
    <glyph glyph-name="degree" unicode="&#xb0;" horiz-adv-x="817" 
d="M102 1118c0 84.667 30 157 90 217s132.667 90 218 90s157.833 -29.833 217.5 -89.5s89.5 -132.167 89.5 -217.5s-29.833 -157.833 -89.5 -217.5s-132.167 -89.5 -217.5 -89.5s-158 30 -218 90s-90 132.333 -90 217zM225 1118c0 -50.667 18 -94 54 -130
s79.667 -54 131 -54c50.667 0 94 18 130 54s54 79.333 54 130c0 51.333 -18 95 -54 131s-79.333 54 -130 54s-94.167 -18.167 -130.5 -54.5s-54.5 -79.833 -54.5 -130.5z" />
    <glyph glyph-name="plusminus" unicode="&#xb1;" horiz-adv-x="1316" 
d="M129 0v133h1059v-133h-1059zM129 698v133h463v463h133v-463h463v-133h-463v-462h-133v462h-463z" />
    <glyph glyph-name="paragraph" unicode="&#xb6;" horiz-adv-x="1185" 
d="M102 918c0 72.667 13.835 140.334 41.502 203.001s64.5 116.334 110.5 161.001c24 22.667 49.167 42 75.5 58s50.666 28.167 72.999 36.5s48.5 14.666 78.5 18.999s55 7 75 8s46.333 1.5 79 1.5h438v-133h-119v-1657h-133v1657h-166v-1657h-133v825
c-105.333 3.33301 -195.333 39.666 -270 108.999c-46.667 42.667 -83.334 95.667 -110.001 159s-40 133.333 -40 210z" />
    <glyph glyph-name="periodcentered" unicode="&#xb7;" horiz-adv-x="528" 
d="M152 475v232h225v-232h-225z" />
    <glyph glyph-name="guillemotright" unicode="&#xbb;" horiz-adv-x="722" 
d="M100 227l109 299l-109 291h90l179 -291l-179 -299h-90zM369 227l108 299l-108 291h90l178 -291l-178 -299h-90z" />
    <glyph glyph-name="afii10023" unicode="&#x401;" horiz-adv-x="1161" 
d="M180 0v1405h889v-152h-713v-446h566v-143h-566v-512h734v-152h-910zM317 1518v194h195v-194h-195zM715 1518v194h194v-194h-194z" />
    <glyph glyph-name="afii10051" unicode="&#x402;" horiz-adv-x="1429" 
d="M23 1253v152h974v-152h-419v-481c112 44 217.667 66 317 66c145.333 0 259.333 -46 342 -138c74 -81.333 111 -181 111 -299c0 -34 -1.33301 -63.667 -4 -89s-10.834 -56.5 -24.501 -93.5s-32.834 -70.833 -57.501 -101.5c-75.333 -91.333 -188.666 -137 -339.999 -137
c-70.667 0 -137.667 9.33301 -201 28l39 144c39.333 -14 86.333 -21 141 -21c98.667 0 170.334 26.667 215.001 80c36.667 42.667 55 102 55 178c0 80.667 -19.667 145.667 -59 195c-54 68 -140 102 -258 102c-100.667 0 -192.667 -20.333 -276 -61v-625h-177v1253h-378z
" />
    <glyph glyph-name="afii10052" unicode="&#x403;" horiz-adv-x="1015" 
d="M180 0v1405h836v-152h-660v-1253h-176zM324 1597l411 244l70 -133l-440 -192z" />
    <glyph glyph-name="afii10053" unicode="&#x404;" horiz-adv-x="1245" 
d="M90 731c0 122 15.167 229.829 45.5 323.496s72.5 168.834 126.5 225.501c93.333 96.667 217.666 145 372.999 145c152 0 275.667 -46.333 371 -139c68.667 -67.333 121 -158 157 -272l-172 -31c-20.667 70.667 -55.334 131.334 -104.001 182.001
c-69.333 72.667 -151.333 109 -246 109c-113.333 0 -202.666 -46.333 -267.999 -139c-29.333 -42 -51.666 -93 -66.999 -153s-23 -118.333 -23 -175h569v-152h-573c0 -132 21.667 -239.667 65 -323c29.333 -56 70 -103.5 122 -142.5s115.667 -58.5 191 -58.5
c98 0 182.667 41 254 123c42 48 70.667 100.667 86 158l179 -35c-28 -110 -81.333 -200.333 -160 -271c-93.333 -84 -209.333 -126 -348 -126c-52.667 0 -102.5 6.16699 -149.5 18.5s-86.5 27.333 -118.5 45s-62 38.667 -90 63s-49.667 46.333 -65 66
s-29.333 39.834 -42 60.501c-38 62 -66.333 137.833 -85 227.5s-28 179.834 -28 270.501z" />
    <glyph glyph-name="afii10054" unicode="&#x405;" horiz-adv-x="1230" 
d="M61 379l158.004 35c23.333 -80.667 69.666 -147.667 138.999 -201c71.333 -54.667 163.666 -82 276.999 -82c55.333 0 104.166 5.83301 146.499 17.5s75 26.167 98 43.5s41.833 37.666 56.5 60.999s24.167 44.333 28.5 63s6.5 37.667 6.5 57c0 118.667 -78 197 -234 235
l-233 58c-128.667 32 -222.334 79.167 -281.001 141.5s-88 139.166 -88 230.499c0 84.667 21.333 156.667 64 216s99.167 102.666 169.5 129.999s151.5 41 243.5 41c66 0 125.833 -7 179.5 -21s98.167 -32.167 133.5 -54.5s66.333 -49.166 93 -80.499s47 -62 61 -92
s25 -62 33 -96l-160 -43c-20 67.333 -55.333 121.333 -106 162c-61.333 49.333 -144 74 -248 74c-77.333 0 -140 -15 -188 -45c-66 -40.667 -99 -101.334 -99 -182.001c0 -30 6.5 -56.667 19.5 -80s32.167 -42.833 57.5 -58.5s51.5 -28.667 78.5 -39
s59.167 -20.166 96.5 -29.499l209 -52c115.333 -28 201.333 -64.667 258 -110c35.333 -29.333 65.666 -67.166 90.999 -113.499s38 -100.833 38 -163.5c0 -65.333 -14.167 -125.5 -42.5 -180.5s-65.833 -101.167 -112.5 -138.5c-86 -68 -203.667 -102 -353 -102
c-45.333 0 -83.833 1.33301 -115.5 4s-71.667 11.334 -120 26.001s-93.166 36 -134.499 64c-110.667 76 -184 177.667 -220 305z" />
    <glyph glyph-name="afii10055" unicode="&#x406;" horiz-adv-x="536" 
d="M180 0v1405h176v-1405h-176z" />
    <glyph glyph-name="afii10056" unicode="&#x407;" horiz-adv-x="561" 
d="M51 1518v194h164v-194h-164zM193 0v1405h176v-1405h-176zM346 1518v194h164v-194h-164z" />
    <glyph glyph-name="afii10057" unicode="&#x408;" horiz-adv-x="792" 
d="M0 8l-0.000976562 152c55.333 -19.333 115.333 -29 180 -29c84.667 0 150.334 21.333 197.001 64c17.333 16 31.5 33.333 42.5 52s18.5 39.834 22.5 63.501s6.5 43.167 7.5 58.5s1.5 37 1.5 65v971h176v-946c0 -77.333 -5.5 -141.833 -16.5 -193.5
s-34.167 -99.834 -69.5 -144.501c-74.667 -94 -186.667 -141 -336 -141c-64.667 0 -133 9.33301 -205 28z" />
    <glyph glyph-name="afii10058" unicode="&#x409;" horiz-adv-x="2015" 
d="M4 0l0.000976562 162.002l33 -4c34 -4.66699 64.833 1 92.5 17s51 43.5 70 82.5s35.5 78.667 49.5 119s25.167 95 33.5 164s15 128.5 20 178.5s8.5 116.667 10.5 200s3.16699 147.333 3.5 192s0.5 107.667 0.5 189v41v64h818v-604h309c21.333 0 40.833 -0.333008 58.5 -1
s40 -2.5 67 -5.5s51.5 -7 73.5 -12s46.167 -12.333 72.5 -22s49.833 -21.167 70.5 -34.5s41.167 -30.5 61.5 -51.5s37 -44.333 50 -70s23.667 -56.167 32 -91.5s12.5 -74 12.5 -116c0 -20 -1 -39.833 -3 -59.5s-6.66699 -43.334 -14 -71.001s-17 -53.167 -29 -76.5
s-29.333 -47 -52 -71s-48.834 -44.5 -78.501 -61.5s-67 -30.833 -112 -41.5s-95.167 -16 -150.5 -16h-545v1253h-479c-2 -314 -20.333 -574.667 -55 -782c-6.66699 -39.333 -13.667 -74.833 -21 -106.5s-17.166 -67.167 -29.499 -106.5s-27.333 -73.5 -45 -102.5
s-38.334 -56.333 -62.001 -82s-52.5 -45.334 -86.5 -59.001s-71.333 -20.5 -112 -20.5c-22.667 0 -44 2 -64 6zM1135 152.002l354 -0.000976562c19.333 0 34.833 0.166992 46.5 0.5s28.334 2.16602 50.001 5.49902s39.5 7.83301 53.5 13.5s29.833 14.334 47.5 26.001
s31.5 25.834 41.5 42.501s18.667 38 26 64s11 55.667 11 89c0 26 -1.83301 49.667 -5.5 71s-12 44 -25 68s-30.333 44.167 -52 60.5s-51.834 29.833 -90.501 40.5s-84 16 -136 16h-321v-497z" />
    <glyph glyph-name="afii10059" unicode="&#x40a;" horiz-adv-x="2068" 
d="M180 0l0.000976562 1405h176v-590h656v590h176v-604h309c21.333 0 40.833 -0.333008 58.5 -1s40 -2.5 67 -5.5s51.5 -7 73.5 -12s46.167 -12.333 72.5 -22s49.833 -21.167 70.5 -34.5s41.167 -30.5 61.5 -51.5s37 -44.333 50 -70s23.667 -56.167 32 -91.5
s12.5 -74 12.5 -116c0 -20 -1 -39.833 -3 -59.5s-6.66699 -43.334 -14 -71.001s-17 -53.167 -29 -76.5s-29.333 -47 -52 -71s-48.834 -44.5 -78.501 -61.5s-67 -30.833 -112 -41.5s-95.167 -16 -150.5 -16h-544v672h-656v-672h-176zM1188 152.001l354.003 -0.000976562
c19.333 0 35 0.166992 47 0.5s28.833 2.16602 50.5 5.49902s39.5 7.83301 53.5 13.5s29.667 14.334 47 26.001s31.166 25.834 41.499 42.501s19.166 38 26.499 64s11 55.667 11 89c0 26 -2 49.667 -6 71s-12.5 44 -25.5 68s-30.333 44.167 -52 60.5
s-51.834 29.833 -90.501 40.5s-84 16 -136 16h-321v-497z" />
    <glyph glyph-name="afii10060" unicode="&#x40b;" horiz-adv-x="1484" 
d="M23 1253v152h974v-152h-419v-481c109.333 38 215 57 317 57c149.333 0 260.666 -35.333 333.999 -106c74.667 -70.667 112 -167.667 112 -291v-432h-176v389c0 19.333 -0.666992 37 -2 53s-4.33301 34.333 -9 55s-11.167 39 -19.5 55s-20.166 32.167 -35.499 48.5
s-33.333 30 -54 41s-46.667 19.833 -78 26.5s-66.333 10 -105 10c-93.333 0 -188 -17.667 -284 -53v-625h-177v1253h-378z" />
    <glyph glyph-name="afii10061" unicode="&#x40c;" horiz-adv-x="1290" 
d="M180 0l-0.000976562 1405h176v-600h195c48 0 90.667 7.16699 128 21.5s68.333 41.833 93 82.5c21.333 35.333 42.5 99.666 63.5 192.999s38.167 154.666 51.5 183.999c42 92.667 113.667 139 215 139c24.667 0 46.334 -2.66699 65.001 -8v-139
c-19.333 2.66699 -34.333 4 -45 4c-28.667 0 -54.667 -15 -78 -45c-18 -23.333 -35.667 -76.333 -53 -159s-30.333 -136 -39 -160c-35.333 -94.667 -92.666 -149.334 -171.999 -164.001v-6c96.667 -13.333 167 -68.666 211 -165.999
c14.667 -32.667 30.5 -86.167 47.5 -160.5s36.833 -142.5 59.5 -204.5c9.33301 -28 20.666 -49.333 33.999 -64s32.666 -22 57.999 -22c18 0 31 1.33301 39 4v-135c-24 -13.333 -53.333 -20 -88 -20c-81.333 0 -143.666 37.333 -186.999 112c-12 22 -23.333 48.333 -34 79
s-18.834 57.5 -24.501 80.5s-13.5 56.5 -23.5 100.5c-3.33301 12 -7.83301 29.5 -13.5 52.5l-12 49c-2.33301 9.66699 -5.66602 21.667 -9.99902 36s-8.5 26.166 -12.5 35.499s-8.33301 18 -13 26c-14 26 -31 47 -51 63s-43.333 27.167 -70 33.5s-49.167 10.333 -67.5 12
s-42.833 2.5 -73.5 2.5h-193v-662h-176zM411.999 1597l411 244l70 -133l-440 -192z" />
    <glyph glyph-name="afii10062" unicode="&#x40e;" horiz-adv-x="1095" 
d="M20 1405l185.002 -0.000976562l399 -846h2l330 846h156l-418 -1038c-36.667 -93.333 -65.334 -157.666 -86.001 -192.999c-25.333 -42 -53.333 -76.667 -84 -104c-66.667 -57.333 -142.667 -86 -228 -86c-32 0 -63.333 5.33301 -94 16v150c26.667 -10 52.667 -15 78 -15
c65.333 0 118.666 19.333 159.999 58c40 36.667 71.333 94.667 94 174zM256.002 1753h155.996c0.666992 -42.667 16.834 -75.5 48.501 -98.5s70.834 -34.5 117.501 -34.5s85.667 11.5 117 34.5s47.333 55.833 48 98.5h156c-5.33301 -72 -34.666 -132 -87.999 -180
c-57.333 -50.667 -135 -76 -233 -76c-98.667 0 -176.667 25.333 -234 76c-53.333 48 -82.666 108 -87.999 180z" />
    <glyph glyph-name="afii10145" unicode="&#x40f;" horiz-adv-x="1343" 
d="M178 0v1405h176v-1251h635v1251h176v-1405h-411v-369h-164v369h-412z" />
    <glyph glyph-name="afii10017" unicode="&#x410;" horiz-adv-x="1146" 
d="M25 0l454 1405h203l457 -1405h-193l-131 408h-504l-127 -408h-159zM352 551h420l-209 666z" />
    <glyph glyph-name="afii10018" unicode="&#x411;" horiz-adv-x="1306" 
d="M180 0l0.00195312 1405h879v-152h-703v-432h351c32 0 60.5 -0.833008 85.5 -2.5s56 -5.33398 93 -11.001s72.167 -15.667 105.5 -30s62.666 -32.5 87.999 -54.5c38 -32 68.333 -75.167 91 -129.5s34 -112.833 34 -175.5c0 -56 -9.16699 -111 -27.5 -165
s-45.833 -100.667 -82.5 -140c-41.333 -44 -85.333 -73.833 -132 -89.5s-98.334 -23.5 -155.001 -23.5h-627zM356.002 152.001h409.999c23.333 0 43.333 1 60 3s36.834 8 60.501 18s44.167 24 61.5 42c45.333 47.333 68 114.333 68 201c0 80.667 -25.333 144 -76 190
c-49.333 42.667 -127 64 -233 64h-351v-518z" />
    <glyph glyph-name="afii10019" unicode="&#x412;" horiz-adv-x="1288" 
d="M180 0l-0.00292969 1405h537c26.667 0 49 -0.5 67 -1.5s42.167 -3.5 72.5 -7.5s59.5 -11.333 87.5 -22s54 -24.334 78 -41.001c87.333 -61.333 131 -150 131 -266c0 -108 -36.333 -192 -109 -252c-33.333 -28 -78.333 -50.333 -135 -67v-5
c62.667 -11.333 116 -35.666 160 -72.999c39.333 -30.667 71 -70.5 95 -119.5s36 -105.5 36 -169.5s-13.167 -121.167 -39.5 -171.5s-58.166 -90.166 -95.499 -119.499c-26 -20.667 -53.667 -37.667 -83 -51s-60.666 -22.5 -93.999 -27.5s-61.166 -8.16699 -83.499 -9.5
s-50.833 -2 -85.5 -2h-539zM355.997 151.999l351 -0.00195312c94.667 0 167 19 217 57c8 5.33301 16 12.333 24 21s17.333 20.834 28 36.501s19.334 35.334 26.001 59.001s10 49.5 10 77.5c0 74 -23.333 134.333 -70 181c-18.667 18.667 -38.834 34 -60.501 46
s-45.334 20.167 -71.001 24.5s-46.667 7 -63 8s-38.166 1.5 -65.499 1.5h-326v-512zM355.997 806.997h294.999c34 0 62.667 1 86 3s50.833 8.16699 82.5 18.5s58.834 24.833 81.501 43.5c50.667 42.667 76 98.667 76 168c0 72.667 -27.333 128 -82 166
c-48 31.333 -119.667 47 -215 47h-324v-446z" />
    <glyph glyph-name="afii10020" unicode="&#x413;" horiz-adv-x="1036" 
d="M180 0v1405h836v-152h-660v-1253h-176z" />
    <glyph glyph-name="afii10021" unicode="&#x414;" horiz-adv-x="1345" 
d="M14 152l88 0.000976562c81.333 152 140.833 293.667 178.5 425s66.5 290.666 86.5 477.999c6.66699 62.667 12.667 165 18 307l2 43h754v-1253h164v-467h-164v315h-963v-315h-164v467zM279 152.001h686v1101h-430l-7 -86c-4.66699 -70 -9 -127.667 -13 -173
s-12 -107 -24 -185s-26 -148.333 -42 -211s-38.667 -134 -68 -214s-63.333 -157.333 -102 -232z" />
    <glyph glyph-name="afii10022" unicode="&#x415;" horiz-adv-x="1161" 
d="M180 0v1405h889v-152h-713v-446h566v-143h-566v-512h734v-152h-910z" />
    <glyph glyph-name="afii10024" unicode="&#x416;" horiz-adv-x="1884" 
d="M61 8l0.00195312 137.002c8 -1.33301 20.333 -2 37 -2c14.667 0 27.334 2.16699 38.001 6.5s19.334 11.5 26.001 21.5s11.5 18.167 14.5 24.5s6.83301 16.833 11.5 31.5c8 22.667 18 55.5 30 98.5l40 137.5c13.333 46.667 28.333 87.667 45 123
c50 98 123.667 152 221 162v6c-50 14.667 -87 34.334 -111 59.001s-45 60.334 -63 107.001c-14 37.333 -27.667 83.5 -41 138.5l-22 90.5c-12.667 45.333 -32 78.666 -58 99.999c-16.667 14 -37.667 21 -63 21c-12.667 0 -22.334 -0.666992 -29.001 -2v137
c22 5.33301 47.333 8 76 8c104.667 0 179 -58.667 223 -176c9.33301 -24.667 28.666 -96.334 57.999 -215.001c6.66699 -25.333 12.167 -44.5 16.5 -57.5s11.833 -28.167 22.5 -45.5s24 -33 40 -47c50 -44.667 111.667 -67 185 -67h96v600h176v-600h96
c73.333 0 135 22.333 185 67c23.333 20.667 40.166 41.667 50.499 63s20.166 50.333 29.499 87l15.5 63l14.5 60c3.33301 14 7.5 29.667 12.5 47s9.83301 32.333 14.5 45c44 117.333 118.333 176 223 176c28.667 0 54 -2.66699 76 -8v-137
c-6.66699 1.33301 -16.334 2 -29.001 2c-25.333 0 -46.333 -7 -63 -21c-26 -21.333 -45.333 -54.666 -58 -99.999l-22 -90.5c-13.333 -55 -27 -101.167 -41 -138.5c-18 -46.667 -39 -82.334 -63 -107.001s-61 -44.334 -111 -59.001v-6c97.333 -10 171 -64 221 -162
c16.667 -35.333 31.667 -76.333 45 -123l40 -137.5c12 -43 22 -75.833 30 -98.5c4.66699 -14.667 8.5 -25.167 11.5 -31.5s7.83301 -14.5 14.5 -24.5s15.334 -17.167 26.001 -21.5s23.334 -6.5 38.001 -6.5c16.667 0 29 0.666992 37 2v-137
c-28.667 -10.667 -59.334 -16 -92.001 -16c-71.333 0 -128 30 -170 90c-20.667 30 -41.667 77.667 -63 143s-37.333 121.333 -48 168c-17.333 74 -34.666 126.333 -51.999 157c-16 28.667 -35 51.334 -57 68.001c-40 29.333 -98.667 44 -176 44h-135v-662h-176v662h-135
c-77.333 0 -136 -14.667 -176 -44c-8.66699 -6.66699 -17.167 -14.667 -25.5 -24s-15.333 -18 -21 -26s-11.334 -18.333 -17.001 -31l-13.5 -30c-3.33301 -7.33301 -7 -18.333 -11 -33l-8 -29c-1.33301 -4.66699 -3.83301 -14.334 -7.5 -29.001s-5.5 -22.334 -5.5 -23.001
c-10.667 -48 -26.5 -104.5 -47.5 -169.5s-41.833 -112.167 -62.5 -141.5c-42 -60 -98.667 -90 -170 -90c-33.333 0 -64.333 5.33301 -93 16z" />
    <glyph glyph-name="afii10025" unicode="&#x417;" horiz-adv-x="1261" 
d="M78 375l169.999 37c17.333 -72 51.333 -132.333 102 -181c68.667 -66.667 163.667 -100 285 -100c104 0 186.667 26 248 78c58.667 52 88 116 88 192c0 94.667 -35 163.667 -105 207c-60 36 -138.333 54 -235 54h-195v143h178c32.667 0 59.834 0.666992 81.501 2
s47.5 5.83301 77.5 13.5s54.333 18.834 73 33.501c24 19.333 43.667 45.833 59 79.5s23 70.5 23 110.5c0 76 -30 135 -90 177c-50 35.333 -117.667 53 -203 53c-98 0 -181.333 -24.667 -250 -74c-32 -22.667 -57.5 -48.5 -76.5 -77.5s-35.833 -63.833 -50.5 -104.5l-158 43
c30.667 106.667 89.334 192.667 176.001 258c93.333 70.667 208.333 106 345 106c132 0 239 -25.667 321 -77c33.333 -20.667 61.5 -44 84.5 -70s39.667 -51.667 50 -77s17.5 -48 21.5 -68s6 -39.333 6 -58c0 -70 -17.667 -134 -53 -192
c-40.667 -68.667 -103 -111.667 -187 -129v-4c80 -8 145.667 -36.667 197 -86c65.333 -61.333 98 -144 98 -248c0 -66.667 -13.833 -128.834 -41.5 -186.501s-63.5 -104.834 -107.5 -141.501c-53.333 -44 -111.5 -73 -174.5 -87s-131.833 -21 -206.5 -21
c-79.333 0 -149.333 7.33301 -210 22s-116.334 42 -167.001 82c-40 30.667 -75.5 71.334 -106.5 122.001s-53.5 107 -67.5 169z" />
    <glyph glyph-name="afii10026" unicode="&#x418;" horiz-adv-x="1388" 
d="M180 0v1405h176v-944c0 -28 -2 -71 -6 -129c31.333 56 49 86.667 53 92l629 885v96h176v-1405h-176v948c0 12.667 2 62 6 148c-14 -27.333 -31.667 -58 -53 -92l-629 -881v-123h-176z" />
    <glyph glyph-name="afii10027" unicode="&#x419;" horiz-adv-x="1388" 
d="M180 0l-0.00195312 1405h176v-944c0 -28 -2 -71 -6 -129l21 40c4.66699 9.33301 7.33398 14.833 8.00098 16.5s2.33398 4.66699 5.00098 9s9 13.166 19 26.499l629 885v96h176v-1405h-176v913c0 60.667 2 121.667 6 183c-14 -27.333 -31.667 -58 -53 -92l-629 -881v-123
h-176zM372.998 1753h154.994c0.666992 -42.667 16.834 -75.5 48.501 -98.5s70.834 -34.5 117.501 -34.5s85.834 11.5 117.501 34.5s47.834 55.833 48.501 98.5h156c-5.33301 -72 -34.666 -132 -87.999 -180c-57.333 -50.667 -135.333 -76 -234 -76
c-98 0 -175.667 25.333 -233 76c-53.333 48 -82.666 108 -87.999 180z" />
    <glyph glyph-name="afii10028" unicode="&#x41a;" horiz-adv-x="1290" 
d="M180 0l-0.000976562 1405h176v-600h195c48 0 90.667 7.16699 128 21.5s68.333 41.833 93 82.5c21.333 35.333 42.5 99.666 63.5 192.999s38.167 154.666 51.5 183.999c42 92.667 113.667 139 215 139c24.667 0 46.334 -2.66699 65.001 -8v-139
c-19.333 2.66699 -34.333 4 -45 4c-28.667 0 -54.667 -15 -78 -45c-18 -23.333 -35.667 -76.333 -53 -159s-30.333 -136 -39 -160c-35.333 -94.667 -92.666 -149.334 -171.999 -164.001v-6c96.667 -13.333 167 -68.666 211 -165.999
c14.667 -32.667 30.5 -86.167 47.5 -160.5s36.833 -142.5 59.5 -204.5c9.33301 -28 20.666 -49.333 33.999 -64s32.666 -22 57.999 -22c18 0 31 1.33301 39 4v-135c-24 -13.333 -53.333 -20 -88 -20c-81.333 0 -143.666 37.333 -186.999 112c-12 22 -23.333 48.333 -34 79
s-18.834 57.5 -24.501 80.5s-13.5 56.5 -23.5 100.5c-3.33301 12 -7.83301 29.5 -13.5 52.5l-12 49c-2.33301 9.66699 -5.66602 21.667 -9.99902 36s-8.5 26.166 -12.5 35.499s-8.33301 18 -13 26c-14 26 -31 47 -51 63s-43.333 27.167 -70 33.5s-49.167 10.333 -67.5 12
s-42.833 2.5 -73.5 2.5h-193v-662h-176z" />
    <glyph glyph-name="afii10029" unicode="&#x41b;" horiz-adv-x="1331" 
d="M20 0v162c16 -2.66699 27.667 -4 35 -4c38 0 70 8.33301 96 25s49.333 43 70 79c75.333 132 113 491.667 113 1079v64h817v-1405h-176v1253h-479c0 -654.667 -72.333 -1049.67 -217 -1185c-55.333 -50.667 -120.333 -76 -195 -76c-24.667 0 -46 2.66699 -64 8z" />
    <glyph glyph-name="afii10030" unicode="&#x41c;" horiz-adv-x="1720" 
d="M180 0v1405h258l422 -1124h4l418 1124h258v-1405h-176v1227h-4l-451 -1227h-118l-461 1227h-2v-1227h-148z" />
    <glyph glyph-name="afii10031" unicode="&#x41d;" horiz-adv-x="1368" 
d="M180 0v1405h176v-590h656v590h176v-1405h-176v672h-656v-672h-176z" />
    <glyph glyph-name="afii10032" unicode="&#x41e;" horiz-adv-x="1335" 
d="M90 702c0 126.667 18 239 54 337s85 177.667 147 239c100.667 98 226.334 147 377.001 147c150 0 275.333 -49 376 -147c62 -61.333 111 -141 147 -239s54 -210.333 54 -337s-18 -238.834 -54 -336.501s-85 -177.167 -147 -238.5c-100.667 -98 -226 -147 -376 -147
c-150.667 0 -276.334 49 -377.001 147c-62 61.333 -111 140.833 -147 238.5s-54 209.834 -54 336.501zM279 702c0 -187.333 38.667 -331.332 116 -431.999c70.667 -92.667 161.667 -139 273 -139c110.667 0 201.334 46.333 272.001 139c78 101.333 117 245.333 117 432
c0 187.333 -39 331.666 -117 432.999c-70.667 92.667 -161.334 139 -272.001 139c-111.333 0 -202.333 -46.333 -273 -139c-77.333 -100.667 -116 -245 -116 -433z" />
    <glyph glyph-name="afii10033" unicode="&#x41f;" horiz-adv-x="1347" 
d="M180 0v1405h987v-1405h-176v1253h-635v-1253h-176z" />
    <glyph glyph-name="afii10034" unicode="&#x420;" horiz-adv-x="1198" 
d="M180 0l-0.00195312 1405h465c70.667 0 135 -6 193 -18s111 -36 159 -72c100 -76 150 -182.667 150 -320c0 -41.333 -4.66699 -80.5 -14 -117.5s-21.666 -68.5 -36.999 -94.5s-29.166 -46.667 -41.499 -62s-25.166 -29 -38.499 -41
c-28.667 -26.667 -59.334 -48.167 -92.001 -64.5s-67.334 -27.5 -104.001 -33.5s-65.167 -9.66699 -85.5 -11s-48.166 -2 -83.499 -2h-295v-569h-176zM355.998 721l275.001 0.00292969c31.333 0 57.166 0.666992 77.499 2s47.5 7.66602 81.5 18.999s63 27.666 87 48.999
c54 49.333 81 118.666 81 207.999c0 83.333 -27 147 -81 191c-52 42 -128.667 63 -230 63h-291v-532z" />
    <glyph glyph-name="afii10035" unicode="&#x421;" horiz-adv-x="1236" 
d="M90 725c0 71.333 6 138.168 18 200.501s27.667 114.333 47 156s36.333 74 51 97s29.334 43.167 44.001 60.5c106 124 247.333 186 424 186c65.333 0 126.333 -8.83301 183 -26.5s111 -50.5 163 -98.5c42 -40 77.167 -87.833 105.5 -143.5s46.5 -115.5 54.5 -179.5
l-166 -31c-13.333 68 -38 128.667 -74 182c-64.667 97.333 -154.667 146 -270 146c-138.667 0 -243.334 -62.333 -314.001 -187c-51.333 -88 -77 -211.333 -77 -370c0 -150 21.667 -271 65 -363c70 -148.667 178.667 -223 326 -223c50 0 93.167 8.5 129.5 25.5
s70.833 43.5 103.5 79.5c60.667 69.333 99.667 148.333 117 237l160 -35c-24 -123.333 -76.667 -227.666 -158 -312.999c-54.667 -57.333 -109.834 -95.833 -165.501 -115.5s-115.167 -29.5 -178.5 -29.5c-38 0 -73.5 2.66699 -106.5 8s-70.667 15.5 -113 30.5
s-83.666 39.667 -123.999 74s-77.5 77.166 -111.5 128.499c-43.333 66 -76.333 143.167 -99 231.5s-34 179.166 -34 272.499z" />
    <glyph glyph-name="afii10036" unicode="&#x422;" horiz-adv-x="1015" 
d="M23 1253v152h970v-152h-397v-1253h-176v1253h-397z" />
    <glyph glyph-name="afii10037" unicode="&#x423;" horiz-adv-x="1095" 
d="M20 1405l185.002 -0.000976562l399 -846h2l330 846h156l-418 -1038c-36.667 -93.333 -65.334 -157.666 -86.001 -192.999c-25.333 -42 -53.333 -76.667 -84 -104c-66.667 -57.333 -142.667 -86 -228 -86c-32 0 -63.333 5.33301 -94 16v150c26.667 -10 52.667 -15 78 -15
c65.333 0 118.666 19.333 159.999 58c40 36.667 71.333 94.667 94 174z" />
    <glyph glyph-name="afii10038" unicode="&#x424;" horiz-adv-x="1605" 
d="M90 715c0 86.667 17.3301 164.668 51.9971 234.001s79.334 125.666 134.001 168.999c104 80.667 242.667 121 416 121h23v205h176v-205h22c173.333 0 312 -40.333 416 -121c54.667 -44 99.5 -100.5 134.5 -169.5s52.5 -146.833 52.5 -233.5
c0 -50.667 -5.66699 -98.334 -17 -143.001s-26.166 -82.167 -44.499 -112.5s-34.333 -54.166 -48 -71.499s-27.167 -32 -40.5 -44c-104 -96.667 -262.333 -145 -475 -145v-219h-176v219c-212.667 0 -371 48.333 -475 145c-13.333 12 -26.833 26.667 -40.5 44
s-29.667 41.166 -48 71.499s-33.166 67.833 -44.499 112.5s-17 92.334 -17 143.001zM269.997 711.001c0 -151.333 59.667 -257.333 179 -318c70 -35.333 160.667 -51 272 -47v746h-21c-128 0 -227 -26.667 -297 -80c-88.667 -66.667 -133 -167 -133 -301zM884.997 346.001
c111.333 -4 202 11.667 272 47c118.667 60 178 166 178 318c0 134 -44.333 234.333 -133 301c-70 53.333 -169 80 -297 80h-20v-746z" />
    <glyph glyph-name="afii10039" unicode="&#x425;" horiz-adv-x="1105" 
d="M6 0l457 733l-400 672h197l305 -520l305 520h181l-396 -649l445 -756h-197l-352 598l-365 -598h-180z" />
    <glyph glyph-name="afii10040" unicode="&#x426;" horiz-adv-x="1372" 
d="M180 0v1405h176v-1253h635v1253h176v-1253h164v-459h-164v307h-987z" />
    <glyph glyph-name="afii10041" unicode="&#x427;" horiz-adv-x="1265" 
d="M123 948l0.000976562 456.999h176v-418c0 -19.333 0.166992 -34 0.5 -44s2.5 -25.5 6.5 -46.5s9.83301 -38.167 17.5 -51.5s19.5 -27.166 35.5 -41.499s35.667 -25.5 59 -33.5c30 -10.667 84.667 -16 164 -16c109.333 0 218.333 8.66699 327 26v625h176v-1405h-176v629
c-135.333 -18 -238.333 -27 -309 -27c-152.667 0 -265.334 21.333 -338.001 64c-92.667 54 -139 148 -139 282z" />
    <glyph glyph-name="afii10042" unicode="&#x428;" horiz-adv-x="1859" 
d="M180 0v1405h176v-1253h486v1253h176v-1253h485v1253h176v-1405h-1499z" />
    <glyph glyph-name="afii10043" unicode="&#x429;" horiz-adv-x="1884" 
d="M180 0v1405h176v-1253h486v1253h176v-1253h485v1253h176v-1253h164v-459h-164v307h-1499z" />
    <glyph glyph-name="afii10044" unicode="&#x42a;" horiz-adv-x="1460" 
d="M-20 1253l0.000976562 152h591v-604h318c172 0 296.333 -33 373 -99c37.333 -32.667 67.333 -76.167 90 -130.5s34 -112.5 34 -174.5c0 -54 -9.33301 -106.833 -28 -158.5s-46 -95.834 -82 -132.501c-24 -24 -49.167 -43.667 -75.5 -59s-54.833 -26.166 -85.5 -32.499
s-57.334 -10.333 -80.001 -12s-51.667 -2.5 -87 -2.5h-553v1253h-415zM571.001 152l351.001 0.00195312h9c26 0 47.333 0.5 64 1.5s38.5 6.16699 65.5 15.5s50.167 22.666 69.5 39.999c45.333 43.333 68 104.666 68 183.999c0 88.667 -25.333 153.667 -76 195
c-48.667 40.667 -126.334 61 -233.001 61h-318v-497z" />
    <glyph glyph-name="afii10045" unicode="&#x42b;" horiz-adv-x="1679" 
d="M180 0l-0.00195312 1405h176v-604h318c172 0 296.333 -33 373 -99c37.333 -32.667 67.333 -76.167 90 -130.5s34 -112.5 34 -174.5c0 -52.667 -9.16699 -105 -27.5 -157s-45.833 -96.667 -82.5 -134c-23.333 -24 -48.166 -43.5 -74.499 -58.5s-54 -25.667 -83 -32
s-54.167 -10.5 -75.5 -12.5s-46.666 -3 -75.999 -3h-572zM355.998 152l372.999 0.000976562c84.667 0 146.667 19 186 57c45.333 45.333 68 108.666 68 189.999c0 85.333 -25.333 148.333 -76 189c-49.333 40.667 -116.666 61 -201.999 61h-349v-497zM1323 0.000976562v1405
h176v-1405h-176z" />
    <glyph glyph-name="afii10046" unicode="&#x42c;" horiz-adv-x="1245" 
d="M180 0l-0.000976562 1405h176v-604h318c172 0 296.333 -33 373 -99c37.333 -32.667 67.333 -76.167 90 -130.5s34 -112.5 34 -174.5c0 -52.667 -9.16699 -105 -27.5 -157s-45.833 -96.667 -82.5 -134c-69.333 -70.667 -165.666 -106 -288.999 -106h-592zM355.999 152
l351.001 0.00195312h9c26 0 47.333 0.5 64 1.5s38.5 6.16699 65.5 15.5s50.167 22.666 69.5 39.999c45.333 43.333 68 104.666 68 183.999c0 88.667 -25.333 153.667 -76 195c-48.667 40.667 -120.334 61 -215.001 61h-336v-497z" />
    <glyph glyph-name="afii10047" unicode="&#x42d;" horiz-adv-x="1245" 
d="M70 377l178.002 35.0029c15.333 -57.333 44 -110 86 -158c71.333 -82 156 -123 254 -123c75.333 0 139 19.5 191 58.5s92.667 86.5 122 142.5c44 84.667 66 192.334 66 323.001h-518v152h514c0 56 -7.83301 114.167 -23.5 174.5s-38.167 111.5 -67.5 153.5
c-65.333 92.667 -154.666 139 -267.999 139c-94.667 0 -176.667 -36.333 -246 -109c-48.667 -50.667 -83.334 -111.334 -104.001 -182.001l-172 31c36 113.333 88.667 204 158 272c95.333 92.667 218.666 139 369.999 139c155.333 0 279.666 -48.333 372.999 -145
c54 -56.667 96.167 -131.834 126.5 -225.501s45.5 -201.5 45.5 -323.5c0 -90.667 -9.33301 -180.834 -28 -270.501s-47 -165.5 -85 -227.5c-12.667 -20.667 -26.667 -40.834 -42 -60.501s-37 -41.667 -65 -66s-58 -45.333 -90 -63s-71.333 -32.667 -118 -45
s-96.334 -18.5 -149.001 -18.5c-139.333 0 -255.666 42 -348.999 126c-77.333 70 -130.333 160.333 -159 271z" />
    <glyph glyph-name="afii10048" unicode="&#x42e;" horiz-adv-x="1855" 
d="M180 0v1405h176v-594h254c8 82 29.333 166.333 64 253s80.334 158 137.001 214c98 98 223.667 147 377 147c150.667 0 276.334 -49 377.001 -147c62 -60.667 110.833 -140.167 146.5 -238.5s53.5 -210.833 53.5 -337.5s-17.833 -239 -53.5 -337
s-84.5 -177.333 -146.5 -238c-100.667 -98 -226.334 -147 -377.001 -147c-152 0 -277.667 49 -377 147c-64.667 64 -114.334 145.667 -149.001 245s-52 195 -52 287h-254v-659h-176zM799 702c0 -187.333 38.667 -331.332 116 -431.999c70.667 -92.667 161.667 -139 273 -139
c110.667 0 201.334 46.333 272.001 139c78 101.333 117 245.333 117 432c0 187.333 -39 331.666 -117 432.999c-70.667 92.667 -161.334 139 -272.001 139c-111.333 0 -202.333 -46.333 -273 -139c-77.333 -100.667 -116 -245 -116 -433z" />
    <glyph glyph-name="afii10049" unicode="&#x42f;" horiz-adv-x="1284" 
d="M72 0l380.999 618c-41.333 4 -82.5 14.5 -123.5 31.5s-76.5 39.5 -106.5 67.5c-73.333 67.333 -110 160.666 -110 279.999c0 64.667 11.833 122 35.5 172s52.834 91 87.501 123c28 26 57.833 47.167 89.5 63.5s66 27.833 103 34.5s69 10.834 96 12.501
s61.167 2.5 102.5 2.5h477v-1405h-176v608h-293l-354 -608h-209zM300.999 1001c0 -78.667 26 -140 78 -184c28 -24 59.667 -39.5 95 -46.5s77.333 -10.5 126 -10.5h328v493h-316c-96.667 0 -169 -15.667 -217 -47c-62.667 -42.667 -94 -111 -94 -205z" />
    <glyph glyph-name="afii10065" unicode="&#x430;" horiz-adv-x="1114" 
d="M82 293c0 112.667 46.999 200.666 140.999 263.999c30 20.667 62.667 37.334 98 50.001s74.666 21.5 117.999 26.5s80.5 8.16699 111.5 9.5s72.167 2 123.5 2h135v43c0 80 -13.667 138 -41 174c-23.333 32 -53 52.667 -89 62s-78.667 14 -128 14
c-176 0 -273 -60.667 -291 -182l-149 24c10.667 54 29 100 55 138s58.833 67.5 98.5 88.5s82.667 36 129 45s99.5 13.5 159.5 13.5c135.333 0 234.333 -25.333 297 -76c26.667 -21.333 48.334 -45.833 65.001 -73.5s28.334 -59.834 35.001 -96.501
s10.834 -67.834 12.501 -93.501s2.5 -60.5 2.5 -104.5v-402c0 -66 8.66699 -139 26 -219h-164c-9.33301 58 -15.333 123 -18 195c-8 -16 -16.5 -31.167 -25.5 -45.5s-23.833 -32.666 -44.5 -54.999s-43.5 -41.166 -68.5 -56.499s-57.333 -28.833 -97 -40.5
s-82.834 -17.5 -129.501 -17.5c-112 0 -201.333 30.667 -268 92c-62.667 57.333 -94 131 -94 221zM253.999 292.999c0 -59.333 25.332 -105.667 75.999 -139c38 -26 87.667 -39 149 -39c49.333 0 95.833 10.5 139.5 31.5s79.834 49.167 108.501 84.5
c25.333 32 45.333 69.667 60 113s22 84.333 22 123v51h-133c-148 0 -253.333 -17 -316 -51c-70.667 -36.667 -106 -94.667 -106 -174z" />
    <glyph glyph-name="afii10066" unicode="&#x431;" horiz-adv-x="1155" 
d="M102 600c0 262 55.3311 451.664 165.998 568.997c26.667 28.667 55.834 53.334 87.501 74.001s65.834 37.167 102.501 49.5s67.334 21.5 92.001 27.5s55.667 12.333 93 19l84.5 16c35.667 6.66699 59.667 11.334 72 14.001s30.166 6.33398 53.499 11.001
s39.666 8.33398 48.999 11.001l38 10.5c16 4.33301 29.833 8.66602 41.5 12.999s24.5 9.5 38.5 15.5v-152c-50.667 -24 -100.167 -42.333 -148.5 -55s-124.5 -27.667 -228.5 -45c-85.333 -15.333 -146 -31.333 -182 -48c-55.333 -26 -99.666 -60.667 -132.999 -104
c-50.667 -64.667 -82.334 -144.667 -95.001 -240h5c68.667 152 200.334 228 395.001 228c122 0 220.333 -35 295 -105c96.667 -88.667 145 -219.667 145 -393c0 -158 -39 -284.333 -117 -379c-86 -104.667 -211.333 -157 -376 -157c-128 0 -233.333 42 -316 126
c-108 109.333 -162 274 -162 494zM282.998 505.997c0 -54 7.00098 -108.167 21.001 -162.5s36.333 -99.166 67 -134.499c52.667 -62.667 127.667 -94 225 -94c75.333 0 136.666 21 183.999 63c75.333 68 113 180 113 336c0 125.333 -28.667 219.666 -86 282.999
c-49.333 54.667 -119 82 -209 82c-96 0 -170.333 -28.667 -223 -86c-61.333 -65.333 -92 -161 -92 -287z" />
    <glyph glyph-name="afii10067" unicode="&#x432;" horiz-adv-x="1155" 
d="M166 0l0.000976562 1044h463c110.667 0 191.667 -15 243 -45c74 -43.333 111 -110 111 -200c0 -73.333 -23.333 -131.333 -70 -174c-41.333 -36 -86.333 -58 -135 -66v-4c37.333 -2.66699 73.666 -11.5 108.999 -26.5s64 -33.5 86 -55.5c46 -46 69 -105.333 69 -178
c0 -98.667 -36 -176 -108 -232c-24.667 -18.667 -53 -33 -85 -43s-59.167 -15.833 -81.5 -17.5s-51.5 -2.5 -87.5 -2.5h-514zM322.001 127h327c73.333 0 128 17 164 51c32.667 30.667 49 73 49 127c0 58.667 -21 103 -63 133c-37.333 28.667 -92 43 -164 43h-313v-354z
M322.001 608l289.999 0.000976562c72 0 124.667 18 158 54c27.333 29.333 41 68.666 41 117.999c0 42 -15 75.667 -45 101c-13.333 11.333 -28.833 20 -46.5 26s-32.167 9.33301 -43.5 10s-27.666 1 -48.999 1h-305v-310z" />
    <glyph glyph-name="afii10068" unicode="&#x433;" horiz-adv-x="819" 
d="M166 0v1044h631v-126h-475v-918h-156z" />
    <glyph glyph-name="afii10069" unicode="&#x434;" horiz-adv-x="1052" 
d="M20 127l78 0.000976562c40.667 59.333 73.667 121.333 99 186c34 87.333 56.5 178.166 67.5 272.499s18.5 215.833 22.5 364.5l2 94h606v-917h106v-408h-143v281h-694v-281h-144v408zM260 127.001h479v791h-319l-2 -56c-10 -256 -40.667 -452 -92 -588
c-11.333 -29.333 -33.333 -78.333 -66 -147z" />
    <glyph glyph-name="afii10070" unicode="&#x435;" horiz-adv-x="1091" 
d="M82 514c0 71.333 9.99805 139.332 29.998 203.999s49.333 123.167 88 175.5s89.667 94 153 125s134.666 46.5 213.999 46.5c53.333 0 102.333 -6.83301 147 -20.5s82.334 -31.834 113.001 -54.501s57.834 -49.5 81.501 -80.5s42.334 -62.333 56.001 -94
s24.834 -65.167 33.501 -100.5s14.5 -67.166 17.5 -95.499s4.5 -55.833 4.5 -82.5v-37h-758c-2 -75.333 9.66699 -143 35 -203c49.333 -121.333 140 -182 272 -182c90.667 0 163 30 217 90c28.667 30.667 50 67.334 64 110.001l151 -30
c-30.667 -94.667 -87.334 -170.667 -170.001 -228c-76.667 -51.333 -166 -77 -268 -77c-147.333 0 -265.333 50.333 -354 151c-84.667 96 -127 223.667 -127 383zM269.998 626.999h570c-2.66699 76.667 -19 140 -49 190c-50 80.667 -124 121 -222 121
c-48 0 -91.333 -10 -130 -30s-71 -45.667 -97 -77c-46 -58.667 -70 -126.667 -72 -204z" />
    <glyph glyph-name="afii10072" unicode="&#x436;" horiz-adv-x="1466" 
d="M41 0l-0.00390625 125c8 -2.66699 21 -4 39 -4c19.333 0 33.833 3.16699 43.5 9.5s18.5 18.833 26.5 37.5c7.33301 16.667 17.166 47.5 29.499 92.5s22.166 78.833 29.499 101.5c20.667 64 43 108 67 132c26.667 29.333 62.334 47 107.001 53v4
c-51.333 6.66699 -90.333 36 -117 88c-9.33301 17.333 -17 35.666 -23 54.999s-12 43.166 -18 71.499s-10 46.166 -12 53.499c-8 34 -17 58.667 -27 74c-8 13.333 -16.833 21.833 -26.5 25.5s-21.834 5.5 -36.501 5.5c-14 0 -24.333 -0.666992 -31 -2v122
c21.333 4.66699 41.333 7 60 7c38.667 0 70 -6.83301 94 -20.5s44.333 -35.5 61 -65.5c13.333 -22.667 26.333 -59.167 39 -109.5s23.667 -89.166 33 -116.499c14.667 -44.667 35.667 -76.667 63 -96c31.333 -22 77.333 -33 138 -33h79v434h148v-434h80
c60 0 105.667 11 137 33c27.333 19.333 48.333 51.333 63 96c9.33301 27.333 20.333 66.166 33 116.499s25.667 86.833 39 109.5c16.667 30 37.167 51.833 61.5 65.5s55.833 20.5 94.5 20.5c18 0 37.667 -2.33301 59 -7v-122c-6.66699 1.33301 -17 2 -31 2
c-14.667 0 -26.834 -1.83301 -36.501 -5.5s-18.5 -12.167 -26.5 -25.5c-10 -15.333 -19 -40 -27 -74c-2 -7.33301 -6 -25.166 -12 -53.499s-12 -52.166 -18 -71.499s-13.667 -37.666 -23 -54.999c-26.667 -52 -65.667 -81.333 -117 -88v-4
c44.667 -6 80.334 -23.667 107.001 -53c24 -24 46.333 -68 67 -132c7.33301 -22 17.333 -55.667 30 -101s22.667 -76.333 30 -93c8 -18.667 16.667 -31.167 26 -37.5s23.666 -9.5 42.999 -9.5c18 0 31 1.33301 39 4v-125c-23.333 -4 -45.666 -6 -66.999 -6
c-53.333 0 -93 8 -119 24c-31.333 20 -55.333 53 -72 99c-10.667 26 -22.334 63.667 -35.001 113s-22 82.666 -28 99.999c-6.66699 20 -15.667 41 -27 63c-11.333 20.667 -23.666 37.5 -36.999 50.5s-28.666 22.167 -45.999 27.5s-32.166 8.66602 -44.499 9.99902
s-29.166 2 -50.499 2h-92v-483h-148v483h-92c-21.333 0 -38.166 -0.666992 -50.499 -2s-27.166 -4.66602 -44.499 -9.99902s-32.666 -14.5 -45.999 -27.5s-25.666 -29.833 -36.999 -50.5c-11.333 -22 -20.333 -43 -27 -63c-6 -17.333 -15.333 -50.666 -28 -99.999
s-24.334 -87 -35.001 -113c-16.667 -46 -40.667 -79 -72 -99c-26 -16 -65.333 -24 -118 -24c-22 0 -44.667 2 -68 6z" />
    <glyph glyph-name="afii10073" unicode="&#x437;" horiz-adv-x="1038" 
d="M72 281l151.001 30.002c9.33301 -50 29.333 -90.333 60 -121c53.333 -56 129 -84 227 -84c81.333 0 144.666 15.333 189.999 46c50.667 33.333 76 79.666 76 138.999c0 56 -16.333 99 -49 129c-42 39.333 -111 59 -207 59h-117v127h117c58.667 0 107.334 9 146.001 27
c60 27.333 90 76.333 90 147c0 47.333 -19.333 85 -58 113c-37.333 30 -98 45 -182 45c-78 0 -142.667 -21.333 -194 -64c-42.667 -35.333 -69.334 -80.333 -80.001 -135l-146 39c26 111.333 90.333 191.333 193 240c64.667 31.333 145.667 47 243 47
c115.333 0 204.333 -19 267 -57c45.333 -27.333 78.166 -61 98.499 -101s30.5 -81 30.5 -123c0 -65.333 -22.667 -120.666 -68 -165.999c-37.333 -37.333 -86.333 -59 -147 -65v-4c31.333 -2 63.333 -10.167 96 -24.5s60 -32.833 82 -55.5c43.333 -45.333 65 -104 65 -176
c0 -55.333 -12.833 -103.333 -38.5 -144s-56.5 -73.334 -92.5 -98.001c-68.667 -47.333 -171 -71 -307 -71c-150 0 -261.333 32 -334 96c-59.333 53.333 -96.666 121.666 -111.999 204.999z" />
    <glyph glyph-name="afii10074" unicode="&#x438;" horiz-adv-x="1126" 
d="M166 0l-0.000976562 1044h156v-626c0 -7.33301 -2.33301 -55.333 -7 -144c20.667 46 53.667 100 99 162l391 518v90h156v-1044h-156v616c0 56.667 2.66699 106.667 8 150c-17.333 -38.667 -48.666 -87 -93.999 -145l-397 -521v-100h-156z" />
    <glyph glyph-name="afii10075" unicode="&#x439;" horiz-adv-x="1126" 
d="M166 0l-0.000976562 1044h156v-626c0 -7.33301 -2.33301 -55.333 -7 -144c20.667 46 53.667 100 99 162l391 518v90h156v-1044h-156v616c0 56.667 2.66699 106.667 8 150c-17.333 -38.667 -48.666 -87 -93.999 -145l-397 -521v-100h-156zM282.999 1409l147 0.000976562
c2 -32.667 13.667 -61.334 35 -86.001c22 -23.333 54.667 -35 98 -35c44 0 77 11.667 99 35c20.667 23.333 32 52 34 86h148c0 -54 -17.667 -101.667 -53 -143c-51.333 -57.333 -127.333 -86 -228 -86c-100 0 -175.667 28.667 -227 86c-35.333 41.333 -53 89 -53 143z" />
    <glyph glyph-name="afii10076" unicode="&#x43a;" horiz-adv-x="1052" 
d="M166 0l-0.00488281 1044.01h156v-436h139c37.333 0 67.833 2.5 91.5 7.5s46.334 15.167 68.001 30.5s39.667 37.666 54 66.999s27.166 68 38.499 116c0.666992 2 2 8.16699 4 18.5s3.5 17.166 4.5 20.499s2.5 9.66602 4.5 18.999s3.66699 16.166 5 20.499
s3.33301 10.5 6 18.5s5.16699 14.5 7.5 19.5l8 17c3 6.33301 6.33301 12.166 10 17.499s7.5 10.333 11.5 15c32 37.333 80 56 144 56c11.333 0 27.666 -1.33301 48.999 -4v-123c-2.66699 0.666992 -6 1 -10 1s-8.33301 -0.166992 -13 -0.5s-8 -0.5 -10 -0.5
c-31.333 -2.66699 -53.333 -13 -66 -31c-10.667 -13.333 -21.334 -44.666 -32.001 -93.999l-15 -74c-10.667 -54.667 -30 -96.334 -58 -125.001s-61 -45.667 -99 -51v-4c24 -2 45.167 -7.16699 63.5 -15.5s33.833 -19.666 46.5 -33.999s22.834 -28.5 30.501 -42.5
s15.167 -30.667 22.5 -50c11.333 -31.333 25.333 -74.833 42 -130.5s29.334 -91.834 38.001 -108.501c8.66699 -18 18.334 -29.667 29.001 -35s27 -8 49 -8c16.667 0 29 0.666992 37 2v-125c-15.333 -2.66699 -38 -4 -68 -4c-32 0 -59.5 3.16699 -82.5 9.5
s-41.333 13.666 -55 21.999s-26.167 21.833 -37.5 40.5s-19.666 35.334 -24.999 50.001s-12.666 36.667 -21.999 66c0 2 -0.166992 3.33301 -0.5 4s-0.666016 1.66699 -0.999023 3s-0.833008 2.66602 -1.5 3.99902l-16 49.5l-13 41.5l-10 31.5c-4 12.333 -7 21.333 -9 27
l-7 19.5c-2.66699 7.33301 -5.16699 13.166 -7.5 17.499l-7.5 13.5c-19.333 34 -43.666 57.167 -72.999 69.5s-67 18.5 -113 18.5h-151v-481h-156z" />
    <glyph glyph-name="afii10077" unicode="&#x43b;" horiz-adv-x="1044" 
d="M10 0l0.000976562 135h17c26 1.33301 54.167 11.5 84.5 30.5s54.5 45.167 72.5 78.5c18 32 32 93.5 42 184.5s17.333 257.5 22 499.5l2 116h629v-1044h-156v918h-336c-7.33301 -222.667 -15.833 -382.667 -25.5 -480s-22.834 -170.333 -39.501 -219
c-50.667 -146 -152 -219 -304 -219h-8z" />
    <glyph glyph-name="afii10078" unicode="&#x43c;" horiz-adv-x="1400" 
d="M166 0v1044h217l326 -798l309 798h217v-1044h-156v717c0 21.333 0.333008 38.333 1 51s1.66699 28.334 3 47.001s2.66602 40.667 3.99902 66c-15.333 -27.333 -41.666 -88.333 -78.999 -183l-271 -698h-80l-288 698c-10 23.333 -21.5 51.833 -34.5 85.5l-39.5 97.5
c0 -20.667 1 -48.334 3 -83.001s3 -59.667 3 -75v-723h-135z" />
    <glyph glyph-name="afii10079" unicode="&#x43d;" horiz-adv-x="1126" 
d="M166 0v1044h156v-436h483v436h156v-1044h-156v481h-483v-481h-156z" />
    <glyph glyph-name="afii10080" unicode="&#x43e;" horiz-adv-x="1105" 
d="M82 522c0 167.333 44 299.666 132 396.999s201 146 339 146s251 -48.667 339 -146s132 -229.666 132 -396.999s-44 -299.5 -132 -396.5s-201 -145.5 -339 -145.5s-251 48.5 -339 145.5s-132 229.167 -132 396.5zM262 522c0 -65.333 6.16699 -123 18.5 -173
s28.166 -89.5 47.499 -118.5s42.333 -52.5 69 -70.5s52.334 -30 77.001 -36s51 -9 79 -9s54.333 3 79 9s50.334 18 77.001 36s49.667 41.5 69 70.5s35.166 68.5 47.499 118.5s18.5 107.667 18.5 173s-6.16699 123 -18.5 173s-28.166 89.5 -47.499 118.5
s-42.333 52.667 -69 71s-52.334 30.5 -77.001 36.5s-51 9 -79 9s-54.333 -3 -79 -9s-50.334 -18.167 -77.001 -36.5s-49.667 -42 -69 -71s-35.166 -68.5 -47.499 -118.5s-18.5 -107.667 -18.5 -173z" />
    <glyph glyph-name="afii10081" unicode="&#x43f;" horiz-adv-x="1126" 
d="M166 0v1044h795v-1044h-156v918h-483v-918h-156z" />
    <glyph glyph-name="afii10082" unicode="&#x440;" horiz-adv-x="1124" 
d="M166 -340v1384h143v-196l2 2c24.667 58 63.167 108.333 115.5 151s117.833 64 196.5 64c120 0 216 -40.333 288 -121c43.333 -48 76 -109.5 98 -184.5s33 -152.167 33 -231.5c0 -73.333 -9.16699 -145 -27.5 -215s-45.833 -129.333 -82.5 -178
c-74.667 -103.333 -177.667 -155 -309 -155c-142 0 -240.333 61.333 -295 184h-6v-504h-156zM322 414c0 -86 24.334 -156.334 73.001 -211.001c53.333 -58.667 119.666 -88 198.999 -88c36 0 72.5 9.33301 109.5 28s68.833 50.334 95.5 95.001c42 68.667 63 164.667 63 288
c0 126 -20.333 221.667 -61 287c-47.333 78 -115.666 117 -204.999 117c-72.667 0 -135.334 -27.333 -188.001 -82c-57.333 -62 -86 -133.667 -86 -215v-219z" />
    <glyph glyph-name="afii10083" unicode="&#x441;" horiz-adv-x="987" 
d="M82 520c0 149.333 36 274.329 108 374.996c83.333 113.333 198.333 170 345 170c119.333 0 214 -39.667 284 -119c28 -32 51.167 -69.667 69.5 -113s30.833 -85.333 37.5 -126l-148 -27c-8.66699 63.333 -27.667 116 -57 158c-43.333 61.333 -107 92 -191 92
c-86 0 -152.667 -39 -200 -117c-45.333 -73.333 -68 -171.666 -68 -294.999c0 -59.333 5.33301 -113 16 -161s20.167 -80.5 28.5 -97.5s16.166 -30.5 23.499 -40.5c47.333 -69.333 113.333 -104 198 -104c76 0 137 28.667 183 86
c35.333 44.667 57.666 101.334 66.999 170.001l148 -27c-6.66699 -49.333 -20.667 -96.166 -42 -140.499s-47 -82.166 -77 -113.499c-71.333 -73.333 -165.666 -110 -282.999 -110c-115.333 0 -210.666 34 -285.999 102c-50 46 -88.5 108 -115.5 186s-40.5 162 -40.5 252z
" />
    <glyph glyph-name="afii10084" unicode="&#x442;" horiz-adv-x="811" 
d="M0 918v126h811v-126h-328v-918h-155v918h-328z" />
    <glyph glyph-name="afii10085" unicode="&#x443;" horiz-adv-x="874" 
d="M20 1044l181 -0.000976562l270 -802l281 802h143l-412 -1142c-30.667 -83.333 -67.334 -145.666 -110.001 -186.999c-54 -50 -119 -75 -195 -75c-48 0 -91.667 6.66699 -131 20v121c33.333 -9.33301 71 -14 113 -14c50.667 0 89.334 11.333 116.001 34
c34 28.667 67 89.667 99 183l12 34z" />
    <glyph glyph-name="afii10086" unicode="&#x444;" horiz-adv-x="1404" 
d="M82 514c0 56.667 5.83496 109.167 17.502 157.5s27.167 89.166 46.5 122.499s38.5 60.833 57.5 82.5s39.167 40.834 60.5 57.501c42.667 32.667 95.667 59.167 159 79.5s123.666 30.5 180.999 30.5h21v361h155v-361h21c57.333 0 117.666 -10.167 180.999 -30.5
s116.333 -46.833 159 -79.5c21.333 -16.667 41.5 -35.834 60.5 -57.501s38.167 -49.167 57.5 -82.5s34.833 -74.166 46.5 -122.499s17.5 -100.833 17.5 -157.5c0 -165.333 -50.667 -294.333 -152 -387c-50 -46 -110.167 -79 -180.5 -99s-140.5 -29.333 -210.5 -28v-340h-155
v340c-70 -1.33301 -140.333 8 -211 28s-131 53 -181 99c-100.667 92 -151 221 -151 387zM254.002 522c0 -154.667 48.334 -267.333 145.001 -338c34 -24 67.167 -39.5 99.5 -46.5s68.166 -10.5 107.499 -10.5h25v791h-17c-92 0 -165.667 -19.333 -221 -58
c-92.667 -63.333 -139 -176 -139 -338zM774.003 127.001l25.001 -0.000976562c39.333 0 75.166 3.5 107.499 10.5s65.5 22.5 99.5 46.5c96.667 70.667 145 183.334 145 338.001c0 162 -46.333 274.667 -139 338c-55.333 38.667 -129 58 -221 58h-17v-791z" />
    <glyph glyph-name="afii10087" unicode="&#x445;" horiz-adv-x="894" 
d="M8 0l348 539l-315 505h188l220 -360l227 360h155l-303 -471l359 -573h-189l-262 422l-272 -422h-156z" />
    <glyph glyph-name="afii10088" unicode="&#x446;" horiz-adv-x="1179" 
d="M166 0v1044h156v-917h507v917h156v-917h143v-408h-143v281h-819z" />
    <glyph glyph-name="afii10089" unicode="&#x447;" horiz-adv-x="1021" 
d="M113 780l0.00292969 264.001h155v-288c0 -2 -0.166992 -11.333 -0.5 -28s-0.333008 -28.667 0 -36s1.33301 -17.833 3 -31.5s4.66699 -25.667 9 -36s10.166 -19.833 17.499 -28.5c11.333 -14 27.666 -24.5 48.999 -31.5s40.166 -11 56.499 -12s40.5 -1.5 72.5 -1.5
c55.333 0 130.333 4.66699 225 14v479h156v-1044h-156v440c-87.333 -10.667 -170.333 -16 -249 -16c-33.333 0 -60.333 0.5 -81 1.5s-47.834 5.83301 -81.501 14.5s-61.5 21 -83.5 37c-18 13.333 -33 29.166 -45 47.499s-21 35.833 -27 52.5s-10.667 38.5 -14 65.5
s-5.16602 48.833 -5.49902 65.5s-0.5 40.667 -0.5 72z" />
    <glyph glyph-name="afii10090" unicode="&#x448;" horiz-adv-x="1519" 
d="M166 0v1044h156v-917h360v917h156v-917h360v917h156v-1044h-1188z" />
    <glyph glyph-name="afii10091" unicode="&#x449;" horiz-adv-x="1548" 
d="M166 0v1044h156v-917h360v917h156v-917h360v917h156v-917h143v-408h-143v281h-1188z" />
    <glyph glyph-name="afii10092" unicode="&#x44a;" horiz-adv-x="1171" 
d="M-10 918v126h467v-411h291c117.333 0 203.333 -26.667 258 -80c56 -56 84 -132.333 84 -229c0 -107.333 -35 -191.333 -105 -252c-54.667 -48 -125 -72 -211 -72h-473v918h-311zM457 127h242.999c20.667 0 37.334 0.5 50.001 1.5s29.167 4.83301 49.5 11.5
s38.5 16.667 54.5 30c42.667 38 64 90 64 156c0 65.333 -23.333 114.333 -70 147c-34 22 -81 33 -141 33h-250v-379z" />
    <glyph glyph-name="afii10093" unicode="&#x44b;" horiz-adv-x="1413" 
d="M166 0v1044h156v-411h290c117.333 0 203.333 -26.667 258 -80c56 -56 84 -132.333 84 -229c0 -108 -34.667 -192 -104 -252c-54.667 -48 -125 -72 -211 -72h-473zM322 127h242.999c20.667 0 37.334 0.5 50.001 1.5s29.167 4.83301 49.5 11.5s38.5 16.667 54.5 30
c42 37.333 63 89.333 63 156c0 66 -23 115 -69 147c-34 22 -81.333 33 -142 33h-249v-379zM1092 0v1044h155v-1044h-155z" />
    <glyph glyph-name="afii10094" unicode="&#x44c;" horiz-adv-x="1036" 
d="M166 0v1044h156v-411h290c117.333 0 203.333 -26.667 258 -80c56 -56 84 -132.333 84 -229c0 -108 -34.667 -192 -104 -252c-54.667 -48 -125 -72 -211 -72h-473zM322 127h242.999c20.667 0 37.334 0.5 50.001 1.5s29.167 4.83301 49.5 11.5s38.5 16.667 54.5 30
c42 37.333 63 89.333 63 156c0 66 -23 115 -69 147c-34 22 -81.333 33 -142 33h-249v-379z" />
    <glyph glyph-name="afii10095" unicode="&#x44d;" horiz-adv-x="1032" 
d="M72 281l161.002 26c12 -50 40 -93 84 -129c48.667 -42 109.667 -63 183 -63c45.333 0 85.166 8 119.499 24s64.833 45.333 91.5 88c39.333 62 59 147.333 59 256h-379v127h379c0 68.667 -16.333 135.667 -49 201c-46 79.333 -115.667 119 -209 119
c-83.333 0 -152.333 -28.667 -207 -86c-26 -26 -47 -61.667 -63 -107l-154 27c24 86.667 72.333 158.334 145 215.001c76 57.333 173 86 291 86c61.333 0 117.666 -9.33301 168.999 -28s98.333 -53.667 141 -105c32 -38.667 57.333 -85.5 76 -140.5s30 -100.5 34 -136.5
s6 -71.333 6 -106c0 -168 -36.667 -304 -110 -408c-45.333 -63.333 -94.833 -106 -148.5 -128s-116.834 -33 -189.501 -33c-102 0 -186 20.333 -252 61c-40.667 25.333 -76.667 58.666 -108 99.999s-54.666 88 -69.999 140z" />
    <glyph glyph-name="afii10096" unicode="&#x44e;" horiz-adv-x="1513" 
d="M166 0l0.00195312 1044h156v-440h167c1.33301 13.333 3.83301 29 7.5 47s10.5 45.167 20.5 81.5s26.167 73.666 48.5 111.999s48.833 72.166 79.5 101.499c39.333 37.333 86.666 66.5 141.999 87.5s113.333 31.5 174 31.5c124 0 228.333 -39.667 313 -119
c48 -46 86.333 -105.667 115 -179s43 -155 43 -245s-14.333 -171.667 -43 -245s-67 -133 -115 -179c-84 -78.667 -188.333 -118 -313 -118c-61.333 0 -119.5 10.333 -174.5 31s-102.167 49.667 -141.5 87c-44.667 42.667 -81.334 97.667 -110.001 165
s-44 138.666 -46 213.999h-167v-477h-156zM670.002 522.003c0 -156 33.3311 -267.333 99.998 -334c48.667 -48.667 112.334 -73 191.001 -73c78 0 141.333 24.333 190 73c66.667 66.667 100 178 100 334s-33.333 267.333 -100 334c-49.333 49.333 -112.666 74 -189.999 74
c-78 0 -141.667 -24.667 -191 -74c-66.667 -66.667 -100 -178 -100 -334z" />
    <glyph glyph-name="afii10097" unicode="&#x44f;" horiz-adv-x="1050" 
d="M92 0l246 436c-7.33301 1.33301 -18 4.33301 -32 9s-33.833 13.5 -59.5 26.5s-47.167 27.833 -64.5 44.5c-56 52.667 -84 129 -84 229c0 69.333 19.333 131 58 185c33.333 46 73.5 76.5 120.5 91.5s106.5 22.5 178.5 22.5h430v-1044h-156v426h-225l-232 -426h-180z
M270 725c0 -54.667 17.333 -97 52 -127s96 -45 184 -45h223v365h-213c-52 0 -93 -3.5 -123 -10.5s-56.667 -23.5 -80 -49.5c-28.667 -32 -43 -76.333 -43 -133z" />
    <glyph glyph-name="afii10071" unicode="&#x451;" horiz-adv-x="1091" 
d="M82 514c0 71.333 9.99805 139.332 29.998 203.999s49.333 123.167 88 175.5s89.667 94 153 125s134.666 46.5 213.999 46.5c53.333 0 102.333 -6.83301 147 -20.5s82.334 -31.834 113.001 -54.501s57.834 -49.5 81.501 -80.5s42.334 -62.333 56.001 -94
s24.834 -65.167 33.501 -100.5s14.5 -67.166 17.5 -95.499s4.5 -55.833 4.5 -82.5v-37h-758c-2 -75.333 9.66699 -143 35 -203c49.333 -121.333 140 -182 272 -182c90.667 0 163 30 217 90c28.667 30.667 50 67.334 64 110.001l151 -30
c-30.667 -94.667 -87.334 -170.667 -170.001 -228c-76.667 -51.333 -166 -77 -268 -77c-147.333 0 -265.333 50.333 -354 151c-84.667 96 -127 223.667 -127 383zM269.998 626.999h570c-2.66699 76.667 -19 140 -49 190c-50 80.667 -124 121 -222 121
c-48 0 -91.333 -10 -130 -30s-71 -45.667 -97 -77c-46 -58.667 -70 -126.667 -72 -204zM288.998 1247v195h194v-195h-194zM679.998 1247v195h194v-195h-194z" />
    <glyph glyph-name="afii10099" unicode="&#x452;" horiz-adv-x="1155" 
d="M16 1145l-0.000976562 116.998h154v143h156v-143h385v-117h-385v-332c30.667 66.667 74.834 119.5 132.501 158.5s126.167 58.5 205.5 58.5c108 0 189.667 -32 245 -96c32.667 -36 54.167 -77.333 64.5 -124s15.5 -99.667 15.5 -159v-585
c0 -134 -21.667 -233.667 -65 -299c-55.333 -83.333 -138.666 -125 -249.999 -125c-54.667 0 -110.667 6 -168 18v133c45.333 -10.667 92.333 -16 141 -16c42.667 0 76 6.83301 100 20.5s43.333 36.834 58 69.501c19.333 44.667 29 112.334 29 203.001v542
c0 34.667 -0.5 61.5 -1.5 80.5s-4.83301 41.667 -11.5 68s-16.667 48.5 -30 66.5c-33.333 45.333 -85.333 68 -156 68c-56.667 0 -109.334 -15.667 -158.001 -47c-100.667 -67.333 -151 -183.333 -151 -348v-500h-156v1145h-154z" />
    <glyph glyph-name="afii10100" unicode="&#x453;" horiz-adv-x="819" 
d="M166 0v1044h631v-126h-475v-918h-156zM250 1268l412 243l69 -133l-440 -192z" />
    <glyph glyph-name="afii10101" unicode="&#x454;" horiz-adv-x="1032" 
d="M82 549c0 34.667 2.16309 70.166 6.49609 106.499s15.833 81.833 34.5 136.5s44 101.334 76 140.001c42.667 51.333 89.5 86.333 140.5 105s107.167 28 168.5 28c118 0 215 -28.667 291 -86c72.667 -56.667 121 -128.334 145 -215.001l-153 -27
c-15.333 44 -36.666 79.667 -63.999 107c-54.667 57.333 -123.667 86 -207 86c-93.333 0 -163 -39.667 -209 -119c-32.667 -65.333 -49 -132.333 -49 -201h379v-127h-379c0 -108 20 -193.333 60 -256c26.667 -42.667 57 -72 91 -88s73.667 -24 119 -24
c73.333 0 134.333 21 183 63c44 36 72 79 84 129l162 -26c-15.333 -52 -38.666 -98.667 -69.999 -140s-67.666 -74.666 -108.999 -99.999c-66 -40.667 -150 -61 -252 -61c-72.667 0 -135.667 11 -189 33s-102.666 64.667 -147.999 128c-74 104.667 -111 240.667 -111 408z
" />
    <glyph glyph-name="afii10102" unicode="&#x455;" horiz-adv-x="1001" 
d="M61 276l156 31.002c10 -50.667 34.667 -93.667 74 -129c60 -48 138.333 -72 235 -72c79.333 0 140.333 16.667 183 50c40.667 30 61 71.667 61 125c0 23.333 -4.5 43.833 -13.5 61.5s-19.167 31.667 -30.5 42s-28 19.666 -50 27.999s-39.5 14.166 -52.5 17.499
s-31.833 7.33301 -56.5 12l-157 31c-204 39.333 -306 136.333 -306 291c0 86.667 31.667 157 95 211c70 60 171 90 303 90c135.333 0 238.333 -34 309 -102c44.667 -42.667 76 -95.334 94 -158.001l-147 -31c-17.333 50 -47.833 89.833 -91.5 119.5
s-97.834 44.5 -162.501 44.5c-35.333 0 -66.666 -3.83301 -93.999 -11.5s-48.666 -17.167 -63.999 -28.5s-27.833 -24.666 -37.5 -39.999s-16 -29.333 -19 -42s-4.5 -25.334 -4.5 -38.001c0 -17.333 2.66699 -33.166 8 -47.499s13.666 -26.333 24.999 -36
s21.666 -17.667 30.999 -24s22.5 -12 39.5 -17s29 -8.33301 36 -10s18.5 -3.83398 34.5 -6.50098c1.33301 -0.666992 2.5 -1 3.5 -1s2.16699 -0.166992 3.5 -0.5s2.33301 -0.5 3 -0.5l141 -27c26.667 -4.66699 46.834 -8.5 60.501 -11.5s34.167 -8.33301 61.5 -16
s52 -17.5 74 -29.5s42 -26.333 60 -43c56 -53.333 84 -125 84 -215c0 -91.333 -34 -165.666 -102 -222.999c-70 -60 -174.333 -90 -313 -90c-122.667 0 -219 19 -289 57c-97.333 51.333 -159 131 -185 239z" />
    <glyph glyph-name="afii10103" unicode="&#x456;" horiz-adv-x="499" 
d="M164 1225v180h172v-180h-172zM172 0v1044h156v-1044h-156z" />
    <glyph glyph-name="afii10104" unicode="&#x457;" horiz-adv-x="561" 
d="M51 1247v195h164v-195h-164zM203 0v1044h155v-1044h-155zM346 1247v195h164v-195h-164z" />
    <glyph glyph-name="afii10105" unicode="&#x458;" horiz-adv-x="485" 
d="M-131 -217c46 -9.33301 85.667 -14.0029 119 -14.0029c71.333 0 120.333 20.333 147 61c19.333 31.333 29 82 29 152v1062h155v-1054c0 -25.333 -0.5 -47.166 -1.5 -65.499s-3.83301 -40.666 -8.5 -66.999s-11.167 -49.166 -19.5 -68.499s-20.333 -38.833 -36 -58.5
s-34.5 -36.167 -56.5 -49.5c-44 -26 -105 -39 -183 -39c-50 0 -98.333 6 -145 18v123zM156 1225v180h172v-180h-172z" />
    <glyph glyph-name="afii10106" unicode="&#x459;" horiz-adv-x="1593" 
d="M10 0v135h17c30 2 56.833 10.333 80.5 25s42 31.334 55 50.001s24.167 40.5 33.5 65.5s15.333 45.167 18 60.5s5 31 7 47c14 118 23 299.667 27 545l2 116h629v-411h290c117.333 0 203.333 -26.667 258 -80c56 -56 84 -132.333 84 -229c0 -108 -34.667 -192 -104 -252
c-54.667 -48 -125 -72 -211 -72h-473v918h-336c-8 -226.667 -16.5 -387.334 -25.5 -482.001s-22.167 -167 -39.5 -217c-50.667 -146 -152 -219 -304 -219h-8zM879 127h242.999c20.667 0 37.334 0.5 50.001 1.5s29.167 4.83301 49.5 11.5s38.5 16.667 54.5 30
c42 37.333 63 89.333 63 156c0 66 -23 115 -69 147c-34 22 -81.333 33 -142 33h-249v-379z" />
    <glyph glyph-name="afii10107" unicode="&#x45a;" horiz-adv-x="1675" 
d="M166 0v1044h156v-438h483v438h156v-411h290c117.333 0 203.333 -26.667 258 -80c56 -56 84 -132.333 84 -229c0 -108 -34.667 -192 -104 -252c-54.667 -48 -125 -72 -211 -72h-473v479h-483v-479h-156zM961 127h242.999c20.667 0 37.334 0.5 50.001 1.5
s29.167 4.83301 49.5 11.5s38.5 16.667 54.5 30c42 37.333 63 89.333 63 156c0 66 -23 115 -69 147c-34 22 -81.333 33 -142 33h-249v-379z" />
    <glyph glyph-name="afii10108" unicode="&#x45b;" horiz-adv-x="1155" 
d="M16 1145v117h154v143h156v-143h385v-117h-385v-332c30.667 66.667 74.834 119.5 132.501 158.5s126.167 58.5 205.5 58.5c108 0 189.667 -32 245 -96c32.667 -36 54.167 -77.333 64.5 -124s15.5 -99.667 15.5 -159v-651h-155v612c0 34.667 -0.5 61.5 -1.5 80.5
s-4.83301 41.667 -11.5 68s-16.667 48.5 -30 66.5c-33.333 45.333 -85.333 68 -156 68c-56.667 0 -109.334 -15.667 -158.001 -47c-100.667 -67.333 -151 -183.333 -151 -348v-500h-156v1145h-154z" />
    <glyph glyph-name="afii10109" unicode="&#x45c;" horiz-adv-x="1052" 
d="M166 0l-0.00488281 1044.01h156v-436h139c37.333 0 67.833 2.5 91.5 7.5s46.334 15.167 68.001 30.5s39.667 37.666 54 66.999s27.166 68 38.499 116c0.666992 2 2 8.16699 4 18.5s3.5 17.166 4.5 20.499s2.5 9.66602 4.5 18.999s3.66699 16.166 5 20.499
s3.33301 10.5 6 18.5s5.16699 14.5 7.5 19.5l8 17c3 6.33301 6.33301 12.166 10 17.499s7.5 10.333 11.5 15c32 37.333 80 56 144 56c11.333 0 27.666 -1.33301 48.999 -4v-123c-2.66699 0.666992 -6 1 -10 1s-8.33301 -0.166992 -13 -0.5s-8 -0.5 -10 -0.5
c-31.333 -2.66699 -53.333 -13 -66 -31c-10.667 -13.333 -21.334 -44.666 -32.001 -93.999l-15 -74c-10.667 -54.667 -30 -96.334 -58 -125.001s-61 -45.667 -99 -51v-4c24 -2 45.167 -7.16699 63.5 -15.5s33.833 -19.666 46.5 -33.999s22.834 -28.5 30.501 -42.5
s15.167 -30.667 22.5 -50c11.333 -31.333 25.333 -74.833 42 -130.5s29.334 -91.834 38.001 -108.501c8.66699 -18 18.334 -29.667 29.001 -35s27 -8 49 -8c16.667 0 29 0.666992 37 2v-125c-15.333 -2.66699 -38 -4 -68 -4c-32 0 -59.5 3.16699 -82.5 9.5
s-41.333 13.666 -55 21.999s-26.167 21.833 -37.5 40.5s-19.666 35.334 -24.999 50.001s-12.666 36.667 -21.999 66c0 2 -0.166992 3.33301 -0.5 4s-0.666016 1.66699 -0.999023 3s-0.833008 2.66602 -1.5 3.99902l-16 49.5l-13 41.5l-10 31.5c-4 12.333 -7 21.333 -9 27
l-7 19.5c-2.66699 7.33301 -5.16699 13.166 -7.5 17.499l-7.5 13.5c-19.333 34 -43.666 57.167 -72.999 69.5s-67 18.5 -113 18.5h-151v-481h-156zM333.995 1268.01l411 243l70 -133l-440 -192z" />
    <glyph glyph-name="afii10110" unicode="&#x45e;" horiz-adv-x="874" 
d="M20 1044l181 -0.000976562l270 -802l281 802h143l-412 -1142c-30.667 -83.333 -67.334 -145.666 -110.001 -186.999c-54 -50 -119 -75 -195 -75c-48 0 -91.667 6.66699 -131 20v121c33.333 -9.33301 71 -14 113 -14c50.667 0 89.334 11.333 116.001 34
c34 28.667 67 89.667 99 183l12 34zM193 1409h147c2 -32.667 13.667 -61.334 35 -86.001c22 -23.333 54.667 -35 98 -35s76 11.667 98 35c21.333 24.667 33 53.334 35 86.001h148c0 -53.333 -18 -101 -54 -143c-51.333 -57.333 -127 -86 -227 -86s-175.667 28.667 -227 86
c-35.333 41.333 -53 89 -53 143z" />
    <glyph glyph-name="afii10193" unicode="&#x45f;" horiz-adv-x="1011" 
d="M96 0v1040h156v-913h508v913h155v-1040h-337v-281h-144v281h-338z" />
    <glyph glyph-name="afii10050" unicode="&#x490;" horiz-adv-x="1034" 
d="M180 0v1405h678v188h156v-344h-658v-1249h-176z" />
    <glyph glyph-name="afii10098" unicode="&#x491;" horiz-adv-x="817" 
d="M166 0v1044h510v130h121v-256h-475v-918h-156z" />
    <glyph glyph-name="uni2000" unicode="&#x2000;" horiz-adv-x="920" 
 />
    <glyph glyph-name="uni2001" unicode="&#x2001;" horiz-adv-x="1841" 
 />
    <glyph glyph-name="uni2002" unicode="&#x2002;" horiz-adv-x="920" 
 />
    <glyph glyph-name="uni2003" unicode="&#x2003;" horiz-adv-x="1841" 
 />
    <glyph glyph-name="uni2004" unicode="&#x2004;" horiz-adv-x="613" 
 />
    <glyph glyph-name="uni2005" unicode="&#x2005;" horiz-adv-x="460" 
 />
    <glyph glyph-name="uni2006" unicode="&#x2006;" horiz-adv-x="306" 
 />
    <glyph glyph-name="uni2007" unicode="&#x2007;" horiz-adv-x="306" 
 />
    <glyph glyph-name="uni2008" unicode="&#x2008;" horiz-adv-x="230" 
 />
    <glyph glyph-name="uni2009" unicode="&#x2009;" horiz-adv-x="368" 
 />
    <glyph glyph-name="uni200A" unicode="&#x200a;" horiz-adv-x="102" 
 />
    <glyph glyph-name="uni2010" unicode="&#x2010;" horiz-adv-x="641" 
d="M102 463v127h437v-127h-437z" />
    <glyph glyph-name="uni2011" unicode="&#x2011;" horiz-adv-x="641" 
d="M102 463v127h437v-127h-437z" />
    <glyph glyph-name="figuredash" unicode="&#x2012;" horiz-adv-x="641" 
d="M102 463v127h437v-127h-437z" />
    <glyph glyph-name="endash" unicode="&#x2013;" horiz-adv-x="1445" 
d="M211 463v127h1024v-127h-1024z" />
    <glyph glyph-name="emdash" unicode="&#x2014;" horiz-adv-x="2048" 
d="M102 463v127h1844v-127h-1844z" />
    <glyph glyph-name="quoteleft" unicode="&#x2018;" horiz-adv-x="514" 
d="M152 950v209l137 246h73l-102 -246h102v-209h-210z" />
    <glyph glyph-name="quoteright" unicode="&#x2019;" horiz-adv-x="514" 
d="M152 950l102 246h-102v209h210v-209l-137 -246h-73z" />
    <glyph glyph-name="quotesinglbase" unicode="&#x201a;" horiz-adv-x="544" 
d="M152 -248l120 248h-84v203h205v-176l-164 -275h-77z" />
    <glyph glyph-name="quotedblleft" unicode="&#x201c;" horiz-adv-x="854" 
d="M152 956v177l163 272h78l-121 -246h84v-203h-204zM461 956v177l164 272h77l-120 -246h84v-203h-205z" />
    <glyph glyph-name="quotedblright" unicode="&#x201d;" horiz-adv-x="856" 
d="M152 956l120 246h-84v203h205v-176l-164 -273h-77zM463 954l121 248h-84v203h205v-176l-164 -275h-78z" />
    <glyph glyph-name="quotedblbase" unicode="&#x201e;" horiz-adv-x="856" 
d="M152 -248l120 248h-84v203h205v-176l-164 -275h-77zM463 -248l121 248h-84v203h205v-176l-164 -275h-78z" />
    <glyph glyph-name="dagger" unicode="&#x2020;" horiz-adv-x="1224" 
d="M147 856l19 92l-19 92l435 -75l-88 440l118 -25l119 25l-88 -440l434 75l-18 -92l18 -92l-434 51l88 -94c-26 -90.667 -47.167 -253.5 -63.5 -488.5s-24.5 -428.5 -24.5 -580.5v-94h-61v94c0 152 -8.16699 345.5 -24.5 580.5s-37.5 397.833 -63.5 488.5l88 94z" />
    <glyph glyph-name="daggerdbl" unicode="&#x2021;" horiz-adv-x="1224" 
d="M147 608l18.998 97l-19 96l435 -76l-45 131l45 105l-435 -60l19 96l-19 97l435 -76l-72 387l102 -33l103 33l-72 -387l434 76l-18 -97l18 -96l-434 60l45 -105l-45 -131l434 76l-18 -96l18 -97l-434 60l90 -78c-27.333 -98 -49.166 -230.833 -65.499 -398.5
s-24.5 -325.834 -24.5 -474.501v-67h-61v67c0 148.667 -8.16699 306.834 -24.5 474.501s-38.166 300.5 -65.499 398.5l90 78z" />
    <glyph glyph-name="bullet" unicode="&#x2022;" 
d="M266 702c0 95.333 34.333 177.333 103 246s150.334 103 245.001 103s176.5 -34.5 245.5 -103.5s103.5 -150.833 103.5 -245.5s-34.333 -176.334 -103 -245.001s-150.667 -103 -246 -103c-94.667 0 -176.334 34.333 -245.001 103s-103 150.334 -103 245.001z" />
    <glyph glyph-name="ellipsis" unicode="&#x2026;" horiz-adv-x="1892" 
d="M152 0v231h225v-231h-225zM834 0v231h225v-231h-225zM1516 0v231h225v-231h-225z" />
    <glyph glyph-name="uni202F" unicode="&#x202f;" horiz-adv-x="368" 
 />
    <glyph glyph-name="perthousand" unicode="&#x2030;" horiz-adv-x="2211" 
d="M80 1057c0 108 24.833 196.333 74.5 265s120.5 103 212.5 103c91.333 0 161.833 -34.333 211.5 -103s74.5 -157 74.5 -265s-24.833 -196.5 -74.5 -265.5s-120.167 -103.5 -211.5 -103.5s-162 34.5 -212 103.5s-75 157.5 -75 265.5zM207 1057
c0 -174.667 53.333 -262 160 -262c106 0 159 87.333 159 262s-53 262 -159 262c-106.667 0 -160 -87.333 -160 -262zM244 0l850 1405h149l-850 -1405h-149zM834 348c0 108 24.833 196.5 74.5 265.5s120.167 103.5 211.5 103.5s162 -34.5 212 -103.5s75 -157.5 75 -265.5
s-24.833 -196.333 -74.5 -265s-120.5 -103 -212.5 -103c-91.333 0 -161.833 34.333 -211.5 103s-74.5 157 -74.5 265zM961 348c0 -174.667 53 -262 159 -262c106.667 0 160 87.333 160 262s-53.333 262 -160 262c-106 0 -159 -87.333 -159 -262zM1559 348
c0 108 24.833 196.5 74.5 265.5s120.167 103.5 211.5 103.5s162 -34.5 212 -103.5s75 -157.5 75 -265.5s-24.833 -196.333 -74.5 -265s-120.5 -103 -212.5 -103c-91.333 0 -161.833 34.333 -211.5 103s-74.5 157 -74.5 265zM1686 348c0 -174.667 53 -262 159 -262
c106.667 0 160 87.333 160 262s-53.333 262 -160 262c-106 0 -159 -87.333 -159 -262z" />
    <glyph glyph-name="guilsinglleft" unicode="&#x2039;" horiz-adv-x="454" 
d="M86 526l178 291h90l-108 -291l108 -299h-90z" />
    <glyph glyph-name="guilsinglright" unicode="&#x203a;" horiz-adv-x="454" 
d="M100 227l109 299l-109 291h90l179 -291l-179 -299h-90z" />
    <glyph glyph-name="uni205F" unicode="&#x205f;" horiz-adv-x="460" 
 />
    <glyph glyph-name="Euro" unicode="&#x20ac;" horiz-adv-x="1220" 
d="M55 504l48.998 128.998h97c-2.66699 24 -4 49.333 -4 76c0 23.333 1.33301 47 4 71h-146l49 129h109c12 74.667 31.5 142.334 58.5 203.001s62.333 114.834 106 162.501s98.667 84.667 165 111s141.5 39.5 225.5 39.5c77.333 0 147.5 -9.83301 210.5 -29.5
s112.167 -43.167 147.5 -70.5v-168c-88.667 79.333 -202 119 -340 119c-118 0 -211.167 -34 -279.5 -102s-110.166 -156.333 -125.499 -265h653l-49 -129h-625c0 -5.33301 -0.333008 -16 -1 -32s-1 -29 -1 -39c0 -10.667 0.333008 -24.667 1 -42s1 -28.666 1 -33.999h568
l-47 -129h-500c18.667 -118.667 62.667 -210.5 132 -275.5s161 -97.5 275 -97.5c136.667 0 249.334 39.667 338.001 119v-170c-30.667 -26 -77.5 -48.833 -140.5 -68.5s-135.5 -29.5 -217.5 -29.5c-152.667 0 -276.5 43.667 -371.5 131s-156.167 217.666 -183.5 390.999
h-158z" />
    <glyph glyph-name="trademark" unicode="&#x2122;" horiz-adv-x="1685" 
d="M20 1303v102h619v-102h-246v-715h-127v715h-246zM737 588v817h181l249 -621l244 621h178v-817h-127v649l-260 -649h-90l-262 649v-649h-113z" />
    <glyph glyph-name="uniE000" unicode="&#xe000;" horiz-adv-x="1044" 
d="M0 0v1044h1044v-1044h-1044z" />
    </font>
</defs>
</svg>
