<?xml version="1.0" encoding="UTF-8" standalone="no"?>
<!DOCTYPE svg PUBLIC "-//W3C//DTD SVG 1.1//EN" "http://www.w3.org/Graphics/SVG/1.1/DTD/svg11.dtd">
<svg xmlns="http://www.w3.org/2000/svg">
<metadata>
This is a custom SVG webfont generated by Font Squirrel.
Copyright   : Copyright c 19901997 ParaGraph
Foundry     : ParaGraph
</metadata>
<defs>
<font id="MagistralCRegular" horiz-adv-x="1394">
<font-face units-per-em="2048" ascent="1638" descent="-410"/>
<missing-glyph horiz-adv-x="477"/>
<glyph unicode=" " horiz-adv-x="477"/>
<glyph unicode="	" horiz-adv-x="477"/>
<glyph unicode=" " horiz-adv-x="477"/>
<glyph unicode="!" horiz-adv-x="397" d="M143 0v158h111v-158h-111zM143 324v1110h111v-1110h-111z"/>
<glyph unicode="&quot;" horiz-adv-x="536" d="M102 1051v383h111v-383h-111zM324 1051v383h110v-383h-110z"/>
<glyph unicode="#" horiz-adv-x="1638" d="M61 399l39 97h287l188 465h-286l39 96h286l152 377h106l-151 -377h463l151 377h107l-152 -377h287l-39 -96h-287l-188 -465h287l-39 -97h-287l-160 -399h-106l160 399h-463l-160 -399h-107l160 399h-287zM494 496h462l189 465h-463z"/>
<glyph unicode="$" horiz-adv-x="1331" d="M102 1112q0 45 10.5 105.5t57.5 119.5q55 66 116.5 81.5t129.5 15.5h202v139h91v-139h450v-97h-450v-573l270 -102q8 -4 27.5 -11.5t44 -21t50 -30.5t48.5 -38q55 -53 67.5 -110.5t12.5 -116.5q0 -66 -15.5 -138.5t-83.5 -129.5q-59 -49 -123.5 -57.5t-129.5 -8.5h-168 v-139h-91v139h-483v96h483v596l-311 117q-41 16 -80 37.5t-67 56.5q-39 47 -48.5 101.5t-9.5 107.5zM217 1108q0 -25 3 -53.5t14.5 -56t32 -51t57.5 -38.5l294 -110v538h-215q-66 0 -100.5 -22.5t-48.5 -40.5q-12 -18 -20.5 -41t-11.5 -46.5t-4 -45t-1 -33.5zM709 96h204 q63 0 101.5 22.5t56.5 45.5q29 35 36 77t7 78q0 57 -12 97.5t-32.5 68t-47.5 45t-55 29.5l-258 98v-561z"/>
<glyph unicode="%" d="M102 1104q0 33 2 70.5t10.5 74.5t24 72t41.5 61q23 23 49.5 35.5t52 18.5t50 8t41.5 2q16 0 40.5 -2t50 -8t52.5 -18.5t49 -35.5q27 -27 42.5 -61.5t23.5 -71.5t10 -74.5t2 -70.5t-2 -71t-10 -74.5t-23.5 -71.5t-42.5 -62q-23 -23 -49.5 -35t-52 -18t-50 -8t-40.5 -2 t-41 2t-50.5 8t-52 18.5t-49.5 34.5q-27 27 -42 62t-23.5 71.5t-10.5 74.5t-2 71zM205 1104q0 -100 13 -143t28 -62q29 -35 62.5 -44t64.5 -9t64.5 9t62.5 44q14 18 27.5 61.5t13.5 143.5t-13.5 143t-27.5 62q-29 35 -63 44t-64 9q-31 0 -65 -9.5t-62 -43.5 q-14 -18 -27.5 -61.5t-13.5 -143.5zM328 0l651 1434h96l-651 -1434h-96zM752 330q0 33 2 70.5t10 74.5t23.5 72t41.5 61q23 23 49.5 35t52 18.5t50.5 8.5t41 2t40.5 -2t50.5 -8.5t52.5 -18.5t48.5 -35q27 -27 42.5 -61.5t23.5 -71.5t10 -75t2 -70q0 -33 -2 -71t-10 -75 t-23.5 -71.5t-42.5 -61.5q-23 -23 -49 -35t-52 -18t-50.5 -8t-40.5 -2t-41 2t-50.5 8t-52 18.5t-49.5 34.5q-27 27 -42 61.5t-23 71.5t-10 75t-2 71zM854 330q0 -53 6 -108.5t39 -96.5q29 -37 60.5 -45t62.5 -8t62.5 8t60.5 45q33 41 39 96t6 109q0 53 -6 108.5t-39 96.5 q-29 37 -60.5 45t-62.5 8t-62.5 -8.5t-60.5 -44.5q-33 -41 -39 -96.5t-6 -108.5z"/>
<glyph unicode="&amp;" horiz-adv-x="1294" d="M102 391q0 66 8.5 125t36.5 100q23 35 65 60.5t93 36.5v4q-27 4 -67.5 19.5t-75.5 66.5q-37 53 -48.5 120.5t-11.5 131.5q0 31 2 68.5t11.5 78.5t27 79t45.5 69q35 35 93.5 59.5t150.5 24.5h612v-97h-593q-41 0 -89.5 -8t-82.5 -41q-25 -23 -37.5 -52.5t-17.5 -61 t-6 -61.5t-1 -50q0 -25 1 -54.5t6 -61.5t16.5 -61.5t33.5 -54.5q35 -37 94.5 -55t118.5 -18h787v-96h-240v-506q0 -59 -8 -85t-18 -36q-12 -14 -28.5 -21.5t-35 -10.5t-36.5 -3h-29h-426q-33 0 -68 1t-70.5 10t-69.5 28.5t-65 56.5q-55 68 -66.5 146.5t-11.5 148.5zM217 371 q0 -49 4 -101.5t31 -93.5q18 -29 42.5 -45t51.5 -24.5t53.5 -9.5t51.5 -1h393q18 0 42.5 1t35.5 12q10 10 12 27.5t2 27.5v498h-520q-41 0 -71 -10.5t-50.5 -24t-33.5 -29.5t-19 -29q-18 -35 -21.5 -82.5t-3.5 -115.5z"/>
<glyph unicode="'" horiz-adv-x="315" d="M102 1051v383h111v-383h-111z"/>
<glyph unicode="(" horiz-adv-x="663" d="M143 303v520q0 61 2 134t19 145q37 143 141 229q57 47 135 76t162 35v-94q-63 -4 -112.5 -23.5t-86 -45.5t-61.5 -54.5t-39 -53.5q-41 -70 -49 -149.5t-8 -144.5v-627q0 -66 8 -145.5t49 -149.5q14 -25 39 -53.5t61.5 -54t86 -45t112.5 -23.5v-94q-100 4 -174 37.5 t-123 74.5q-61 51 -94 111.5t-49 130.5q-12 57 -15.5 120.5t-3.5 143.5z"/>
<glyph unicode=")" horiz-adv-x="663" d="M61 -221q63 4 112.5 23.5t86.5 45t61.5 54t38.5 53.5q41 70 49.5 149.5t8.5 145.5v627q0 66 -8.5 145.5t-49.5 148.5q-14 25 -38.5 53.5t-61.5 54.5t-86 45t-113 24v94q84 -6 162 -35t135 -76q104 -86 142 -229q16 -72 18 -144.5t2 -134.5v-520q0 -80 -3 -143.5 t-15 -120.5q-16 -70 -49 -130.5t-95 -111.5q-49 -41 -122.5 -74.5t-174.5 -37.5v94z"/>
<glyph unicode="*" horiz-adv-x="1040" d="M102 782l332 193l-332 192l43 74l332 -192v385h86v-385l332 192l43 -74l-332 -192l332 -193l-43 -73l-332 192v-385h-86v385l-332 -192z"/>
<glyph unicode="+" horiz-adv-x="1159" d="M143 586v98h381v381h111v-381h381v-98h-381v-381h-111v381h-381z"/>
<glyph unicode="," horiz-adv-x="397" d="M0 -117l197 330l98 -59l-197 -330z"/>
<glyph unicode="-" horiz-adv-x="819" d="M102 496v118h615v-118h-615z"/>
<glyph unicode="." horiz-adv-x="327" d="M102 0v178h123v-178h-123z"/>
<glyph unicode="/" horiz-adv-x="958" d="M-20 -334l897 1850h102l-897 -1850h-102z"/>
<glyph unicode="0" horiz-adv-x="1253" d="M102 479v508q0 74 15.5 130.5t37 99.5t46 71.5t45.5 46.5q43 39 90 61.5t95 33t97.5 13.5t98.5 3t98 -3t97 -13.5t95.5 -33t90.5 -61.5q20 -18 44.5 -46.5t46 -71.5t37 -99.5t15.5 -130.5v-508q0 -47 -6 -102t-24.5 -110.5t-53.5 -108t-92 -90.5q-45 -31 -88 -46.5 t-86 -21.5t-86 -6h-88h-88q-43 0 -86 6t-86 21.5t-88 46.5q-57 39 -92 91t-53.5 107.5t-25 110.5t-6.5 102zM213 518q0 -82 11.5 -167t72.5 -154q33 -37 73 -58.5t83 -32t86 -12.5t86 -2t88 2t88 12.5t83 32t72 58.5q61 70 72.5 154.5t11.5 166.5v438q0 25 -3 65t-16 84 t-40 89t-74 80q-37 27 -84 42t-90 22.5t-72.5 8.5t-33.5 1t-34 -1t-73 -8.5t-90 -23t-84 -41.5q-47 -35 -73.5 -80t-40 -89t-16.5 -84t-3 -65v-438z"/>
<glyph unicode="1" horiz-adv-x="428" d="M-20 1335v99h172q25 0 52 -6.5t44 -20.5q27 -23 32 -53.5t5 -57.5v-1296h-111v1253q0 10 -2 31t-6 31q-8 14 -20.5 17t-20.5 3h-145z"/>
<glyph unicode="2" horiz-adv-x="1198" d="M102 98q0 29 10.5 56.5t45.5 56.5l714 565q31 25 51.5 49.5t34 56t18.5 72.5t5 99q0 90 -8 139t-29 78q-16 23 -53 44t-113 21h-569v99h559q31 0 62.5 -2t64.5 -9.5t62.5 -23t56.5 -41.5q31 -31 47 -72t23.5 -83t9.5 -80t2 -64q0 -66 -10.5 -135.5t-51.5 -128.5 q-23 -35 -55.5 -64t-44.5 -39l-692 -549q-4 -2 -14.5 -12t-10.5 -16q0 -12 7 -14.5t12 -2.5h778v-98h-805q-39 0 -60.5 11.5t-32 26.5t-12.5 31.5t-2 28.5z"/>
<glyph unicode="3" horiz-adv-x="1155" d="M102 0v98h584q51 0 99.5 4t80.5 29q27 20 42.5 52t21.5 66t7 65.5t1 50.5q0 23 -1 56.5t-7 70t-20.5 70.5t-39.5 59q-25 23 -65.5 37t-89.5 14h-576v98h566q59 0 104 15.5t70 41.5q37 41 44 102.5t7 121.5q0 53 -5 115.5t-40 109.5q-29 39 -64 49t-65 10h-621v99h602 q27 0 58.5 -2t63.5 -11.5t63.5 -29t58.5 -56.5q35 -47 49 -115.5t14 -168.5q0 -86 -13 -154t-48 -111q-18 -23 -51 -43t-80 -24v-4q47 -6 79 -25.5t50 -42.5q25 -29 39 -64.5t21.5 -72.5t9.5 -70.5t2 -58.5q0 -35 -3 -75t-11.5 -80t-24 -77.5t-41.5 -68.5 q-47 -53 -105.5 -66.5t-115.5 -13.5h-650z"/>
<glyph unicode="4" horiz-adv-x="1249" d="M41 401q0 37 19.5 66t31.5 43l733 866q20 23 51 48.5t82 25.5q45 0 66 -27q6 -10 10 -24.5t4 -42.5v-973h150v-98h-150v-285h-110v285h-729q-23 0 -55.5 3t-57.5 21q-20 14 -32.5 38.5t-12.5 53.5zM152 410q0 -20 15 -23.5t28 -3.5h733v942q0 6 -8 6q-4 0 -9.5 -6 t-11.5 -12l-717 -854q-30 -37 -30 -49z"/>
<glyph unicode="5" horiz-adv-x="1169" d="M102 0v98h652q72 0 108.5 31t48.5 53q14 25 23.5 61t12.5 70.5t4 66.5t1 48q0 90 -13 131t-26 59q-16 25 -51 46.5t-88 21.5h-387q-43 0 -102.5 6t-102.5 39q-29 20 -44 46t-22 51.5t-9.5 46t-2.5 32.5v379q0 31 10.5 60.5t28.5 48.5q25 27 53.5 33t55.5 6h760v-99h-742 q-10 0 -24.5 -5t-18.5 -11q-6 -8 -9 -25.5t-3 -33.5v-312q0 -39 4 -66.5t17 -45.5q14 -20 43.5 -36t70.5 -16h422q53 0 111.5 -12t109.5 -72q27 -31 42.5 -67.5t22.5 -75.5t8 -76t1 -67q0 -41 -3 -88t-13.5 -93.5t-28.5 -88.5t-51 -72q-51 -49 -109.5 -60.5t-111.5 -11.5 h-648z"/>
<glyph unicode="6" horiz-adv-x="1167" d="M102 391v676q0 66 12.5 115t31 86t41 61.5t42.5 40.5q55 43 111.5 53.5t105.5 10.5h549v-99h-526q-37 0 -91 -11t-99 -58q-31 -33 -48.5 -83t-17.5 -110v-217h477q63 0 130 -12.5t132 -69.5q39 -37 62.5 -80t34 -88t13.5 -89t3 -81q0 -63 -9 -141t-52 -148 q-29 -47 -66 -75.5t-79 -45t-88 -21.5t-91 -5h-209q-51 0 -113.5 10t-119.5 49q-43 29 -70 68t-41 82t-19.5 90t-5.5 92zM213 365q0 -12 1 -36t7 -51.5t17.5 -57.5t31.5 -52q23 -25 70 -47.5t127 -22.5h213q20 0 47 2t54.5 10.5t56 25t51.5 44.5q18 25 30.5 58.5t19.5 69.5 t9 71t2 63q0 25 -1 55.5t-8 62.5t-20.5 63.5t-37.5 58.5q-51 53 -111.5 64.5t-107.5 11.5h-451v-393z"/>
<glyph unicode="7" horiz-adv-x="952" d="M-41 1335v99h901q23 0 46.5 -3.5t43 -13.5t31.5 -32.5t12 -59.5q0 -47 -16 -82t-25 -47l-757 -1196h-125l780 1239q18 29 21 44t3 20q0 23 -11 27.5t-23 4.5h-881z"/>
<glyph unicode="8" horiz-adv-x="1208" d="M102 369q0 33 2 72.5t11.5 80.5t26 79t44.5 65q27 25 62 39t67 18v4q-41 10 -68.5 29.5t-43.5 38.5q-25 27 -38 60.5t-19.5 66t-7.5 63.5t-1 55q0 29 2 71t11.5 87t28 88t48.5 74q29 27 65 42t72.5 22.5t71.5 8.5t60 1h217q25 0 59.5 -1t71.5 -8.5t72.5 -23t64.5 -41.5 q31 -31 49.5 -74t27.5 -88t11 -87t2 -71q0 -25 -1 -55.5t-7 -63t-19.5 -66.5t-37.5 -60q-16 -18 -44 -38t-69 -30v-4q33 -4 67.5 -18.5t61.5 -38.5q29 -27 45 -65t25.5 -79t11.5 -81t2 -72q0 -66 -8 -130.5t-56 -123.5q-59 -74 -133.5 -94.5t-146.5 -20.5h-316 q-72 0 -146.5 20.5t-133.5 94.5q-47 59 -55.5 123.5t-8.5 130.5zM217 389q0 -18 2 -48t7 -60.5t14.5 -60.5t25.5 -50q14 -18 55 -45t125 -27h316q84 0 125 27t55 45q16 20 25.5 50t14.5 60.5t7 60.5t2 48q0 16 -2 48t-9 67t-23.5 69.5t-45.5 57.5t-72.5 34t-84.5 11h-299 q-41 0 -85 -11.5t-73 -33.5q-29 -23 -45 -57.5t-24.5 -69.5t-9.5 -67t-1 -48zM252 1044q0 -86 9 -128t26 -64q18 -27 42.5 -42t50.5 -23.5t52.5 -10.5t46.5 -2h250q20 0 47 2t52.5 10.5t50 23.5t43.5 42q16 23 25 64.5t9 127.5q0 20 -2 54.5t-9 70t-21.5 68.5t-38.5 55 q-39 33 -87 38t-91 5h-205q-43 0 -91.5 -5t-86.5 -38q-25 -23 -39.5 -55.5t-21.5 -68t-9 -70t-2 -54.5z"/>
<glyph unicode="9" horiz-adv-x="1167" d="M102 1010q0 35 3.5 80t14.5 92t33.5 93t63.5 81q63 53 140 65.5t149 12.5h158q37 0 83 -3.5t93 -16.5t90 -39.5t74 -71.5q20 -31 32.5 -68t18.5 -72t8 -64.5t2 -45.5v-586q0 -78 -8 -156t-41 -143q-29 -57 -70 -91t-84 -50.5t-86 -21.5t-78 -5h-512v98h473q51 0 115 11.5 t111 58.5q25 25 38 59.5t20 71.5t9 70.5t2 58.5v166h-528q-96 0 -152.5 34t-85.5 66q-29 33 -46 72t-26.5 80t-11.5 83t-2 81zM217 1012q0 -72 15.5 -144.5t56.5 -113.5q47 -47 107.5 -54.5t113.5 -7.5h444v359q0 45 -10 106.5t-55 108.5t-102.5 58t-102.5 11h-203 q-18 0 -40.5 -2t-48 -9t-52.5 -21.5t-49 -38.5q-47 -51 -60.5 -121t-13.5 -131z"/>
<glyph unicode=":" horiz-adv-x="368" d="M123 0v166h123v-166h-123zM123 920v165h123v-165h-123z"/>
<glyph unicode=";" horiz-adv-x="417" d="M0 -117l197 330l98 -59l-197 -330zM172 920v165h123v-165h-123z"/>
<glyph unicode=";" horiz-adv-x="417" d="M0 -117l197 330l98 -59l-197 -330zM172 920v165h123v-165h-123z"/>
<glyph unicode="&lt;" horiz-adv-x="1161" d="M143 678l875 440v-110l-678 -330l678 -330v-110z"/>
<glyph unicode="=" horiz-adv-x="1159" d="M143 475v98h873v-98h-873zM143 696v99h873v-99h-873z"/>
<glyph unicode="&gt;" horiz-adv-x="1161" d="M143 238v110l678 330l-678 330v110l875 -440z"/>
<glyph unicode="?" horiz-adv-x="894" d="M20 1335v99h474q61 0 121.5 -13.5t113.5 -68.5q57 -59 70.5 -131t13.5 -134q0 -78 -15.5 -131t-41 -91t-60 -64.5t-73.5 -48.5l-201 -119q-14 -8 -34.5 -23.5t-35.5 -36.5q-10 -16 -16 -34.5t-6 -38.5v-176h-111v155q0 35 6 73t33 75q6 10 32.5 36.5t86.5 61.5l188 111 q86 51 109.5 107t23.5 130q0 20 -1 46t-6 53.5t-14 54t-28 47.5q-35 43 -84 52t-86 9h-459zM219 0v158h111v-158h-111z"/>
<glyph unicode="@" horiz-adv-x="1992" d="M123 586q0 106 3 197t16.5 168t41 143.5t74.5 126.5q57 72 127 114.5t144.5 64t152.5 28t154 6.5h370q55 0 131 -4.5t154 -29t152.5 -76.5t130.5 -146q68 -117 82 -248t14 -268q0 -135 -10.5 -245t-51.5 -194q-47 -94 -114.5 -128t-159.5 -34q-14 0 -47 4.5t-71 21.5 t-71.5 54t-48.5 103q-31 -53 -72.5 -89t-90 -56.5t-100.5 -29t-103 -8.5q-111 0 -194 38t-134 130q-23 41 -35 85t-18 88t-7 85t-1 76q0 82 9 166t46 160q31 59 72 96t87 58.5t92 29.5t87 8h266q39 0 73 -6t64 -37q35 -35 36 -66.5t1 -64.5v-483q0 -29 2 -74t17.5 -88 t49.5 -73.5t99 -30.5q51 0 102.5 28.5t81.5 116.5q8 25 14.5 56.5t9.5 75.5t4 103.5t1 141.5q0 131 -12 235.5t-53 186.5q-39 80 -94.5 126t-119 70.5t-130 31.5t-129.5 7h-392q-66 0 -145.5 -7t-155 -37.5t-140.5 -91t-101 -165.5q-8 -25 -16.5 -60.5t-14.5 -88.5t-10 -126 t-4 -173q0 -53 2 -114.5t6 -122t12 -117t21 -99.5q35 -121 102.5 -189.5t142 -102t147 -42t117.5 -8.5h594v-96h-620q-100 0 -180 18.5t-141.5 49t-106.5 70.5t-76 83q-86 121 -110.5 289t-24.5 379zM655 567q0 -119 9.5 -174t15.5 -76q18 -55 46 -86.5t61.5 -48t71.5 -20.5 t77 -4q33 0 68.5 3t69.5 15t67 34.5t59 61.5q25 35 38 79t20.5 84t8.5 73t1 47v363q0 29 -17 49q-12 14 -30.5 17t-34.5 3h-211q-35 0 -73 -3t-74.5 -15.5t-68.5 -38t-54 -68.5q-14 -29 -23.5 -65.5t-16 -76.5t-8.5 -80t-2 -73z"/>
<glyph unicode="A" horiz-adv-x="1376" d="M-20 0l548 1298q12 29 26.5 56.5t33 49t43 34t57.5 12.5q63 0 99 -47t61 -105l549 -1298h-119l-174 418h-832l-174 -418h-118zM315 516h746l-313 750q-10 23 -23.5 52.5t-36.5 29.5t-36 -30t-23 -52z"/>
<glyph unicode="B" d="M143 184v1061q0 41 10.5 78t30.5 61q29 33 62 41.5t65 8.5h662q78 0 131 -24t84 -56q31 -31 48 -70t26.5 -80t12.5 -82t3 -75q0 -66 -10.5 -127.5t-50.5 -114.5q-29 -35 -61 -53.5t-71 -22.5v-8q53 -6 90 -29.5t58 -48.5q47 -55 53 -121.5t6 -134.5q0 -39 -1 -78 t-9 -76.5t-25.5 -74.5t-50.5 -74q-51 -57 -100 -70.5t-105 -13.5h-632q-39 0 -90.5 3t-92.5 44q-29 31 -36 67.5t-7 69.5zM254 209q0 -45 4 -62.5t10 -25.5q14 -16 42 -19.5t52 -3.5h572q20 0 47 1t52.5 7.5t51 19.5t43.5 40q14 18 22.5 46t13.5 58.5t7.5 60t2.5 54.5 q0 23 -2.5 52.5t-6.5 59t-11 56.5t-17 43q-20 31 -61.5 53.5t-86.5 22.5h-735v-463zM254 770h672q47 0 100 9t88 55q14 18 23.5 47.5t13.5 62.5t6 63.5t2 53.5q0 57 -7 98t-17.5 67.5t-21.5 42t-19 23.5q-35 33 -72 38t-66 5h-620q-16 0 -32.5 -1t-29.5 -15 q-10 -10 -15 -31.5t-5 -34.5v-483z"/>
<glyph unicode="C" horiz-adv-x="1308" d="M102 696q0 74 4.5 150t20.5 149.5t46 141t83 123.5q27 31 68 61.5t95 55t122.5 41t154.5 16.5h549v-99h-502q-41 0 -94 -4t-109.5 -21.5t-111.5 -50t-100 -90.5q-37 -47 -58.5 -105t-32 -119.5t-13.5 -126t-3 -124.5q0 -43 1 -95t10.5 -108.5t29 -112.5t53.5 -106 q45 -63 103.5 -98t115 -52.5t105.5 -20.5t74 -3h555v-98h-578q-88 0 -156.5 16.5t-121 41t-89 52t-61.5 52.5q-92 92 -126 222t-34 312z"/>
<glyph unicode="D" horiz-adv-x="1490" d="M143 158v1071q0 35 7.5 74.5t42.5 76.5q33 35 69.5 44.5t65.5 9.5h487q29 0 75 -4.5t101.5 -20.5t116.5 -50t119 -91q57 -59 90 -126t49 -135.5t19.5 -136t3.5 -129.5q0 -63 -4.5 -137t-18.5 -148.5t-43 -148.5t-78 -135q-55 -72 -150.5 -122t-242.5 -50h-508 q-37 0 -78 5t-71 30q-35 27 -43.5 58.5t-8.5 64.5zM254 188q0 -59 14 -73q12 -12 34 -14.5t32 -2.5h514q37 0 82 6.5t92 26t91 57t79 101.5q43 82 60.5 194.5t17.5 266.5q0 57 -3 114.5t-14.5 112.5t-34 106.5t-59.5 98.5q-59 76 -147 114.5t-191 38.5h-483q-12 0 -27.5 -2 t-29.5 -12q-10 -10 -18.5 -25.5t-8.5 -38.5v-1069z"/>
<glyph unicode="E" horiz-adv-x="1269" d="M143 199v1044q0 63 16.5 95t24.5 42q31 37 70 45.5t80 8.5h846v-99h-830q-16 0 -39.5 -5t-34.5 -15q-16 -14 -19 -38t-3 -34v-461h905v-98h-905v-510q0 -12 5 -29.5t15 -27.5t42 -14.5t51 -4.5h821v-98h-850q-37 0 -76 4t-74 39q-33 33 -39 74t-6 82z"/>
<glyph unicode="F" horiz-adv-x="1175" d="M143 0v1288q0 37 11.5 61.5t27.5 41.5q29 31 61.5 37t67.5 6h824v-99h-832q-10 0 -19.5 -1t-17.5 -11t-10 -22.5t-2 -22.5v-500h643v-98h-643v-680h-111z"/>
<glyph unicode="G" horiz-adv-x="1441" d="M102 709q0 90 7.5 183t34 178t77.5 159t137 125q88 53 178.5 66.5t155.5 13.5h615v-99h-645q-135 0 -231.5 -60.5t-143.5 -154.5q-23 -43 -35 -96t-19.5 -108.5t-9.5 -107.5t-2 -91q0 -100 8.5 -173t18.5 -122t20.5 -77t16.5 -40q18 -41 49 -78t71.5 -65.5t93 -46 t115.5 -17.5h529q16 0 34.5 3t32.5 20q10 12 14.5 31.5t4.5 35.5v469h110v-497q0 -18 -5 -56t-34 -65q-23 -23 -61.5 -31t-67.5 -8h-555q-94 0 -174 28.5t-139 75.5q-70 55 -109.5 128t-60 154t-26 164t-5.5 159z"/>
<glyph unicode="H" horiz-adv-x="1437" d="M143 0v1434h111v-656h930v656h110v-1434h-110v680h-930v-680h-111z"/>
<glyph unicode="I" horiz-adv-x="397" d="M143 0v1434h111v-1434h-111z"/>
<glyph unicode="J" horiz-adv-x="802" d="M-41 0v98h262q90 0 146.5 28t87.5 56q59 57 76.5 138t17.5 159v955h110v-953q0 -129 -28.5 -211t-81.5 -139q-41 -43 -117 -87t-188 -44h-285z"/>
<glyph unicode="K" horiz-adv-x="1282" d="M143 0v1434h111v-1434h-111zM334 737q0 43 33.5 85t68.5 71l672 541h160l-733 -594q-10 -8 -25.5 -19.5t-30 -25t-25 -28.5t-10.5 -32q0 -35 36 -66.5t71 -58.5l792 -610h-165l-719 555q-55 43 -90 91t-35 91z"/>
<glyph unicode="L" horiz-adv-x="1112" d="M143 131v1303h111v-1266q0 -12 2 -26.5t14 -26.5q12 -10 29.5 -13.5t32.5 -3.5h821v-98h-854q-16 0 -53 4t-64 27t-33 50t-6 50z"/>
<glyph unicode="M" horiz-adv-x="1908" d="M143 0v1315q0 59 37 97t99 38q61 0 94 -38t61 -103l486 -1168q4 -12 11 -28.5t23 -16.5t23.5 16.5t11.5 28.5l486 1168q29 66 61.5 103.5t93.5 37.5t98 -38t37 -97v-1315h-110v1315q0 23 -10.5 30t-18.5 7q-10 0 -22.5 -14.5t-16.5 -26.5l-487 -1172 q-29 -66 -59.5 -110.5t-86.5 -44.5q-55 0 -85.5 45t-59.5 110l-487 1172q-4 12 -16.5 26.5t-22.5 14.5q-8 0 -18.5 -7.5t-10.5 -29.5v-1315h-111z"/>
<glyph unicode="N" horiz-adv-x="1499" d="M143 0v1305q0 53 17.5 82.5t41 43t45 16.5t32.5 3q59 0 88.5 -29.5t52.5 -66.5l754 -1217q8 -12 17 -24.5t28 -12.5q20 0 23 13.5t3 23.5v1297h111v-1291q0 -72 -33 -115.5t-98 -43.5q-49 0 -79 24.5t-65 79.5l-749 1210q-6 10 -18.5 22.5t-28.5 12.5q-4 0 -17.5 -7 t-13.5 -34v-1292h-111z"/>
<glyph unicode="O" horiz-adv-x="1593" d="M102 717q0 61 4.5 137t20.5 153.5t50 151.5t95 135q55 55 122 86t136.5 46.5t138 19.5t128.5 4q59 0 127.5 -4t138.5 -19.5t136.5 -46t121.5 -86.5q61 -61 95 -135t50.5 -151.5t20.5 -153.5t4 -137t-4 -137t-20.5 -154t-50.5 -151.5t-95 -135.5q-55 -55 -121.5 -87 t-136.5 -47t-138.5 -18t-127.5 -3t-128 3t-138.5 18t-136 47t-122.5 87q-61 61 -95 135t-50 152t-20.5 154t-4.5 137zM221 717q0 -61 2 -129t14.5 -132.5t37 -126t69.5 -110.5q45 -51 102.5 -78.5t118 -41t120.5 -15.5t112 -2q51 0 111.5 2t121 15.5t116.5 41t103 78.5 q45 49 69.5 110.5t37 126t14.5 132t2 129.5q0 61 -2 128.5t-14.5 132t-37 126t-69.5 110.5q-47 51 -103 79t-116.5 41.5t-121 15.5t-111.5 2t-111.5 -2t-121 -15.5t-118 -41t-102.5 -79.5q-45 -49 -69.5 -110.5t-37 -126t-14.5 -132t-2 -128.5z"/>
<glyph unicode="P" d="M143 0v1264q0 29 5.5 65.5t33.5 65.5q14 14 35 21t41.5 11.5t36.5 5.5t24 1h592q70 0 140.5 -11.5t132.5 -64.5q61 -53 84.5 -138t23.5 -227q0 -43 -4 -92t-16 -95t-36 -87t-62 -72q-37 -29 -88.5 -45t-104.5 -16h-727v-586h-111zM254 684h664q90 0 136 21.5t64 44.5 q20 25 31.5 62.5t16.5 77.5t6.5 75.5t1.5 56.5q0 18 -1.5 51t-7.5 69t-18 69.5t-33 58.5q-23 25 -69 45t-123 20h-586q-61 0 -71.5 -25.5t-10.5 -62.5v-563z"/>
<glyph unicode="Q" horiz-adv-x="1599" d="M102 717q0 61 4.5 137t20.5 153.5t50 151.5t95 135q55 55 122 86t136.5 46.5t138 19.5t128.5 4q61 0 130.5 -4t139.5 -19.5t136.5 -46t121.5 -86.5q35 -35 64.5 -82t52 -115.5t36 -161.5t13.5 -218q0 -39 -2 -99.5t-11.5 -127t-27.5 -134t-49 -118.5q-20 -33 -53 -69 t-84 -65v-6h241v-98h-706q-55 0 -124 3t-140.5 16.5t-140 41t-122.5 78.5q-61 57 -95 133t-50 156t-20.5 155t-4.5 134zM221 717q0 -55 2 -123t14.5 -135.5t37 -131t69.5 -108.5q41 -43 94.5 -66.5t113.5 -36t122.5 -15.5t122.5 -3q57 0 120.5 3t123 15.5t113.5 36t95 66.5 q45 47 69.5 108.5t37 129t14.5 135t2 125.5q0 63 -2 129.5t-14.5 131t-37 125t-69.5 111.5q-43 49 -95 76t-110.5 41.5t-121 17.5t-125.5 3t-126 -3t-121 -17.5t-110.5 -41t-95.5 -76.5q-45 -51 -69.5 -111.5t-37 -125t-14.5 -131t-2 -129.5z"/>
<glyph unicode="R" horiz-adv-x="1435" d="M143 0v1214q0 47 8.5 89.5t51.5 80.5q37 33 75.5 41.5t79.5 8.5h605q31 0 67.5 -4.5t73.5 -17.5t70.5 -37.5t60.5 -63.5q41 -63 52 -145.5t11 -161.5q0 -66 -9 -147t-54 -152q-25 -37 -55.5 -62t-64.5 -39t-68.5 -19t-67.5 -5h-317v-11l671 -569h-162l-632 541 q-25 23 -32 31t-7 26v33q0 23 13 35t36 12h444q53 0 92 25.5t56 54.5q16 29 27.5 85t11.5 169q0 25 -1 60.5t-7.5 74.5t-19.5 76t-40 61q-20 18 -45 28.5t-48.5 15.5t-44 6t-32.5 1h-586q-16 0 -35.5 -3t-37.5 -19t-23.5 -36t-5.5 -38v-1239h-111z"/>
<glyph unicode="S" horiz-adv-x="1323" d="M102 1114q0 55 15.5 124t81.5 124q31 27 86 49.5t141 22.5h727v-99h-739q-39 0 -81 -13t-69 -42q-33 -35 -38 -84t-5 -86q0 -35 3 -67.5t17.5 -61.5t44 -54.5t81.5 -43.5l557 -197q66 -23 119 -47.5t90 -58.5q53 -51 70.5 -115t17.5 -117q0 -4 -1 -31.5t-7.5 -65.5 t-20.5 -80t-41 -77q-25 -33 -53.5 -51t-58 -27.5t-60.5 -12.5t-57 -3h-797v98h809q33 0 62.5 10.5t53 38t38 74.5t14.5 123q0 35 -6 68.5t-24.5 63.5t-54.5 56.5t-95 47.5l-572 196q-53 18 -100 45t-76 62q-45 51 -58.5 111.5t-13.5 119.5z"/>
<glyph unicode="T" horiz-adv-x="1228" d="M-41 1335v99h1311v-99h-600v-1335h-111v1335h-600z"/>
<glyph unicode="U" horiz-adv-x="1384" d="M143 446v988h111v-949q0 -33 1 -70.5t8 -76.5t22.5 -76t42.5 -67q33 -39 75.5 -61.5t91 -34t99.5 -14.5t98 -3t98.5 3t99.5 14.5t91 34t76 61.5q27 31 42 67.5t22 75.5t8 77t1 70v949h111v-988q0 -76 -19.5 -160.5t-82.5 -156.5q-47 -51 -106.5 -80t-121 -43t-119 -18 t-100.5 -4t-101.5 4t-119.5 18t-120.5 43t-104.5 80q-33 37 -52.5 77t-30.5 81t-15.5 81.5t-4.5 77.5z"/>
<glyph unicode="V" horiz-adv-x="1245" d="M-41 1434h125l504 -1309q8 -20 17 -25.5t18 -5.5q8 0 17 5t17 26l504 1309h125l-538 -1356q-10 -29 -41 -61.5t-84 -32.5q-6 0 -22.5 2t-35 11t-37 27.5t-30.5 53.5z"/>
<glyph unicode="W" horiz-adv-x="1843" d="M-41 1434h113l323 -1299q2 -10 9.5 -27.5t25.5 -17.5q10 0 22.5 10.5t16.5 26.5l307 1184q6 20 15.5 43.5t26 45t42 36t62.5 14.5t62.5 -14.5t41.5 -36t25.5 -45t15.5 -43.5l307 -1184q4 -16 16.5 -26.5t22.5 -10.5q18 0 25.5 17.5t9.5 27.5l324 1299h112l-340 -1330 q-20 -76 -57 -98t-78 -22q-37 0 -61.5 12t-41 30.5t-25.5 42t-15 46.5l-312 1177q-2 8 -9 24.5t-23 16.5t-23.5 -16.5t-9.5 -24.5l-311 -1177q-6 -23 -15.5 -46.5t-26 -42t-41 -30.5t-61.5 -12q-41 0 -78 22.5t-57 97.5z"/>
<glyph unicode="X" horiz-adv-x="1146" d="M-41 0l555 727l-539 707h131l467 -627l467 627h131l-538 -707l555 -727h-131l-484 647l-483 -647h-131z"/>
<glyph unicode="Y" horiz-adv-x="1216" d="M-41 1434h123l526 -863l527 863h122l-593 -963v-471h-111v471z"/>
<glyph unicode="Z" horiz-adv-x="1183" d="M20 115q0 29 14.5 57.5t35.5 50.5l952 1028q8 8 15 25.5t7 28.5q0 20 -13 25t-23 5h-938v99h964q53 0 91 -29t38 -82q0 -39 -16.5 -66.5t-32.5 -46.5l-956 -1044q-18 -23 -19 -43q0 -25 23 -25h973v-98h-967q-47 0 -77 12.5t-45 30.5t-20.5 38t-5.5 34z"/>
<glyph unicode="[" horiz-adv-x="663" d="M143 -315v1757h459v-94h-356v-1569h356v-94h-459z"/>
<glyph unicode="\" horiz-adv-x="958" d="M-20 1516h102l897 -1850h-102z"/>
<glyph unicode="]" horiz-adv-x="663" d="M61 -221h357v1569h-357v94h459v-1757h-459v94z"/>
<glyph unicode="^" horiz-adv-x="925" d="M61 1124l322 275q14 12 33.5 23.5t46.5 11.5t46 -11.5t34 -23.5l321 -275l-57 -71l-301 264q-8 6 -18.5 12t-24.5 6t-24.5 -6t-18.5 -12l-301 -264z"/>
<glyph unicode="_" horiz-adv-x="1212" d="M102 0v119h1008v-119h-1008z"/>
<glyph unicode="`" horiz-adv-x="438" d="M61 1352l64 80l252 -205l-64 -80z"/>
<glyph unicode="a" horiz-adv-x="1034" d="M61 336q0 66 15.5 136.5t75.5 119.5q45 37 100 47t102 10h471v162q0 27 -10 65.5t-31 63.5q-16 20 -45.5 34.5t-68.5 14.5h-527v96h533q55 0 106.5 -20.5t83.5 -54.5q43 -47 54.5 -107.5t11.5 -109.5v-650q0 -23 -5 -55.5t-32 -56.5q-25 -23 -59.5 -27t-63.5 -4h-418 q-47 0 -99 7t-97 42q-35 27 -53.5 67t-28.5 80t-12.5 77.5t-2.5 62.5zM176 332q0 -49 7 -101.5t36 -87.5q16 -20 44 -33.5t63 -13.5h438q10 0 23.5 1t23.5 12q10 10 12 18t2 18v408h-495q-47 0 -77 -18.5t-42 -34.5q-20 -27 -27.5 -69t-7.5 -99z"/>
<glyph unicode="b" horiz-adv-x="1056" d="M102 170v1264h107v-349h340q43 0 94 -6t101.5 -24.5t96.5 -53t81 -94.5q27 -43 41 -92t21 -98t9 -97.5t2 -91.5q0 -37 -2 -79.5t-9 -89t-21.5 -92.5t-38.5 -89q-35 -59 -81 -94t-95.5 -53.5t-98.5 -24.5t-94 -6h-233q-47 0 -93.5 5t-74.5 28q-35 29 -43.5 68.5t-8.5 68.5 zM209 180q0 -16 1 -34.5t11 -30.5t29.5 -15.5t34.5 -3.5h247q31 0 72 3t83 17.5t81 43t68 80.5q29 51 37 115.5t8 142.5q0 39 -2 86t-7.5 93t-13.5 87t-20 70q-23 51 -59 82.5t-75.5 47t-82.5 20.5t-80 5h-332v-809z"/>
<glyph unicode="c" horiz-adv-x="974" d="M61 528q0 55 3.5 113.5t15.5 116t36.5 111t67.5 96.5q47 47 128 83.5t210 36.5h367v-96h-379q-131 0 -210 -61.5t-103 -159.5q-6 -23 -9.5 -57.5t-6.5 -71.5t-4 -70.5t-1 -54.5q0 -27 2 -61.5t6 -70.5t11.5 -68.5t17.5 -55.5q25 -53 63.5 -86t82.5 -49.5t90.5 -21.5 t82.5 -5h381v-96h-434q-117 0 -194.5 40t-124.5 97q-66 78 -82.5 174t-16.5 217z"/>
<glyph unicode="d" horiz-adv-x="1050" d="M61 571q0 90 12.5 179.5t69.5 173.5q37 53 82 84.5t94.5 49t98.5 22.5t94 5h330v349h106v-1276q0 -31 -6 -65t-22 -54q-23 -29 -58 -34t-61 -5h-338q-41 0 -89 7t-97.5 29.5t-92.5 65.5t-73 117q-33 78 -41.5 170t-8.5 182zM176 555q0 -74 3 -124t8.5 -84t10.5 -53.5 t9 -29.5q20 -55 55 -89t74 -51.5t79 -22.5t72 -5h273q10 0 31.5 2t33.5 15q10 10 13.5 34.5t3.5 40.5v801h-355q-31 0 -65.5 -4t-69.5 -17.5t-66.5 -38t-56.5 -63.5q-29 -47 -41 -120.5t-12 -190.5z"/>
<glyph unicode="e" horiz-adv-x="1058" d="M61 539q0 57 3.5 118.5t17.5 121t44 113.5t81 97q74 61 166 78.5t174 17.5q57 0 134 -11t142 -50q16 -10 45 -32.5t57.5 -63.5t50 -101.5t21.5 -146.5q0 -12 -1 -30.5t-5 -38t-13 -39t-26 -33.5q-25 -23 -58.5 -28t-55.5 -5h-662q-1 -16 -1 -34q0 -35 3 -79 q4 -66 17 -108q8 -33 27.5 -67t49 -60.5t70.5 -44t94 -17.5h533v-96h-533q-33 0 -69.5 5t-74.5 19.5t-75 41t-67 67.5q-63 82 -76 183.5t-13 222.5zM176 602h662q18 0 27 9.5t13.5 21.5t4.5 23v18q0 80 -22.5 134t-51.5 87q-29 35 -62.5 53.5t-70.5 27.5t-74 11t-74 2 q-41 0 -81.5 -3t-80.5 -15.5t-75 -39t-64 -73.5q-33 -53 -41 -114.5t-10 -141.5z"/>
<glyph unicode="f" horiz-adv-x="542" d="M20 989v96h142q0 27 3 62t12 70.5t25.5 69.5t45.5 63q31 31 69.5 49t81.5 29.5t85 14.5t79 3v-96q-51 0 -117.5 -10.5t-107.5 -45.5q-20 -18 -33.5 -42.5t-22 -53.5t-11.5 -58.5t-3 -54.5h293v-96h-293v-989h-106v989h-142z"/>
<glyph unicode="g" horiz-adv-x="1107" d="M61 569q0 129 21.5 228.5t99.5 177.5q68 70 144.5 90t179.5 20h270q43 0 87 -6t79 -32q41 -31 52.5 -74t11.5 -78v-770q0 -100 -16.5 -193.5t-71.5 -158.5q-37 -41 -85.5 -65.5t-97.5 -37t-93 -15.5t-69 -3h-434v96h434q14 0 44 1t66 8t70.5 20.5t63.5 38.5 q39 35 58.5 86t23.5 98h-420q-45 0 -90 3t-88 17.5t-82 43t-72 77.5q-53 82 -69.5 191.5t-16.5 236.5zM176 549q0 -106 10.5 -176t24.5 -114t27.5 -64.5t19.5 -28.5q25 -29 52.5 -43t56 -20.5t56.5 -6.5h50h426v805q0 23 -5 40t-26 32q-16 10 -32.5 13t-32.5 3h-336 q-78 0 -126 -23.5t-75 -52.5q-31 -33 -49 -77.5t-27.5 -94t-11.5 -99.5t-2 -93z"/>
<glyph unicode="h" horiz-adv-x="1054" d="M102 0v1434h107v-349h397q82 0 143.5 -17t108.5 -60q59 -55 76.5 -130t17.5 -157v-721h-106v733q0 35 -8.5 91.5t-44.5 99.5q-39 45 -85 55t-92 10h-407v-989h-107z"/>
<glyph unicode="i" horiz-adv-x="319" d="M102 1282v152h115v-152h-115zM106 0v1085h107v-1085h-107z"/>
<glyph unicode="j" horiz-adv-x="528" d="M-20 -268q26 -1 48 -1t42 1q39 2 67.5 10t51 19.5t42.5 27.5q41 33 62.5 78t21.5 135v1083h107v-1103q0 -27 -4 -62t-16.5 -72.5t-37 -74.5t-65.5 -70q-37 -29 -81 -44t-87 -21.5t-83 -6.5t-68 4v97zM311 1282v152h115v-152h-115z"/>
<glyph unicode="k" horiz-adv-x="940" d="M102 0v1434h107v-1434h-107zM289 561q0 45 22.5 81t63.5 75l393 368h143l-471 -442q-23 -23 -30 -43t-7 -35q0 -29 17.5 -55.5t40.5 -46.5l500 -463h-148l-440 406q-10 8 -23.5 23t-28 34.5t-23.5 44t-9 53.5z"/>
<glyph unicode="l" horiz-adv-x="311" d="M102 0v1434h107v-1434h-107z"/>
<glyph unicode="m" horiz-adv-x="1671" d="M102 0v903q0 31 4.5 63.5t20.5 59.5q27 41 63.5 50t59.5 9h1007q66 0 125.5 -14t102.5 -53q51 -45 67.5 -111.5t16.5 -134.5v-772h-107v780q0 37 -8 80t-37 76q-35 37 -81 45t-81 8h-366v-989h-107v989h-508q-14 0 -28.5 -3t-24.5 -15q-10 -10 -11 -25.5t-1 -32.5v-913 h-107z"/>
<glyph unicode="n" horiz-adv-x="1060" d="M102 0v944q0 23 4.5 50.5t20.5 49.5q23 29 52.5 35t53.5 6h390q78 0 140 -15t111 -64q25 -25 54.5 -82.5t29.5 -169.5v-754h-106v727q0 70 -9 115t-38 80q-35 43 -79 55t-97 12h-385q-8 0 -16.5 -1t-12.5 -7t-5 -16.5t-1 -16.5v-948h-107z"/>
<glyph unicode="o" horiz-adv-x="1196" d="M61 549q0 45 4.5 101.5t18.5 114.5t41 114.5t72 99.5q39 39 88 62.5t101 36t106.5 16.5t105.5 4t105.5 -4t106.5 -16.5t100 -36t89 -62.5q45 -43 72 -99.5t41 -114.5t18.5 -114.5t4.5 -101.5q0 -176 -42 -281.5t-94 -156.5q-45 -43 -99 -68t-109.5 -37t-105.5 -15t-87 -3 t-87 3t-105.5 15t-109.5 37t-99 68q-53 51 -94.5 156.5t-41.5 281.5zM176 539q0 -33 1 -78t9.5 -93.5t25.5 -95.5t52 -84q33 -35 73 -56t85 -31.5t90 -13.5t86 -3t86 3t90 13.5t85 32t73 55.5q33 37 51 84t26.5 95.5t9.5 93.5t1 78q0 35 -1 83t-9.5 98t-25.5 97t-50 84 q-31 35 -73 54.5t-88 29.5t-91 13t-84 3t-84 -3t-91 -13t-88 -29.5t-73 -54.5q-33 -37 -50 -84t-25.5 -97t-9.5 -98t-1 -83z"/>
<glyph unicode="p" horiz-adv-x="1048" d="M102 -348v1298q0 43 19.5 67.5t32.5 35.5q31 23 64.5 27.5t55.5 4.5h275q27 0 65.5 -3t82.5 -16t89 -37.5t86 -67.5t65 -93.5t35 -102.5t13 -104.5t2 -101.5q0 -104 -13 -205.5t-73 -191.5q-66 -96 -160 -129t-225 -33h-307v-348h-107zM209 96h350q74 0 142.5 30 t109.5 93q37 57 49 138t12 188q0 113 -10 179.5t-28 106.5q-39 86 -114 122t-149 36h-313q-8 0 -17.5 -5t-15.5 -9q-10 -10 -13 -19.5t-3 -19.5v-840z"/>
<glyph unicode="q" horiz-adv-x="1058" d="M61 530q0 43 3.5 98.5t13.5 116t32.5 119t61.5 105.5q35 43 103.5 79.5t183.5 36.5h344q57 0 87 -19t40 -34q23 -29 24.5 -62.5t1.5 -66.5v-1251h-106v348h-410q-33 0 -70.5 5t-77.5 20.5t-79 43t-70 74.5q-29 43 -45 93.5t-24 102.5t-10.5 101t-2.5 90zM176 541 q0 -27 1 -59.5t4 -66.5t8.5 -68t11.5 -60q4 -18 17 -50t41 -63t75 -54.5t121 -23.5h395v828q0 12 -4 26.5t-19 24.5q-14 10 -28.5 12t-28.5 2h-287q-98 0 -166.5 -33.5t-103.5 -128.5q-12 -31 -19.5 -67.5t-11.5 -74.5t-5 -75.5t-1 -68.5z"/>
<glyph unicode="r" horiz-adv-x="518" d="M102 0v713q0 84 17.5 154.5t79.5 129.5q35 33 95 60.5t171 27.5h74v-96h-66q-45 0 -104.5 -12t-104.5 -64q-35 -41 -45 -100t-10 -125v-688h-107z"/>
<glyph unicode="s" horiz-adv-x="1032" d="M61 815q0 106 56 176q51 66 117.5 80t144.5 14h520v-96h-563q-18 0 -56 -5t-65 -32q-29 -29 -34 -67.5t-5 -61.5q0 -29 7 -69.5t38 -71.5q14 -14 40 -26.5t53.5 -21.5t53 -16.5t40.5 -9.5l196 -45q98 -23 170 -43t119 -59q51 -41 64.5 -88t13.5 -101q0 -29 -3 -60.5 t-13.5 -62t-29 -59.5t-48.5 -49q-41 -29 -89.5 -35t-80.5 -6h-627v96h622q47 0 79 14.5t48 36.5q14 20 20.5 58.5t6.5 66.5q0 47 -14.5 74t-26.5 39t-31.5 22.5t-50.5 19.5t-73 19.5t-101 24.5l-188 43q-61 14 -105.5 30.5t-73 33t-46 32t-25.5 25.5q-35 41 -47.5 88 t-12.5 92z"/>
<glyph unicode="t" horiz-adv-x="567" d="M20 989v96h150v349h106v-349h299v-96h-299v-602v-74q0 -39 5.5 -75.5t18.5 -66.5t38 -48q18 -12 59 -19.5t133 -7.5h58v-96h-82h-71q-36 0 -69.5 6t-65.5 19.5t-56 37.5q-51 49 -62.5 126t-11.5 176v624h-150z"/>
<glyph unicode="u" horiz-adv-x="1069" d="M102 328v757h107v-725q0 -86 13.5 -128t29.5 -64q35 -47 92 -59.5t123 -12.5h301q20 0 39.5 5t32.5 18q16 16 18 35.5t2 31.5v899h107v-913q0 -33 -8.5 -72t-43.5 -67q-31 -25 -74.5 -29t-88.5 -4h-295q-86 0 -148.5 13.5t-115.5 60.5q-33 29 -50.5 62.5t-27 67.5 t-11.5 65.5t-2 58.5z"/>
<glyph unicode="v" horiz-adv-x="937" d="M-20 1085h108l350 -946q4 -10 13.5 -27.5t17.5 -17.5t17.5 17.5t13.5 27.5l350 946h108l-376 -1003q-23 -59 -52.5 -76.5t-60.5 -17.5t-60.5 17.5t-52.5 76.5z"/>
<glyph unicode="w" horiz-adv-x="1404" d="M-20 1085h106l244 -958q4 -10 9 -21.5t13 -11.5q10 0 14.5 13.5t6.5 17.5l231 883q16 57 45 73.5t53 16.5q25 0 53.5 -16.5t45.5 -73.5l231 -883q2 -4 6 -17.5t15 -13.5q8 0 13 11.5t9 21.5l244 958h106l-266 -1007q-10 -35 -31.5 -62.5t-72.5 -27.5q-31 0 -50.5 10 t-31.5 24.5t-19.5 30t-9.5 27.5l-225 848q-2 10 -6 23.5t-11 13.5q-6 0 -10 -13.5t-6 -23.5l-225 -848q-4 -12 -10.5 -27.5t-18.5 -30t-31.5 -24.5t-50.5 -10q-51 0 -72.5 27.5t-31.5 62.5z"/>
<glyph unicode="x" horiz-adv-x="880" d="M-20 0l403 557l-385 528h125l317 -448l318 448h125l-383 -528l401 -557h-129l-332 477l-331 -477h-129z"/>
<glyph unicode="y" horiz-adv-x="1017" d="M-20 1085h114l402 -952l428 952h114l-649 -1435h-115l164 356z"/>
<glyph unicode="z" horiz-adv-x="903" d="M41 92q0 35 18.5 64.5t34.5 48.5l627 735q6 8 13 14.5t7 16.5q0 12 -7 15t-17 3h-645v96h694q45 0 67.5 -28.5t22.5 -59.5q0 -18 -9 -44.5t-22 -43.5l-653 -774q-4 -6 -10 -12t-6 -17q0 -10 6 -10h12h688v-96h-688q-18 0 -41.5 3t-43 12.5t-34 27.5t-14.5 49z"/>
<glyph unicode="{" horiz-adv-x="606" d="M102 543v78q41 4 74 28.5t33 77.5v260q0 12 1 33l2 41q1 20 2 37.5t1 25.5q2 31 11.5 67t26.5 71.5t46 69.5t72 63q47 29 90 39t84 8v-94q-47 4 -82 -9.5t-60 -33.5q-35 -27 -53 -62t-26.5 -70.5t-10.5 -70.5t-2 -62v-282q0 -23 -2 -48.5t-9 -48t-23.5 -42t-45.5 -29.5 v-17q29 -10 45.5 -29.5t23.5 -42t9 -48t2 -47.5v-283q0 -27 2 -61.5t10.5 -70.5t27 -71t52.5 -61q25 -20 60 -33.5t82 -9.5v-95q-41 -2 -84 8.5t-90 39.5q-43 27 -72 61.5t-46 70.5t-26.5 71.5t-11.5 66.5q0 8 -1 25.5t-2 37.5l-2 41q-1 20 -1 33v260q0 53 -33 78t-74 29z "/>
<glyph unicode="|" horiz-adv-x="307" d="M102 -334v1850h103v-1850h-103z"/>
<glyph unicode="}" horiz-adv-x="606" d="M61 -184q47 -4 82 9t60 34q33 27 52 61.5t27.5 70.5t10.5 70.5t2 61.5v283q0 23 1 48t9 47.5t24.5 42t45.5 29.5v17q-29 10 -45.5 29.5t-24.5 42t-9 48t-1 48.5v282q0 27 -2 62t-10.5 70.5t-27.5 70.5t-52 62q-25 20 -59.5 33.5t-82.5 9.5v94q41 2 84 -8.5t91 -38.5 q43 -29 71.5 -63t46 -69.5t25.5 -71.5t12 -67q0 -8 1 -25.5t2 -37.5l2 -41q1 -20 1 -33v-260q0 -53 33 -77.5t74 -28.5v-78q-41 -4 -74 -29t-33 -78v-260q0 -12 -1 -33l-2 -41q-1 -20 -2 -37.5t-1 -25.5q-4 -31 -12 -66.5t-25.5 -71.5t-46 -71t-71.5 -61 q-47 -29 -90.5 -39.5t-84.5 -8.5v95z"/>
<glyph unicode="~" horiz-adv-x="1091" d="M61 649q23 31 54.5 65t66.5 56q35 23 77 37t91 14q53 0 89 -12t63 -29l110 -65q29 -16 62 -30.5t78 -14.5q66 0 118 43q25 18 48.5 45.5t39.5 56.5l72 -63q-23 -35 -53.5 -69t-65.5 -58q-41 -29 -80.5 -41.5t-89.5 -12.5q-47 0 -79.5 10.5t-71.5 32.5l-92 54 q-31 16 -69 35.5t-85 19.5q-8 0 -36.5 -4t-63.5 -25q-35 -18 -63.5 -50t-47.5 -60z"/>
<glyph unicode="§" horiz-adv-x="991" d="M102 600q0 84 32 133t63 74q43 35 106.5 55.5t128.5 20.5l-141 121q-35 31 -70 77.5t-35 122.5q0 49 18.5 92t49.5 72q23 23 68 44.5t116 21.5h355v-99h-361q-59 0 -95 -36.5t-36 -94.5q0 -29 12.5 -63.5t42.5 -61.5l418 -354q59 -49 87 -114.5t28 -129.5q0 -84 -36 -134 t-87 -79q-43 -25 -104.5 -37t-120.5 -10l131 -110q23 -18 45 -40t40.5 -49.5t30 -61.5t11.5 -77q0 -66 -31 -117t-74 -79q-47 -29 -102 -36t-103 -7h-288v98h313q10 0 38 2t57.5 16.5t52 43t22.5 81.5q0 49 -18.5 82t-49.5 60l-413 350q-47 41 -74 93t-27 130zM217 592 q0 -94 64 -150l168 -143q41 0 92 5t88 15q29 8 55.5 21.5t46 35t31.5 55.5t12 81q0 82 -61 135l-172 146h-33q-25 0 -56.5 -3.5t-66.5 -9.5t-61 -18q-59 -27 -83 -69t-24 -101z"/>
<glyph unicode="©" horiz-adv-x="1708" d="M102 719q0 80 8.5 168t35 173t76.5 160.5t136 129.5q51 33 112.5 52t126.5 30.5t130.5 14.5t126.5 3t127 -3t130.5 -14.5t124.5 -31t114 -51.5q86 -53 136 -129t76.5 -161t35 -173t8.5 -168q0 -90 -9.5 -180t-36 -173t-77.5 -155t-133 -125q-111 -72 -238 -87t-258 -15 t-258 15t-238 87q-84 53 -134 125t-76.5 155t-36 173t-9.5 180zM221 719q0 -55 4 -128t23.5 -148.5t57.5 -145.5t106 -119q47 -35 105 -54.5t117.5 -28.5t116 -11t103.5 -2q45 0 102.5 2t117 11t117.5 28.5t105 54.5q68 49 106 119t57.5 145.5t23.5 148.5t4 128 q0 70 -6 145.5t-26.5 147t-58.5 134t-100 107.5q-12 8 -41.5 25.5t-82 33t-131 28t-187.5 12.5t-187.5 -12.5t-131 -28t-82 -32.5t-41.5 -26q-61 -45 -99.5 -107.5t-59 -134t-26.5 -147t-6 -145.5zM430 715q0 66 10.5 146.5t61.5 148.5q31 39 65.5 62.5t70.5 36.5t73 17 t69 4h361v-98h-361q-43 0 -73.5 -11t-54 -27.5t-38 -35t-22.5 -32.5q-23 -41 -33 -107.5t-10 -130.5q0 -45 8 -98t29 -92q33 -59 79 -77t99 -18h401v-98h-407q-72 0 -137.5 22.5t-120.5 100.5q-47 66 -58.5 135.5t-11.5 151.5z"/>
<glyph unicode="ª" horiz-adv-x="1034" d="M61 336q0 66 15.5 136.5t75.5 119.5q45 37 100 47t102 10h471v162q0 27 -10 65.5t-31 63.5q-16 20 -45.5 34.5t-68.5 14.5h-527v96h533q55 0 106.5 -20.5t83.5 -54.5q43 -47 54.5 -107.5t11.5 -109.5v-650q0 -23 -5 -55.5t-32 -56.5q-25 -23 -59.5 -27t-63.5 -4h-418 q-47 0 -99 7t-97 42q-35 27 -53.5 67t-28.5 80t-12.5 77.5t-2.5 62.5zM176 332q0 -49 7 -101.5t36 -87.5q16 -20 44 -33.5t63 -13.5h438q10 0 23.5 1t23.5 12q10 10 12 18t2 18v408h-495q-47 0 -77 -18.5t-42 -34.5q-20 -27 -27.5 -69t-7.5 -99z"/>
<glyph unicode="«" horiz-adv-x="815" d="M102 575q0 33 9.5 52.5t21.5 38.5l268 393l88 -60l-253 -366q-8 -12 -15.5 -26.5t-7.5 -31.5q0 -16 7 -30.5t16 -26.5l253 -366l-88 -60l-268 393q-12 18 -21.5 37.5t-9.5 52.5zM403 575q0 20 11.5 45t25.5 46l187 272l86 -59l-166 -238q-4 -6 -18.5 -28.5t-14.5 -37.5 q0 -10 7 -24t26 -41l166 -238l-86 -59l-187 272q-14 20 -25.5 45t-11.5 45z"/>
<glyph unicode="¬" horiz-adv-x="1159" d="M143 586v98h873v-504h-103v406h-770z"/>
<glyph unicode="­" horiz-adv-x="819" d="M102 496v118h615v-118h-615z"/>
<glyph unicode="®" horiz-adv-x="1118" d="M102 1014q0 45 4.5 94t16.5 95t36.5 88t65.5 77q39 33 83 49.5t88 22.5t86 6h77h77q42 0 86 -6t88 -22.5t83 -49.5q41 -35 65.5 -77t37 -88t16.5 -95t4 -94q0 -47 -4 -95.5t-16.5 -94.5t-37 -88t-65.5 -77q-39 -33 -83 -49t-88 -22t-86 -6h-77h-77q-42 0 -86 6t-88 22.5 t-83 48.5q-41 35 -65.5 77t-36.5 88t-16.5 94.5t-4.5 95.5zM184 1014q0 -23 1 -55.5t7.5 -68.5t18.5 -72t35 -64q31 -43 68.5 -63.5t79.5 -30t84 -9.5h81h81q42 0 84 9.5t80 30t68 63.5q20 29 33 64.5t19 71.5t8 68.5t2 55.5t-2 55.5t-8 68.5t-18.5 71.5t-33.5 64.5 q-31 43 -68.5 63.5t-79.5 29.5t-84 9h-81h-81q-42 0 -84 -9t-80 -29.5t-68 -63.5q-23 -29 -35 -64.5t-18.5 -71.5t-7.5 -68.5t-1 -55.5zM344 764v428q0 12 2 25.5t12 23.5t26.5 15.5t47.5 5.5h203q27 0 51.5 -2.5t44.5 -18.5q31 -23 39 -64.5t8 -74.5q0 -53 -11 -83 t-28.5 -44t-36 -18.5t-32.5 -4.5h-52l187 -188h-111l-166 168q-10 10 -17 19.5t-7 31.5q0 29 15.5 33t27.5 4h71q6 0 29 2t29 6q16 12 16 33v72q0 20 -12 36q-10 14 -26.5 17.5t-26.5 3.5h-166q-6 0 -15.5 -1t-13.5 -3q-4 -4 -5 -16.5t-1 -16.5v-389h-82z"/>
<glyph unicode="°" horiz-adv-x="655" d="M102 1380q0 45 17.5 86t48.5 72t72 49.5t88 18.5q45 0 86 -18.5t71.5 -49.5t49 -72t18.5 -86q0 -47 -18.5 -88t-49 -71.5t-71.5 -48t-86 -17.5q-47 0 -88 17.5t-72 48t-48.5 71.5t-17.5 88zM184 1380q0 -59 42 -101t102 -42q59 0 101 42t42 101t-42 101.5t-101 42.5 t-101.5 -42.5t-42.5 -101.5z"/>
<glyph unicode="±" horiz-adv-x="1159" d="M143 102v99h873v-99h-873zM143 668v98h381v381h111v-381h381v-98h-381v-381h-111v381h-381z"/>
<glyph unicode="µ" horiz-adv-x="1069" d="M102 -365v1450h107v-716q0 -51 24.5 -103.5t59.5 -89.5q39 -41 98.5 -66.5t136.5 -25.5q63 0 121 19.5t111 68.5q41 37 70.5 86t29.5 104v723h107v-1085h-107v147q-39 -53 -84 -84.5t-90 -48t-86 -21.5t-74 -5q-31 0 -70.5 4t-81.5 19.5t-84 43t-81 76.5v-496h-107z"/>
<glyph unicode="μ" horiz-adv-x="1069" d="M102 -365v1450h107v-716q0 -51 24.5 -103.5t59.5 -89.5q39 -41 98.5 -66.5t136.5 -25.5q63 0 121 19.5t111 68.5q41 37 70.5 86t29.5 104v723h107v-1085h-107v147q-39 -53 -84 -84.5t-90 -48t-86 -21.5t-74 -5q-31 0 -70.5 4t-81.5 19.5t-84 43t-81 76.5v-496h-107z"/>
<glyph unicode="¶" horiz-adv-x="1105" d="M102 1006q0 43 4.5 91t18.5 95t39.5 90t66.5 78q55 47 116 60.5t112 13.5h585v-97h-110v-1685h-107v1685h-106v-1685h-107v942h-196q-90 0 -151.5 40t-94.5 87q-25 35 -38 75t-20.5 78.5t-9.5 73.5t-2 58zM213 1014q0 -53 8 -115.5t33 -105.5q20 -35 46 -56.5t53.5 -32 t56 -13.5t55.5 -3h149v649h-165q-43 0 -88.5 -13t-86.5 -64q-20 -27 -32.5 -60t-18.5 -66.5t-8 -65t-2 -54.5z"/>
<glyph unicode="·" horiz-adv-x="327" d="M102 512v178h123v-178h-123z"/>
<glyph unicode="∙" horiz-adv-x="327" d="M102 512v178h123v-178h-123z"/>
<glyph unicode="º" horiz-adv-x="1196" d="M61 549q0 45 4.5 101.5t18.5 114.5t41 114.5t72 99.5q39 39 88 62.5t101 36t106.5 16.5t105.5 4t105.5 -4t106.5 -16.5t100 -36t89 -62.5q45 -43 72 -99.5t41 -114.5t18.5 -114.5t4.5 -101.5q0 -176 -42 -281.5t-94 -156.5q-45 -43 -99 -68t-109.5 -37t-105.5 -15t-87 -3 t-87 3t-105.5 15t-109.5 37t-99 68q-53 51 -94.5 156.5t-41.5 281.5zM176 539q0 -33 1 -78t9.5 -93.5t25.5 -95.5t52 -84q33 -35 73 -56t85 -31.5t90 -13.5t86 -3t86 3t90 13.5t85 32t73 55.5q33 37 51 84t26.5 95.5t9.5 93.5t1 78q0 35 -1 83t-9.5 98t-25.5 97t-50 84 q-31 35 -73 54.5t-88 29.5t-91 13t-84 3t-84 -3t-91 -13t-88 -29.5t-73 -54.5q-33 -37 -50 -84t-25.5 -97t-9.5 -98t-1 -83z"/>
<glyph unicode="»" horiz-adv-x="815" d="M102 272l166 238q18 27 25.5 41t7.5 24q0 14 -14.5 37t-18.5 29l-166 238l86 59l187 -272q14 -20 25.5 -45t11.5 -46q0 -20 -11.5 -44.5t-25.5 -45.5l-187 -272zM326 152l254 366q8 12 15 26.5t7 30.5t-7 31t-15 27l-254 366l88 60l268 -393q12 -18 21.5 -38t9.5 -53 t-9.5 -52t-21.5 -38l-268 -393z"/>
<glyph unicode="À" horiz-adv-x="1376" d="M436 1778l64 80l252 -205l-64 -80zM-20 0l548 1298q12 29 26.5 56.5t33 49t43 34t57.5 12.5q63 0 99 -47t61 -105l549 -1298h-119l-174 418h-832l-174 -418h-118zM315 516h746l-313 750q-10 23 -23.5 52.5t-36.5 29.5t-36 -30t-23 -52z"/>
<glyph unicode="Â" horiz-adv-x="1376" d="M286 1644l322 275q14 12 33.5 23.5t46.5 11.5t46 -11.5t34 -23.5l321 -275l-57 -71l-301 264q-8 6 -18.5 12t-24.5 6t-24.5 -6t-18.5 -12l-301 -264zM-20 0l548 1298q12 29 26.5 56.5t33 49t43 34t57.5 12.5q63 0 99 -47t61 -105l549 -1298h-119l-174 418h-832l-174 -418 h-118zM315 516h746l-313 750q-10 23 -23.5 52.5t-36.5 29.5t-36 -30t-23 -52z"/>
<glyph unicode="Ã" horiz-adv-x="1376" d="M204 1650q23 31 54.5 65t66.5 56q35 23 77 37t91 14q53 0 89 -12t63 -29l110 -65q29 -16 62 -30.5t78 -14.5q66 0 118 43q25 18 48.5 45.5t39.5 56.5l72 -63q-23 -35 -53.5 -69t-65.5 -58q-41 -29 -80.5 -41.5t-89.5 -12.5q-47 0 -79.5 10.5t-71.5 32.5l-92 54 q-31 16 -69 35.5t-85 19.5q-8 0 -36.5 -4t-63.5 -25q-35 -18 -63.5 -50t-47.5 -60zM-20 0l548 1298q12 29 26.5 56.5t33 49t43 34t57.5 12.5q63 0 99 -47t61 -105l549 -1298h-119l-174 418h-832l-174 -418h-118zM315 516h746l-313 750q-10 23 -23.5 52.5t-36.5 29.5t-36 -30 t-23 -52z"/>
<glyph unicode="Å" horiz-adv-x="1376" d="M462 1661q0 45 17.5 86t48.5 72t72 49.5t88 18.5q45 0 86 -18.5t71.5 -49.5t49 -72t18.5 -86q0 -47 -18.5 -88t-49 -71.5t-71.5 -48t-86 -17.5q-47 0 -88 17.5t-72 48t-48.5 71.5t-17.5 88zM544 1661q0 -59 42 -101t102 -42q59 0 101 42t42 101t-42 101.5t-101 42.5 t-101.5 -42.5t-42.5 -101.5zM-20 0l548 1298q12 29 26.5 56.5t33 49t43 34t57.5 12.5q63 0 99 -47t61 -105l549 -1298h-119l-174 418h-832l-174 -418h-118zM315 516h746l-313 750q-10 23 -23.5 52.5t-36.5 29.5t-36 -30t-23 -52z"/>
<glyph unicode="È" horiz-adv-x="1269" d="M503 1778l64 80l252 -205l-64 -80zM143 199v1044q0 63 16.5 95t24.5 42q31 37 70 45.5t80 8.5h846v-99h-830q-16 0 -39.5 -5t-34.5 -15q-16 -14 -19 -38t-3 -34v-461h905v-98h-905v-510q0 -12 5 -29.5t15 -27.5t42 -14.5t51 -4.5h821v-98h-850q-37 0 -76 4t-74 39 q-33 33 -39 74t-6 82z"/>
<glyph unicode="Ê" horiz-adv-x="1269" d="M356 1644l322 275q14 12 33.5 23.5t46.5 11.5t46 -11.5t34 -23.5l321 -275l-57 -71l-301 264q-8 6 -18.5 12t-24.5 6t-24.5 -6t-18.5 -12l-301 -264zM143 199v1044q0 63 16.5 95t24.5 42q31 37 70 45.5t80 8.5h846v-99h-830q-16 0 -39.5 -5t-34.5 -15q-16 -14 -19 -38 t-3 -34v-461h905v-98h-905v-510q0 -12 5 -29.5t15 -27.5t42 -14.5t51 -4.5h821v-98h-850q-37 0 -76 4t-74 39q-33 33 -39 74t-6 82z"/>
<glyph unicode="Ì" horiz-adv-x="397" d="M-54 1778l64 80l252 -205l-64 -80zM143 0v1434h111v-1434h-111z"/>
<glyph unicode="Î" horiz-adv-x="397" d="M-203 1644l322 275q14 12 33.5 23.5t46.5 11.5t46 -11.5t34 -23.5l321 -275l-57 -71l-301 264q-8 6 -18.5 12t-24.5 6t-24.5 -6t-18.5 -12l-301 -264zM143 0v1434h111v-1434h-111z"/>
<glyph unicode="Ñ" horiz-adv-x="1499" d="M-205 1650q23 31 54.5 65t66.5 56q35 23 77 37t91 14q53 0 89 -12t63 -29l110 -65q29 -16 62 -30.5t78 -14.5q66 0 118 43q25 18 48.5 45.5t39.5 56.5l72 -63q-23 -35 -53.5 -69t-65.5 -58q-41 -29 -80.5 -41.5t-89.5 -12.5q-47 0 -79.5 10.5t-71.5 32.5l-92 54 q-31 16 -69 35.5t-85 19.5q-8 0 -36.5 -4t-63.5 -25q-35 -18 -63.5 -50t-47.5 -60zM143 0v1305q0 53 17.5 82.5t41 43t45 16.5t32.5 3q59 0 88.5 -29.5t52.5 -66.5l754 -1217q8 -12 17 -24.5t28 -12.5q20 0 23 13.5t3 23.5v1297h111v-1291q0 -72 -33 -115.5t-98 -43.5 q-49 0 -79 24.5t-65 79.5l-749 1210q-6 10 -18.5 22.5t-28.5 12.5q-4 0 -17.5 -7t-13.5 -34v-1292h-111z"/>
<glyph unicode="Ò" horiz-adv-x="1593" d="M544 1778l64 80l252 -205l-64 -80zM102 717q0 61 4.5 137t20.5 153.5t50 151.5t95 135q55 55 122 86t136.5 46.5t138 19.5t128.5 4q59 0 127.5 -4t138.5 -19.5t136.5 -46t121.5 -86.5q61 -61 95 -135t50.5 -151.5t20.5 -153.5t4 -137t-4 -137t-20.5 -154t-50.5 -151.5 t-95 -135.5q-55 -55 -121.5 -87t-136.5 -47t-138.5 -18t-127.5 -3t-128 3t-138.5 18t-136 47t-122.5 87q-61 61 -95 135t-50 152t-20.5 154t-4.5 137zM221 717q0 -61 2 -129t14.5 -132.5t37 -126t69.5 -110.5q45 -51 102.5 -78.5t118 -41t120.5 -15.5t112 -2q51 0 111.5 2 t121 15.5t116.5 41t103 78.5q45 49 69.5 110.5t37 126t14.5 132t2 129.5q0 61 -2 128.5t-14.5 132t-37 126t-69.5 110.5q-47 51 -103 79t-116.5 41.5t-121 15.5t-111.5 2t-111.5 -2t-121 -15.5t-118 -41t-102.5 -79.5q-45 -49 -69.5 -110.5t-37 -126t-14.5 -132t-2 -128.5z "/>
<glyph unicode="Ô" horiz-adv-x="1593" d="M395 1644l322 275q14 12 33.5 23.5t46.5 11.5t46 -11.5t34 -23.5l321 -275l-57 -71l-301 264q-8 6 -18.5 12t-24.5 6t-24.5 -6t-18.5 -12l-301 -264zM102 717q0 61 4.5 137t20.5 153.5t50 151.5t95 135q55 55 122 86t136.5 46.5t138 19.5t128.5 4q59 0 127.5 -4 t138.5 -19.5t136.5 -46t121.5 -86.5q61 -61 95 -135t50.5 -151.5t20.5 -153.5t4 -137t-4 -137t-20.5 -154t-50.5 -151.5t-95 -135.5q-55 -55 -121.5 -87t-136.5 -47t-138.5 -18t-127.5 -3t-128 3t-138.5 18t-136 47t-122.5 87q-61 61 -95 135t-50 152t-20.5 154t-4.5 137z M221 717q0 -61 2 -129t14.5 -132.5t37 -126t69.5 -110.5q45 -51 102.5 -78.5t118 -41t120.5 -15.5t112 -2q51 0 111.5 2t121 15.5t116.5 41t103 78.5q45 49 69.5 110.5t37 126t14.5 132t2 129.5q0 61 -2 128.5t-14.5 132t-37 126t-69.5 110.5q-47 51 -103 79t-116.5 41.5 t-121 15.5t-111.5 2t-111.5 -2t-121 -15.5t-118 -41t-102.5 -79.5q-45 -49 -69.5 -110.5t-37 -126t-14.5 -132t-2 -128.5z"/>
<glyph unicode="Õ" horiz-adv-x="1593" d="M311 1650q23 31 54.5 65t66.5 56q35 23 77 37t91 14q53 0 89 -12t63 -29l110 -65q29 -16 62 -30.5t78 -14.5q66 0 118 43q25 18 48.5 45.5t39.5 56.5l72 -63q-23 -35 -53.5 -69t-65.5 -58q-41 -29 -80.5 -41.5t-89.5 -12.5q-47 0 -79.5 10.5t-71.5 32.5l-92 54 q-31 16 -69 35.5t-85 19.5q-8 0 -36.5 -4t-63.5 -25q-35 -18 -63.5 -50t-47.5 -60zM102 717q0 61 4.5 137t20.5 153.5t50 151.5t95 135q55 55 122 86t136.5 46.5t138 19.5t128.5 4q59 0 127.5 -4t138.5 -19.5t136.5 -46t121.5 -86.5q61 -61 95 -135t50.5 -151.5t20.5 -153.5 t4 -137t-4 -137t-20.5 -154t-50.5 -151.5t-95 -135.5q-55 -55 -121.5 -87t-136.5 -47t-138.5 -18t-127.5 -3t-128 3t-138.5 18t-136 47t-122.5 87q-61 61 -95 135t-50 152t-20.5 154t-4.5 137zM221 717q0 -61 2 -129t14.5 -132.5t37 -126t69.5 -110.5q45 -51 102.5 -78.5 t118 -41t120.5 -15.5t112 -2q51 0 111.5 2t121 15.5t116.5 41t103 78.5q45 49 69.5 110.5t37 126t14.5 132t2 129.5q0 61 -2 128.5t-14.5 132t-37 126t-69.5 110.5q-47 51 -103 79t-116.5 41.5t-121 15.5t-111.5 2t-111.5 -2t-121 -15.5t-118 -41t-102.5 -79.5 q-45 -49 -69.5 -110.5t-37 -126t-14.5 -132t-2 -128.5z"/>
<glyph unicode="Ù" horiz-adv-x="1384" d="M440 1778l64 80l252 -205l-64 -80zM143 446v988h111v-949q0 -33 1 -70.5t8 -76.5t22.5 -76t42.5 -67q33 -39 75.5 -61.5t91 -34t99.5 -14.5t98 -3t98.5 3t99.5 14.5t91 34t76 61.5q27 31 42 67.5t22 75.5t8 77t1 70v949h111v-988q0 -76 -19.5 -160.5t-82.5 -156.5 q-47 -51 -106.5 -80t-121 -43t-119 -18t-100.5 -4t-101.5 4t-119.5 18t-120.5 43t-104.5 80q-33 37 -52.5 77t-30.5 81t-15.5 81.5t-4.5 77.5z"/>
<glyph unicode="Û" horiz-adv-x="1384" d="M290 1644l322 275q14 12 33.5 23.5t46.5 11.5t46 -11.5t34 -23.5l321 -275l-57 -71l-301 264q-8 6 -18.5 12t-24.5 6t-24.5 -6t-18.5 -12l-301 -264zM143 446v988h111v-949q0 -33 1 -70.5t8 -76.5t22.5 -76t42.5 -67q33 -39 75.5 -61.5t91 -34t99.5 -14.5t98 -3t98.5 3 t99.5 14.5t91 34t76 61.5q27 31 42 67.5t22 75.5t8 77t1 70v949h111v-988q0 -76 -19.5 -160.5t-82.5 -156.5q-47 -51 -106.5 -80t-121 -43t-119 -18t-100.5 -4t-101.5 4t-119.5 18t-120.5 43t-104.5 80q-33 37 -52.5 77t-30.5 81t-15.5 81.5t-4.5 77.5z"/>
<glyph unicode="à" horiz-adv-x="1034" d="M157 1426l64 80l252 -205l-64 -80zM61 336q0 66 15.5 136.5t75.5 119.5q45 37 100 47t102 10h471v162q0 27 -10 65.5t-31 63.5q-16 20 -45.5 34.5t-68.5 14.5h-527v96h533q55 0 106.5 -20.5t83.5 -54.5q43 -47 54.5 -107.5t11.5 -109.5v-650q0 -23 -5 -55.5t-32 -56.5 q-25 -23 -59.5 -27t-63.5 -4h-418q-47 0 -99 7t-97 42q-35 27 -53.5 67t-28.5 80t-12.5 77.5t-2.5 62.5zM176 332q0 -49 7 -101.5t36 -87.5q16 -20 44 -33.5t63 -13.5h438q10 0 23.5 1t23.5 12q10 10 12 18t2 18v408h-495q-47 0 -77 -18.5t-42 -34.5q-20 -27 -27.5 -69 t-7.5 -99z"/>
<glyph unicode="â" horiz-adv-x="1034" d="M8 1292l322 275q14 12 33.5 23.5t46.5 11.5t46 -11.5t34 -23.5l321 -275l-57 -71l-301 264q-8 6 -18.5 12t-24.5 6t-24.5 -6t-18.5 -12l-301 -264zM61 336q0 66 15.5 136.5t75.5 119.5q45 37 100 47t102 10h471v162q0 27 -10 65.5t-31 63.5q-16 20 -45.5 34.5t-68.5 14.5 h-527v96h533q55 0 106.5 -20.5t83.5 -54.5q43 -47 54.5 -107.5t11.5 -109.5v-650q0 -23 -5 -55.5t-32 -56.5q-25 -23 -59.5 -27t-63.5 -4h-418q-47 0 -99 7t-97 42q-35 27 -53.5 67t-28.5 80t-12.5 77.5t-2.5 62.5zM176 332q0 -49 7 -101.5t36 -87.5q16 -20 44 -33.5 t63 -13.5h438q10 0 23.5 1t23.5 12q10 10 12 18t2 18v408h-495q-47 0 -77 -18.5t-42 -34.5q-20 -27 -27.5 -69t-7.5 -99z"/>
<glyph unicode="ã" horiz-adv-x="1034" d="M-74 1298q23 31 54.5 65t66.5 56q35 23 77 37t91 14q53 0 89 -12t63 -29l110 -65q29 -16 62 -30.5t78 -14.5q66 0 118 43q25 18 48.5 45.5t39.5 56.5l72 -63q-23 -35 -53.5 -69t-65.5 -58q-41 -29 -80.5 -41.5t-89.5 -12.5q-47 0 -79.5 10.5t-71.5 32.5l-92 54 q-31 16 -69 35.5t-85 19.5q-8 0 -36.5 -4t-63.5 -25q-35 -18 -63.5 -50t-47.5 -60zM61 336q0 66 15.5 136.5t75.5 119.5q45 37 100 47t102 10h471v162q0 27 -10 65.5t-31 63.5q-16 20 -45.5 34.5t-68.5 14.5h-527v96h533q55 0 106.5 -20.5t83.5 -54.5q43 -47 54.5 -107.5 t11.5 -109.5v-650q0 -23 -5 -55.5t-32 -56.5q-25 -23 -59.5 -27t-63.5 -4h-418q-47 0 -99 7t-97 42q-35 27 -53.5 67t-28.5 80t-12.5 77.5t-2.5 62.5zM176 332q0 -49 7 -101.5t36 -87.5q16 -20 44 -33.5t63 -13.5h438q10 0 23.5 1t23.5 12q10 10 12 18t2 18v408h-495 q-47 0 -77 -18.5t-42 -34.5q-20 -27 -27.5 -69t-7.5 -99z"/>
<glyph unicode="å" horiz-adv-x="1034" d="M184 1446q0 45 17.5 86t48.5 72t72 49.5t88 18.5q45 0 86 -18.5t71.5 -49.5t49 -72t18.5 -86q0 -47 -18.5 -88t-49 -71.5t-71.5 -48t-86 -17.5q-47 0 -88 17.5t-72 48t-48.5 71.5t-17.5 88zM266 1446q0 -59 42 -101t102 -42q59 0 101 42t42 101t-42 101.5t-101 42.5 t-101.5 -42.5t-42.5 -101.5zM61 336q0 66 15.5 136.5t75.5 119.5q45 37 100 47t102 10h471v162q0 27 -10 65.5t-31 63.5q-16 20 -45.5 34.5t-68.5 14.5h-527v96h533q55 0 106.5 -20.5t83.5 -54.5q43 -47 54.5 -107.5t11.5 -109.5v-650q0 -23 -5 -55.5t-32 -56.5 q-25 -23 -59.5 -27t-63.5 -4h-418q-47 0 -99 7t-97 42q-35 27 -53.5 67t-28.5 80t-12.5 77.5t-2.5 62.5zM176 332q0 -49 7 -101.5t36 -87.5q16 -20 44 -33.5t63 -13.5h438q10 0 23.5 1t23.5 12q10 10 12 18t2 18v408h-495q-47 0 -77 -18.5t-42 -34.5q-20 -27 -27.5 -69 t-7.5 -99z"/>
<glyph unicode="è" horiz-adv-x="1058" d="M294 1426l64 80l252 -205l-64 -80zM61 539q0 57 3.5 118.5t17.5 121t44 113.5t81 97q74 61 166 78.5t174 17.5q57 0 134 -11t142 -50q16 -10 45 -32.5t57.5 -63.5t50 -101.5t21.5 -146.5q0 -12 -1 -30.5t-5 -38t-13 -39t-26 -33.5q-25 -23 -58.5 -28t-55.5 -5h-662 q-1 -16 -1 -34q0 -35 3 -79q4 -66 17 -108q8 -33 27.5 -67t49 -60.5t70.5 -44t94 -17.5h533v-96h-533q-33 0 -69.5 5t-74.5 19.5t-75 41t-67 67.5q-63 82 -76 183.5t-13 222.5zM176 602h662q18 0 27 9.5t13.5 21.5t4.5 23v18q0 80 -22.5 134t-51.5 87q-29 35 -62.5 53.5 t-70.5 27.5t-74 11t-74 2q-41 0 -81.5 -3t-80.5 -15.5t-75 -39t-64 -73.5q-33 -53 -41 -114.5t-10 -141.5z"/>
<glyph unicode="ê" horiz-adv-x="1058" d="M145 1292l322 275q14 12 33.5 23.5t46.5 11.5t46 -11.5t34 -23.5l321 -275l-57 -71l-301 264q-8 6 -18.5 12t-24.5 6t-24.5 -6t-18.5 -12l-301 -264zM61 539q0 57 3.5 118.5t17.5 121t44 113.5t81 97q74 61 166 78.5t174 17.5q57 0 134 -11t142 -50q16 -10 45 -32.5 t57.5 -63.5t50 -101.5t21.5 -146.5q0 -12 -1 -30.5t-5 -38t-13 -39t-26 -33.5q-25 -23 -58.5 -28t-55.5 -5h-662q-1 -16 -1 -34q0 -35 3 -79q4 -66 17 -108q8 -33 27.5 -67t49 -60.5t70.5 -44t94 -17.5h533v-96h-533q-33 0 -69.5 5t-74.5 19.5t-75 41t-67 67.5 q-63 82 -76 183.5t-13 222.5zM176 602h662q18 0 27 9.5t13.5 21.5t4.5 23v18q0 80 -22.5 134t-51.5 87q-29 35 -62.5 53.5t-70.5 27.5t-74 11t-74 2q-41 0 -81.5 -3t-80.5 -15.5t-75 -39t-64 -73.5q-33 -53 -41 -114.5t-10 -141.5z"/>
<glyph unicode="ì" horiz-adv-x="319" d="M-93 1762l64 80l252 -205l-64 -80zM102 1282v152h115v-152h-115zM106 0v1085h107v-1085h-107z"/>
<glyph unicode="î" horiz-adv-x="319" d="M-242 1628l322 275q14 12 33.5 23.5t46.5 11.5t46 -11.5t34 -23.5l321 -275l-57 -71l-301 264q-8 6 -18.5 12t-24.5 6t-24.5 -6t-18.5 -12l-301 -264zM102 1282v152h115v-152h-115zM106 0v1085h107v-1085h-107z"/>
<glyph unicode="ñ" horiz-adv-x="1060" d="M45 1298q23 31 54.5 65t66.5 56q35 23 77 37t91 14q53 0 89 -12t63 -29l110 -65q29 -16 62 -30.5t78 -14.5q66 0 118 43q25 18 48.5 45.5t39.5 56.5l72 -63q-23 -35 -53.5 -69t-65.5 -58q-41 -29 -80.5 -41.5t-89.5 -12.5q-47 0 -79.5 10.5t-71.5 32.5l-92 54 q-31 16 -69 35.5t-85 19.5q-8 0 -36.5 -4t-63.5 -25q-35 -18 -63.5 -50t-47.5 -60zM102 0v944q0 23 4.5 50.5t20.5 49.5q23 29 52.5 35t53.5 6h390q78 0 140 -15t111 -64q25 -25 54.5 -82.5t29.5 -169.5v-754h-106v727q0 70 -9 115t-38 80q-35 43 -79 55t-97 12h-385 q-8 0 -16.5 -1t-12.5 -7t-5 -16.5t-1 -16.5v-948h-107z"/>
<glyph unicode="ò" horiz-adv-x="1196" d="M346 1426l64 80l252 -205l-64 -80zM61 549q0 45 4.5 101.5t18.5 114.5t41 114.5t72 99.5q39 39 88 62.5t101 36t106.5 16.5t105.5 4t105.5 -4t106.5 -16.5t100 -36t89 -62.5q45 -43 72 -99.5t41 -114.5t18.5 -114.5t4.5 -101.5q0 -176 -42 -281.5t-94 -156.5 q-45 -43 -99 -68t-109.5 -37t-105.5 -15t-87 -3t-87 3t-105.5 15t-109.5 37t-99 68q-53 51 -94.5 156.5t-41.5 281.5zM176 539q0 -33 1 -78t9.5 -93.5t25.5 -95.5t52 -84q33 -35 73 -56t85 -31.5t90 -13.5t86 -3t86 3t90 13.5t85 32t73 55.5q33 37 51 84t26.5 95.5t9.5 93.5 t1 78q0 35 -1 83t-9.5 98t-25.5 97t-50 84q-31 35 -73 54.5t-88 29.5t-91 13t-84 3t-84 -3t-91 -13t-88 -29.5t-73 -54.5q-33 -37 -50 -84t-25.5 -97t-9.5 -98t-1 -83z"/>
<glyph unicode="ô" horiz-adv-x="1196" d="M196 1292l322 275q14 12 33.5 23.5t46.5 11.5t46 -11.5t34 -23.5l321 -275l-57 -71l-301 264q-8 6 -18.5 12t-24.5 6t-24.5 -6t-18.5 -12l-301 -264zM61 549q0 45 4.5 101.5t18.5 114.5t41 114.5t72 99.5q39 39 88 62.5t101 36t106.5 16.5t105.5 4t105.5 -4t106.5 -16.5 t100 -36t89 -62.5q45 -43 72 -99.5t41 -114.5t18.5 -114.5t4.5 -101.5q0 -176 -42 -281.5t-94 -156.5q-45 -43 -99 -68t-109.5 -37t-105.5 -15t-87 -3t-87 3t-105.5 15t-109.5 37t-99 68q-53 51 -94.5 156.5t-41.5 281.5zM176 539q0 -33 1 -78t9.5 -93.5t25.5 -95.5t52 -84 q33 -35 73 -56t85 -31.5t90 -13.5t86 -3t86 3t90 13.5t85 32t73 55.5q33 37 51 84t26.5 95.5t9.5 93.5t1 78q0 35 -1 83t-9.5 98t-25.5 97t-50 84q-31 35 -73 54.5t-88 29.5t-91 13t-84 3t-84 -3t-91 -13t-88 -29.5t-73 -54.5q-33 -37 -50 -84t-25.5 -97t-9.5 -98t-1 -83z "/>
<glyph unicode="õ" horiz-adv-x="1196" d="M114 1298q23 31 54.5 65t66.5 56q35 23 77 37t91 14q53 0 89 -12t63 -29l110 -65q29 -16 62 -30.5t78 -14.5q66 0 118 43q25 18 48.5 45.5t39.5 56.5l72 -63q-23 -35 -53.5 -69t-65.5 -58q-41 -29 -80.5 -41.5t-89.5 -12.5q-47 0 -79.5 10.5t-71.5 32.5l-92 54 q-31 16 -69 35.5t-85 19.5q-8 0 -36.5 -4t-63.5 -25q-35 -18 -63.5 -50t-47.5 -60zM61 549q0 45 4.5 101.5t18.5 114.5t41 114.5t72 99.5q39 39 88 62.5t101 36t106.5 16.5t105.5 4t105.5 -4t106.5 -16.5t100 -36t89 -62.5q45 -43 72 -99.5t41 -114.5t18.5 -114.5 t4.5 -101.5q0 -176 -42 -281.5t-94 -156.5q-45 -43 -99 -68t-109.5 -37t-105.5 -15t-87 -3t-87 3t-105.5 15t-109.5 37t-99 68q-53 51 -94.5 156.5t-41.5 281.5zM176 539q0 -33 1 -78t9.5 -93.5t25.5 -95.5t52 -84q33 -35 73 -56t85 -31.5t90 -13.5t86 -3t86 3t90 13.5 t85 32t73 55.5q33 37 51 84t26.5 95.5t9.5 93.5t1 78q0 35 -1 83t-9.5 98t-25.5 97t-50 84q-31 35 -73 54.5t-88 29.5t-91 13t-84 3t-84 -3t-91 -13t-88 -29.5t-73 -54.5q-33 -37 -50 -84t-25.5 -97t-9.5 -98t-1 -83z"/>
<glyph unicode="ù" horiz-adv-x="1069" d="M282 1426l64 80l252 -205l-64 -80zM102 328v757h107v-725q0 -86 13.5 -128t29.5 -64q35 -47 92 -59.5t123 -12.5h301q20 0 39.5 5t32.5 18q16 16 18 35.5t2 31.5v899h107v-913q0 -33 -8.5 -72t-43.5 -67q-31 -25 -74.5 -29t-88.5 -4h-295q-86 0 -148.5 13.5t-115.5 60.5 q-33 29 -50.5 62.5t-27 67.5t-11.5 65.5t-2 58.5z"/>
<glyph unicode="û" horiz-adv-x="1069" d="M133 1292l322 275q14 12 33.5 23.5t46.5 11.5t46 -11.5t34 -23.5l321 -275l-57 -71l-301 264q-8 6 -18.5 12t-24.5 6t-24.5 -6t-18.5 -12l-301 -264zM102 328v757h107v-725q0 -86 13.5 -128t29.5 -64q35 -47 92 -59.5t123 -12.5h301q20 0 39.5 5t32.5 18q16 16 18 35.5 t2 31.5v899h107v-913q0 -33 -8.5 -72t-43.5 -67q-31 -25 -74.5 -29t-88.5 -4h-295q-86 0 -148.5 13.5t-115.5 60.5q-33 29 -50.5 62.5t-27 67.5t-11.5 65.5t-2 58.5z"/>
<glyph unicode="ı" horiz-adv-x="319" d="M106 0v1085h107v-1085h-107z"/>
<glyph unicode="Œ" horiz-adv-x="2863" d="M1736 199v1044q0 63 16.5 95t24.5 42q31 37 70 45.5t80 8.5h846v-99h-830q-16 0 -39.5 -5t-34.5 -15q-16 -14 -19 -38t-3 -34v-461h905v-98h-905v-510q0 -12 5 -29.5t15 -27.5t42 -14.5t51 -4.5h821v-98h-850q-37 0 -76 4t-74 39q-33 33 -39 74t-6 82zM102 717 q0 61 4.5 137t20.5 153.5t50 151.5t95 135q55 55 122 86t136.5 46.5t138 19.5t128.5 4q59 0 127.5 -4t138.5 -19.5t136.5 -46t121.5 -86.5q61 -61 95 -135t50.5 -151.5t20.5 -153.5t4 -137t-4 -137t-20.5 -154t-50.5 -151.5t-95 -135.5q-55 -55 -121.5 -87t-136.5 -47 t-138.5 -18t-127.5 -3t-128 3t-138.5 18t-136 47t-122.5 87q-61 61 -95 135t-50 152t-20.5 154t-4.5 137zM221 717q0 -61 2 -129t14.5 -132.5t37 -126t69.5 -110.5q45 -51 102.5 -78.5t118 -41t120.5 -15.5t112 -2q51 0 111.5 2t121 15.5t116.5 41t103 78.5 q45 49 69.5 110.5t37 126t14.5 132t2 129.5q0 61 -2 128.5t-14.5 132t-37 126t-69.5 110.5q-47 51 -103 79t-116.5 41.5t-121 15.5t-111.5 2t-111.5 -2t-121 -15.5t-118 -41t-102.5 -79.5q-45 -49 -69.5 -110.5t-37 -126t-14.5 -132t-2 -128.5z"/>
<glyph unicode="œ" horiz-adv-x="2254" d="M1257 539q0 57 3.5 118.5t17.5 121t44 113.5t81 97q74 61 166 78.5t174 17.5q57 0 134 -11t142 -50q16 -10 45 -32.5t57.5 -63.5t50 -101.5t21.5 -146.5q0 -12 -1 -30.5t-5 -38t-13 -39t-26 -33.5q-25 -23 -58.5 -28t-55.5 -5h-662q-1 -16 -1 -34q0 -35 3 -79 q4 -66 17 -108q8 -33 27.5 -67t49 -60.5t70.5 -44t94 -17.5h533v-96h-533q-33 0 -69.5 5t-74.5 19.5t-75 41t-67 67.5q-63 82 -76 183.5t-13 222.5zM1372 602h662q18 0 27 9.5t13.5 21.5t4.5 23v18q0 80 -22.5 134t-51.5 87q-29 35 -62.5 53.5t-70.5 27.5t-74 11t-74 2 q-41 0 -81.5 -3t-80.5 -15.5t-75 -39t-64 -73.5q-33 -53 -41 -114.5t-10 -141.5zM61 549q0 45 4.5 101.5t18.5 114.5t41 114.5t72 99.5q39 39 88 62.5t101 36t106.5 16.5t105.5 4t105.5 -4t106.5 -16.5t100 -36t89 -62.5q45 -43 72 -99.5t41 -114.5t18.5 -114.5t4.5 -101.5 q0 -176 -42 -281.5t-94 -156.5q-45 -43 -99 -68t-109.5 -37t-105.5 -15t-87 -3t-87 3t-105.5 15t-109.5 37t-99 68q-53 51 -94.5 156.5t-41.5 281.5zM176 539q0 -33 1 -78t9.5 -93.5t25.5 -95.5t52 -84q33 -35 73 -56t85 -31.5t90 -13.5t86 -3t86 3t90 13.5t85 32t73 55.5 q33 37 51 84t26.5 95.5t9.5 93.5t1 78q0 35 -1 83t-9.5 98t-25.5 97t-50 84q-31 35 -73 54.5t-88 29.5t-91 13t-84 3t-84 -3t-91 -13t-88 -29.5t-73 -54.5q-33 -37 -50 -84t-25.5 -97t-9.5 -98t-1 -83z"/>
<glyph unicode="ˆ" horiz-adv-x="925" d="M61 1124l322 275q14 12 33.5 23.5t46.5 11.5t46 -11.5t34 -23.5l321 -275l-57 -71l-301 264q-8 6 -18.5 12t-24.5 6t-24.5 -6t-18.5 -12l-301 -264z"/>
<glyph unicode="Ѐ" horiz-adv-x="1269" d="M503 1778l64 80l252 -205l-64 -80zM143 199v1044q0 63 16.5 95t24.5 42q31 37 70 45.5t80 8.5h846v-99h-830q-16 0 -39.5 -5t-34.5 -15q-16 -14 -19 -38t-3 -34v-461h905v-98h-905v-510q0 -16 5 -31.5t15 -25.5q12 -10 43 -14.5t50 -4.5h821v-98h-850q-37 0 -76 4t-74 39 q-33 33 -39 74t-6 82z"/>
<glyph unicode="Ё" horiz-adv-x="1269" d="M143 199v1044q0 63 16.5 95t24.5 42q31 37 70 45.5t80 8.5h846v-99h-830q-16 0 -39.5 -5t-34.5 -15q-16 -14 -19 -38t-3 -34v-461h905v-98h-905v-510q0 -12 5 -29.5t15 -27.5t42 -14.5t51 -4.5h821v-98h-850q-37 0 -76 4t-74 39q-33 33 -39 74t-6 82zM424 1612v160h111 v-160h-111zM831 1612v160h111v-160h-111z"/>
<glyph unicode="Ђ" horiz-adv-x="1581" d="M-41 1335v99h1088v-99h-609v-561h736q51 0 116.5 -15.5t116.5 -76.5q25 -31 39 -69t21.5 -75.5t9.5 -74.5t2 -66q0 -139 -20.5 -210.5t-47.5 -106.5q-23 -29 -49.5 -45.5t-53 -24.5t-52 -9t-46.5 -1h-354v98h295q43 0 87 6.5t79 47.5q33 39 38 102t5 121q0 98 -7 153.5 t-34 87.5q-20 27 -58 43.5t-85 16.5h-738v-676h-110v1335h-369z"/>
<glyph unicode="Ѓ" horiz-adv-x="1026" d="M0 0v1272q0 29 6 58.5t35 58.5t60.5 37t58.5 8h866v-99h-801q-23 0 -54.5 -1t-47.5 -21q-10 -12 -11 -32.5t-1 -41.5v-1239h-111zM358 1595l252 205l64 -80l-252 -204z"/>
<glyph unicode="Є" horiz-adv-x="1343" d="M102 729q0 70 4.5 144.5t21.5 147.5t50 141.5t92 123.5q53 51 113.5 81t119 44t110 18.5t87.5 4.5h521v-99h-570q-94 0 -179 -39t-144 -110q-35 -43 -56.5 -93.5t-34 -102.5t-15.5 -105.5t-1 -104.5h971v-98h-971q-2 -63 2 -129t19.5 -127t45 -118.5t81.5 -102.5 q55 -49 132 -78t179 -29h561v-98h-541q-113 0 -217 28.5t-190 100.5q-57 47 -94 107.5t-58.5 134t-30 163t-8.5 195.5z"/>
<glyph unicode="Ѕ" horiz-adv-x="1323" d="M102 1114q0 55 15.5 124t81.5 124q31 27 86 49.5t141 22.5h727v-99h-739q-39 0 -81 -13t-69 -42q-33 -35 -38 -84t-5 -86q0 -35 3 -67.5t17.5 -61.5t44 -54.5t81.5 -43.5l557 -197q66 -23 119 -47.5t90 -58.5q53 -51 70.5 -115t17.5 -117q0 -4 -1 -31.5t-7.5 -65.5 t-20.5 -80t-41 -77q-25 -33 -53.5 -51t-58 -27.5t-60.5 -12.5t-57 -3h-797v98h809q33 0 62.5 10.5t53 38t38 74.5t14.5 123q0 35 -6 68.5t-24.5 63.5t-54.5 56.5t-95 47.5l-572 196q-53 18 -100 45t-76 62q-45 51 -58.5 111.5t-13.5 119.5z"/>
<glyph unicode="І" horiz-adv-x="397" d="M143 0v1434h111v-1434h-111z"/>
<glyph unicode="Ї" horiz-adv-x="450" d="M61 1561v161h111v-161h-111zM170 0v1434h111v-1434h-111zM279 1561v161h110v-161h-110z"/>
<glyph unicode="Ј" horiz-adv-x="802" d="M-41 0v100h262q90 0 146.5 28t87.5 56q59 57 76.5 138t17.5 159v953h110v-953q0 -129 -28.5 -211t-81.5 -139q-41 -43 -117 -87t-188 -44h-285z"/>
<glyph unicode="Љ" horiz-adv-x="2238" d="M-41 0l854 1343q8 14 20.5 33t31 35t43 27.5t59.5 11.5q53 0 92 -37t39 -110v-523h723q115 0 175 -33.5t87 -72.5q16 -25 26.5 -58.5t16.5 -71.5t8 -77t2 -74q0 -29 -2 -64.5t-8 -74.5t-19.5 -75t-35.5 -64q-10 -12 -31 -32t-54.5 -38t-82 -31.5t-111.5 -13.5h-659 q-25 0 -54.5 8t-56.5 39q-25 29 -30 60.5t-5 64.5v1128q0 27 -13 32t-22 5q-23 0 -37 -22l-831 -1315h-125zM1098 188q0 -16 3 -35.5t9 -29.5q12 -18 34.5 -21.5t45.5 -3.5h596q53 0 102 16.5t78 47.5q39 41 45 103.5t6 123.5q0 33 -1 70t-6 72.5t-17.5 66.5t-32.5 49 q-29 25 -67 30t-58 5h-737v-494z"/>
<glyph unicode="Њ" horiz-adv-x="2435" d="M143 0v1434h111v-654h930v654h110v-654h723q115 0 175.5 -33.5t86.5 -72.5q16 -25 26.5 -58.5t17 -71.5t8.5 -77t2 -74q0 -29 -2 -64.5t-8.5 -74.5t-19.5 -75t-36 -64q-10 -12 -30.5 -32t-54.5 -38t-82 -31.5t-111 -13.5h-660q-25 0 -54.5 8t-55.5 39q-25 29 -30 60.5 t-5 64.5v510h-930v-682h-111zM1294 188q0 -16 3 -35.5t10 -29.5q12 -18 34.5 -21.5t44.5 -3.5h596q53 0 102.5 16.5t78.5 47.5q39 41 45 103.5t6 123.5q0 33 -1 70t-6 72.5t-17.5 66.5t-32.5 49q-29 25 -67 30t-58 5h-738v-494z"/>
<glyph unicode="Ћ" horiz-adv-x="1540" d="M-41 1335v99h1088v-99h-609v-561h709q47 0 102.5 -9t98.5 -40q59 -43 74.5 -101.5t15.5 -117.5v-506h-111v524q0 20 -7 54t-42 63q-29 25 -62.5 30t-56.5 5h-721v-676h-110v1335h-369z"/>
<glyph unicode="Ќ" horiz-adv-x="1282" d="M143 0v1434h111v-1434h-111zM334 737q0 43 33.5 85t68.5 71l672 541h160l-733 -594q-10 -8 -25.5 -19.5t-30 -25t-25 -28.5t-10.5 -32q0 -35 36 -66.5t71 -58.5l792 -610h-165l-719 555q-55 43 -90 91t-35 91zM535 1595l251 205l64 -80l-252 -204z"/>
<glyph unicode="Ѝ" horiz-adv-x="1490" d="M972 1778l64 80l252 -205l-64 -80zM143 150v1284h111v-1272q0 -23 1 -42.5t24 -19.5q14 0 22 15.5t16 25.5l727 1157q20 33 39 62t38.5 48t44 30.5t59.5 11.5q45 0 70.5 -22.5t36.5 -52t13.5 -59.5t2.5 -44v-1272h-111v1292q0 8 -2 24.5t-18 16.5q-14 0 -27.5 -20.5 t-24.5 -38.5l-739 -1165q-16 -25 -30.5 -47.5t-33 -40t-42 -27.5t-56.5 -10q-43 0 -67.5 18t-35.5 44t-14.5 55t-3.5 49z"/>
<glyph unicode="Ў" horiz-adv-x="1249" d="M-61 1434h122l580 -1080l547 1080h123l-733 -1434h-123l129 244zM328 1712h118q4 -31 18.5 -51.5t27.5 -30.5q29 -27 63.5 -32t69.5 -5t69.5 5.5t63.5 31.5q12 10 26.5 30.5t18.5 51.5h119q-12 -66 -44 -105.5t-61 -62.5q-45 -33 -93 -41t-99 -8t-99.5 8t-93.5 41 q-29 23 -60.5 62.5t-43.5 105.5z"/>
<glyph unicode="Џ" horiz-adv-x="1421" d="M143 111v1323h111v-1268q0 -23 2 -33t6 -16q10 -14 21.5 -16.5t27.5 -2.5h799q16 0 27.5 2t21.5 17q4 6 6 16t2 33v1268h111v-1323q0 -23 -4 -44.5t-23 -39.5q-23 -23 -52.5 -25t-53.5 -2h-379v-346h-111v346h-379q-25 0 -54 2t-52 25q-18 18 -22.5 39.5t-4.5 44.5z"/>
<glyph unicode="А" horiz-adv-x="1376" d="M-20 0l548 1298q12 29 26.5 56.5t33 49t43 34t57.5 12.5q63 0 99 -47t61 -105l549 -1298h-119l-174 418h-832l-174 -418h-118zM315 516h746l-313 750q-10 23 -23.5 52.5t-36.5 29.5t-36 -30t-23 -52z"/>
<glyph unicode="Б" d="M143 180v1063q0 35 6.5 74t34.5 69q29 31 64 39.5t65 8.5h912v-99h-867q-29 0 -49 -3t-30 -13q-25 -23 -25 -74v-475h729q59 0 126 -16.5t118 -83.5q16 -23 40.5 -87.5t24.5 -199.5q0 -29 -3 -68t-11 -79.5t-23.5 -79.5t-42.5 -70q-25 -29 -54.5 -46t-59 -26.5t-58 -11.5 t-53.5 -2h-676q-63 0 -95 17.5t-46 35.5q-18 25 -22.5 60.5t-4.5 66.5zM254 217q0 -47 4 -63.5t8 -24.5q16 -25 49 -28t64 -3h567q37 0 83 6.5t85 47.5q35 35 47.5 96t12.5 143q0 29 -2.5 60.5t-8.5 62.5t-18 58.5t-31 48.5q-39 41 -84 46t-84 5h-692v-455z"/>
<glyph unicode="В" d="M143 184v1061q0 41 10.5 78t30.5 61q29 33 62 41.5t65 8.5h662q78 0 131 -24t84 -56q31 -31 48 -70t26.5 -80t12.5 -82t3 -75q0 -66 -10.5 -127.5t-50.5 -114.5q-29 -35 -61 -53.5t-71 -22.5v-8q53 -6 90 -29.5t58 -48.5q47 -55 53 -121.5t6 -134.5q0 -39 -1 -78 t-9 -76.5t-25.5 -74.5t-50.5 -74q-51 -57 -100 -70.5t-105 -13.5h-632q-39 0 -90.5 3t-92.5 44q-29 31 -36 67.5t-7 69.5zM254 209q0 -45 4 -62.5t10 -25.5q14 -16 42 -19.5t52 -3.5h572q20 0 47 1t52.5 7.5t51 19.5t43.5 40q14 18 22.5 46t13.5 58.5t7.5 60t2.5 54.5 q0 23 -2.5 52.5t-6.5 59t-11 56.5t-17 43q-20 31 -61.5 53.5t-86.5 22.5h-735v-463zM254 770h672q47 0 100 9t88 55q14 18 23.5 47.5t13.5 62.5t6 63.5t2 53.5q0 57 -7 98t-17.5 67.5t-21.5 42t-19 23.5q-35 33 -72 38t-66 5h-620q-16 0 -32.5 -1t-29.5 -15 q-10 -10 -15 -31.5t-5 -34.5v-483z"/>
<glyph unicode="Г" horiz-adv-x="1128" d="M143 0v1272q0 29 6.5 58.5t34.5 58.5q29 29 60.5 37t58.5 8h866v-99h-800q-23 0 -54.5 -1t-48.5 -21q-10 -12 -11 -32.5t-1 -41.5v-1239h-111z"/>
<glyph unicode="Д" horiz-adv-x="1540" d="M-41 0v98h102l562 1209q27 59 60.5 101t86.5 42t86 -42t62 -101l561 -1209h102v-98h-1622zM184 98h1172l-543 1184q-4 10 -16.5 29.5t-26.5 19.5t-26.5 -19.5t-16.5 -29.5z"/>
<glyph unicode="Е" horiz-adv-x="1269" d="M143 199v1044q0 63 16.5 95t24.5 42q31 37 70 45.5t80 8.5h846v-99h-830q-16 0 -39.5 -5t-34.5 -15q-16 -14 -19 -38t-3 -34v-461h905v-98h-905v-510q0 -16 5 -31.5t15 -25.5q12 -10 43 -14.5t50 -4.5h821v-98h-850q-37 0 -76 4t-74 39q-33 33 -39 74t-6 82z"/>
<glyph unicode="Ж" horiz-adv-x="1961" d="M-41 0l678 610q41 39 69.5 68t28.5 53q0 16 -18.5 41t-63.5 68l-618 594h160l555 -541q12 -12 29.5 -30.5t31.5 -40t24.5 -44t10.5 -43.5q0 -23 -12.5 -48t-31 -50t-39 -46.5t-36.5 -35.5l-602 -555h-166zM926 0v1434h110v-1434h-110zM1116 735q0 20 10.5 43t24.5 44.5 t31.5 40t29.5 30.5l555 541h160l-618 -594q-45 -43 -63.5 -67.5t-18.5 -41.5q0 -25 28.5 -53.5t69.5 -67.5l678 -610h-166l-602 555q-43 39 -66.5 70.5t-36 53t-14.5 36t-2 20.5z"/>
<glyph unicode="З" horiz-adv-x="1255" d="M82 0v98h670q45 0 101 8.5t91 28.5q33 18 50.5 46t26.5 60.5t11 66.5t2 69q0 61 -8 127.5t-51 111.5q-41 41 -93.5 49.5t-86.5 8.5h-684v98h630q25 0 54.5 1t59.5 8t58.5 23.5t51.5 45.5q35 43 40 97t5 110q0 27 -1 58.5t-7.5 62t-17.5 59.5t-32 51q-20 20 -53 33.5 t-70 13.5h-739v99h719q25 0 54.5 -2t60 -9.5t61.5 -24t59 -44.5q29 -31 45.5 -67t25.5 -76t11 -80.5t2 -77.5q0 -68 -12 -136.5t-65 -121.5q-23 -23 -53.5 -39.5t-59.5 -24.5v-8q39 -4 90 -26.5t84 -82.5q14 -29 23.5 -67.5t12.5 -74.5t4 -63.5t1 -29.5q0 -121 -28.5 -201 t-106.5 -125q-47 -29 -111.5 -41t-128.5 -12h-696z"/>
<glyph unicode="И" horiz-adv-x="1490" d="M143 150v1284h111v-1272q0 -23 1 -42.5t24 -19.5q14 0 22 15.5t16 25.5l727 1157q20 33 39 62t38.5 48t44 30.5t59.5 11.5q45 0 70.5 -22.5t36.5 -52t13.5 -59.5t2.5 -44v-1272h-111v1292q0 8 -2 24.5t-18 16.5q-14 0 -27.5 -20.5t-24.5 -38.5l-739 -1165 q-16 -25 -30.5 -47.5t-33 -40t-42 -27.5t-56.5 -10q-43 0 -67.5 18t-35.5 44t-14.5 55t-3.5 49z"/>
<glyph unicode="Й" horiz-adv-x="1490" d="M143 150v1284h111v-1272q0 -23 1 -42.5t24 -19.5q14 0 22 15.5t16 25.5l727 1157q20 33 39 62t38.5 48t44 30.5t59.5 11.5q45 0 70.5 -22.5t36.5 -52t13.5 -59.5t2.5 -44v-1272h-111v1292q0 8 -2 24.5t-18 16.5q-14 0 -27.5 -20.5t-24.5 -38.5l-739 -1165 q-16 -25 -30.5 -47.5t-33 -40t-42 -27.5t-56.5 -10q-43 0 -67.5 18t-35.5 44t-14.5 55t-3.5 49zM449 1710h118q4 -31 18.5 -51.5t26.5 -30.5q29 -27 64 -32t69 -5q35 0 70 5.5t64 31.5q12 10 26.5 30.5t18.5 51.5h118q-12 -66 -43.5 -105.5t-60.5 -62.5q-45 -33 -93 -41 t-100 -8q-51 0 -99 8t-93 41q-29 23 -60.5 62.5t-43.5 105.5z"/>
<glyph unicode="К" horiz-adv-x="1282" d="M143 0v1434h111v-1434h-111zM334 737q0 43 33.5 85t68.5 71l672 541h160l-733 -594q-10 -8 -25.5 -19.5t-30 -25t-25 -28.5t-10.5 -32q0 -35 36 -66.5t71 -58.5l792 -610h-165l-719 555q-55 43 -90 91t-35 91z"/>
<glyph unicode="Л" horiz-adv-x="1282" d="M-61 0l557 1325q33 82 66.5 103.5t78.5 21.5q23 0 42 -4t36.5 -17.5t34 -38t32.5 -65.5l557 -1325h-118l-541 1305q-6 14 -13 30.5t-30 16.5t-30 -16.5t-13 -30.5l-541 -1305h-118z"/>
<glyph unicode="М" horiz-adv-x="1908" d="M143 0v1315q0 59 37 97t99 38q61 0 94 -38t61 -103l486 -1168q4 -12 11 -28.5t23 -16.5t23.5 16.5t11.5 28.5l486 1168q29 66 61.5 103.5t93.5 37.5t98 -38t37 -97v-1315h-110v1315q0 23 -10.5 30t-18.5 7q-10 0 -22.5 -14.5t-16.5 -26.5l-487 -1172 q-29 -66 -59.5 -110.5t-86.5 -44.5q-55 0 -85.5 45t-59.5 110l-487 1172q-4 12 -16.5 26.5t-22.5 14.5q-8 0 -18.5 -7.5t-10.5 -29.5v-1315h-111z"/>
<glyph unicode="Н" horiz-adv-x="1437" d="M143 0v1434h111v-656h930v656h110v-1434h-110v680h-930v-680h-111z"/>
<glyph unicode="О" horiz-adv-x="1593" d="M102 717q0 61 4.5 137t20.5 153.5t50 151.5t95 135q55 55 122 86t136.5 46.5t138 19.5t128.5 4q59 0 127.5 -4t138.5 -19.5t136.5 -46t121.5 -86.5q61 -61 95 -135t50.5 -151.5t20.5 -153.5t4 -137t-4 -137t-20.5 -154t-50.5 -151.5t-95 -135.5q-55 -55 -121.5 -87 t-136.5 -47t-138.5 -18t-127.5 -3t-128 3t-138.5 18t-136 47t-122.5 87q-61 61 -95 135t-50 152t-20.5 154t-4.5 137zM221 717q0 -61 2 -129t14.5 -132.5t37 -126t69.5 -110.5q45 -51 102.5 -78.5t118 -41t120.5 -15.5t112 -2q51 0 111.5 2t121 15.5t116.5 41t103 78.5 q45 49 69.5 110.5t37 126t14.5 132t2 129.5q0 61 -2 128.5t-14.5 132t-37 126t-69.5 110.5q-47 51 -103 79t-116.5 41.5t-121 15.5t-111.5 2t-111.5 -2t-121 -15.5t-118 -41t-102.5 -79.5q-45 -49 -69.5 -110.5t-37 -126t-14.5 -132t-2 -128.5z"/>
<glyph unicode="П" horiz-adv-x="1421" d="M143 0v1247q0 35 6.5 73t36.5 71q29 29 61 36t60 7h807q29 0 60.5 -7.5t60.5 -35.5q31 -33 37 -71t6 -73v-1247h-111v1257q0 16 -1 32t-15 30t-29.5 15t-29.5 1h-762q-14 0 -29.5 -1t-30.5 -15q-14 -14 -15 -29.5t-1 -32.5v-1257h-111z"/>
<glyph unicode="Р" d="M143 0v1264q0 29 5.5 65.5t33.5 65.5q14 14 35 21t41.5 11.5t36.5 5.5t24 1h592q70 0 140.5 -11.5t132.5 -64.5q61 -53 84.5 -138t23.5 -227q0 -43 -4 -92t-16 -95t-36 -87t-62 -72q-37 -29 -88.5 -45t-104.5 -16h-727v-586h-111zM254 684h664q90 0 136 21.5t64 44.5 q20 25 31.5 62.5t16.5 77.5t6.5 75.5t1.5 56.5q0 18 -1.5 51t-7.5 69t-18 69.5t-33 58.5q-23 25 -69 45t-123 20h-586q-61 0 -71.5 -25.5t-10.5 -62.5v-563z"/>
<glyph unicode="С" horiz-adv-x="1308" d="M102 696q0 74 4.5 150t20.5 149.5t46 141t83 123.5q18 18 54 47.5t89.5 57.5t127 48.5t169.5 20.5h549v-99h-502q-41 0 -94 -4t-109.5 -21.5t-111.5 -50t-100 -90.5q-37 -47 -58.5 -105t-32 -119.5t-13.5 -126t-3 -124.5q0 -55 3 -111.5t12.5 -110.5t28 -104.5 t50.5 -95.5q18 -25 49 -55.5t78 -56t114 -44t157 -18.5h555v-98h-578q-88 0 -156.5 16.5t-121 41t-89 52t-61.5 52.5q-92 92 -126 222t-34 312z"/>
<glyph unicode="Т" horiz-adv-x="1228" d="M-41 1335v99h1311v-99h-600v-1335h-111v1335h-600z"/>
<glyph unicode="У" horiz-adv-x="1249" d="M-61 1434h122l580 -1080l547 1080h123l-733 -1434h-123l129 244z"/>
<glyph unicode="Ф" horiz-adv-x="1806" d="M102 735q0 117 19.5 227.5t91.5 204.5q45 57 97 89t109.5 47.5t118 18.5t119.5 3h191v109h110v-109h191q59 0 119.5 -3t118 -18.5t109.5 -47t97 -89.5q72 -94 91.5 -204.5t19.5 -227.5q0 -55 -3 -112.5t-13.5 -113.5t-29 -109.5t-50.5 -98.5q-41 -59 -94.5 -93 t-109.5 -51.5t-110.5 -22.5t-99.5 -5h-236v-129h-110v129h-236q-45 0 -99 5t-110.5 22.5t-109.5 51.5t-94 93q-33 45 -51.5 98.5t-28.5 109.5t-13.5 113.5t-3.5 112.5zM221 743q0 -131 10.5 -208.5t32.5 -128.5q29 -63 74 -99.5t98 -53.5t112.5 -21.5t115.5 -4.5h184v1000 h-244q-35 0 -80 -3t-90 -18.5t-87 -48.5t-73 -90q-37 -70 -45 -154t-8 -170zM958 227h185q55 0 114.5 4.5t112.5 21.5t98 53t74 100q23 51 33 128.5t10 208.5q0 86 -8 170t-45 154q-31 57 -73 90t-87 48.5t-90 18.5t-80 3h-244v-1000z"/>
<glyph unicode="Х" horiz-adv-x="1146" d="M-41 0l555 727l-539 707h131l467 -627l467 627h131l-538 -707l555 -727h-131l-484 647l-483 -647h-131z"/>
<glyph unicode="Ц" horiz-adv-x="1454" d="M143 164v1270h111v-1239v-38q0 -22 10 -36q12 -16 32.5 -19.5t33.5 -3.5h835v1336h111v-1336h199v-98h-1141q-41 0 -79 5t-62 26q-35 29 -42.5 67.5t-7.5 65.5z"/>
<glyph unicode="Ч" horiz-adv-x="1339" d="M123 971v463h110v-467q0 -37 5.5 -82t37.5 -82q18 -23 43 -34t48.5 -17.5t44 -7.5t32.5 -1h641v691h111v-1434h-111v645h-663q-61 0 -128 23.5t-114 83.5q-35 45 -46 99t-11 120z"/>
<glyph unicode="Ш" horiz-adv-x="1994" d="M143 154v1280h111v-1252q0 -18 1 -33.5t9 -27.5q10 -16 26.5 -19.5t31.5 -3.5h620v1336h111v-1336h620q14 0 30.5 3t27.5 20q8 12 9 27.5t1 33.5v1252h110v-1280q0 -20 -5 -55.5t-29 -59.5q-27 -29 -65 -34t-54 -5h-1401q-16 0 -54 5t-65 34q-25 25 -30 60t-5 55z"/>
<glyph unicode="Щ" horiz-adv-x="2029" d="M143 154v1280h111v-1252q0 -18 1 -33.5t9 -27.5q10 -16 26.5 -19.5t31.5 -3.5h620v1336h111v-1336h688v1336h110v-1336h199v-98h-1753q-16 0 -54 5t-65 34q-25 25 -30 60t-5 55z"/>
<glyph unicode="Ъ" horiz-adv-x="1499" d="M-20 1335v99h217q55 0 83.5 -17.5t38.5 -27.5q27 -29 33 -71t6 -73v-465h723q115 0 175.5 -33.5t86.5 -72.5q16 -25 26.5 -58.5t17 -71.5t8.5 -77t2 -74q0 -29 -2 -64.5t-8.5 -74.5t-19.5 -75t-36 -64q-10 -12 -30.5 -32t-54.5 -38t-82 -31.5t-111 -13.5h-660 q-25 0 -54.5 8t-55.5 39q-25 29 -30 60.5t-5 64.5v1063q0 16 -4 39.5t-15 36.5q-10 10 -25.5 17t-29.5 7h-194zM358 188q0 -16 3.5 -35.5t9.5 -29.5q12 -18 34.5 -21.5t45.5 -3.5h596q53 0 102 16.5t78 47.5q39 41 45 103.5t6 123.5q0 33 -1 70t-6 72.5t-17.5 66.5t-32.5 49 q-29 25 -67 30t-58 5h-738v-494z"/>
<glyph unicode="Ы" horiz-adv-x="1722" d="M143 172v1262h111v-654h723q115 0 175 -33.5t87 -72.5q16 -25 26.5 -58.5t16.5 -71.5t8 -77t2 -74q0 -29 -2 -64.5t-8 -74.5t-19.5 -75t-35.5 -64q-10 -12 -30.5 -32t-54.5 -38t-82 -31.5t-112 -13.5h-659q-25 0 -54.5 8t-56.5 39q-25 29 -30 60.5t-5 64.5zM254 188 q0 -16 3 -35.5t9 -29.5q12 -18 35 -21.5t45 -3.5h596q53 0 102.5 16.5t77.5 47.5q39 41 45.5 103.5t6.5 123.5q0 33 -1.5 70t-6.5 72.5t-17 66.5t-33 49q-29 25 -66.5 30t-58.5 5h-737v-494zM1468 0v1434h111v-1434h-111z"/>
<glyph unicode="Ь" d="M143 172v1262h111v-654h723q115 0 175 -33.5t87 -72.5q16 -25 26.5 -58.5t16.5 -71.5t8 -77t2 -74q0 -29 -2 -64.5t-8 -74.5t-19.5 -75t-35.5 -64q-31 -41 -96.5 -78t-182.5 -37h-659q-25 0 -54.5 8t-56.5 39q-25 29 -30 60.5t-5 64.5zM254 188q0 -16 3 -35.5t9 -29.5 q12 -18 35 -21.5t45 -3.5h596q53 0 102.5 16.5t77.5 47.5q20 23 30.5 54.5t16 64t5.5 63.5v53q0 29 -1.5 65t-6.5 70.5t-17 65.5t-33 49q-29 25 -66.5 30t-58.5 5h-737v-494z"/>
<glyph unicode="Э" horiz-adv-x="1343" d="M102 0v98h562q102 0 179 29t132 78q51 45 80.5 102.5t45 118.5t19.5 126.5t2 129.5h-970v98h970q2 51 -1 104.5t-15 105.5t-33.5 102.5t-56.5 93.5q-59 72 -144.5 110.5t-179.5 38.5h-569v99h520q39 0 90 -3.5t108.5 -18.5t117 -45t114.5 -83q57 -55 91 -121.5 t51.5 -138.5t21.5 -146.5t4 -148.5q0 -104 -8 -193.5t-29.5 -163t-58.5 -134t-94 -109.5q-72 -59 -172.5 -94t-235.5 -35h-541z"/>
<glyph unicode="Ю" horiz-adv-x="1916" d="M143 0v1434h111v-650h170q-2 72 8 144.5t32.5 140.5t55.5 125t74 100q55 55 121.5 86t137.5 46.5t139.5 19.5t127.5 4q61 0 130 -4t138.5 -19.5t136 -46t122.5 -86.5q55 -55 88.5 -124.5t51 -145.5t23 -154.5t5.5 -152.5t-5.5 -153t-23 -154.5t-51 -145t-88.5 -125.5 q-55 -55 -122 -87t-136.5 -47t-138 -18t-130.5 -3q-59 0 -127.5 3t-139.5 18t-137.5 47t-121.5 87q-43 43 -77 105.5t-56.5 134.5t-31.5 150.5t-5 156.5h-170v-686h-111zM543 717q0 -61 2 -129t14 -132.5t37 -126t70 -110.5q45 -51 102 -78.5t117.5 -41t121 -15.5t111.5 -2 q70 0 133.5 4t119.5 17.5t106.5 41t93.5 74.5q45 49 70.5 109.5t38 126t14.5 132t2 130.5q0 63 -2 129.5t-14.5 132t-38 126t-70.5 109.5q-43 47 -93.5 75t-106.5 41t-119.5 17.5t-133.5 4.5q-51 0 -111.5 -2t-121 -15.5t-117.5 -41t-102 -79.5q-45 -49 -70 -110.5t-37 -126 t-14 -132t-2 -128.5z"/>
<glyph unicode="Я" horiz-adv-x="1415" d="M82 0l672 569v11h-318q-57 0 -100 12t-74 31.5t-50 41t-32 40.5q-45 70 -54 151.5t-9 147.5q0 80 11 161.5t52 145.5q27 39 60.5 63.5t70.5 37.5t74 17.5t68 4.5h604q39 0 80 -8.5t75 -41.5q43 -41 51.5 -85t8.5 -85v-1214h-111v1239q0 18 -5 37.5t-23 36.5 q-18 16 -38 19t-36 3h-586q-41 0 -87 -7t-83 -44q-27 -25 -40 -61.5t-19 -74.5t-7 -74t-1 -58q0 -113 11 -169t27 -85t55.5 -54.5t92.5 -25.5h444q23 0 36 -12.5t13 -34.5v-33q0 -23 -11 -36t-27 -25l-633 -541h-162z"/>
<glyph unicode="а" horiz-adv-x="1034" d="M61 336q0 66 15.5 136.5t75.5 119.5q45 37 100 47t102 10h471v162q0 27 -10 65.5t-31 63.5q-16 20 -45.5 34.5t-68.5 14.5h-527v96h533q55 0 106.5 -20.5t83.5 -54.5q43 -47 54.5 -107.5t11.5 -109.5v-650q0 -23 -5 -55.5t-32 -56.5q-25 -23 -59.5 -27t-63.5 -4h-418 q-47 0 -99 7t-97 42q-35 27 -53.5 67t-28.5 80t-12.5 77.5t-2.5 62.5zM176 332q0 -49 7 -101.5t36 -87.5q16 -20 44 -33.5t63 -13.5h438q10 0 23.5 1t23.5 12q10 10 12 18t2 18v408h-495q-47 0 -77 -18.5t-42 -34.5q-20 -27 -27.5 -69t-7.5 -99z"/>
<glyph unicode="б" horiz-adv-x="1087" d="M102 442v570q0 53 8.5 121.5t47.5 134.5q51 86 140 126t181 40h477v-97h-471q-59 0 -113.5 -18.5t-88.5 -52.5q-35 -35 -53.5 -83t-20.5 -98h381q45 0 95 -7t99.5 -26.5t93.5 -53t76 -85.5q49 -78 60.5 -175t11.5 -185q0 -104 -14.5 -209.5t-61.5 -183.5q-37 -59 -85 -93 t-101 -51.5t-106.5 -22.5t-98.5 -5q-43 0 -97 4t-108.5 22.5t-105.5 54t-88 101.5q-41 70 -49.5 138t-8.5 134zM209 420q0 -59 13.5 -117.5t41.5 -99.5q25 -37 59.5 -60.5t73.5 -37t80 -17.5t78 -4q27 0 63.5 2t74.5 11t74 28.5t64 52.5q27 33 43.5 80t24.5 100.5t10 107.5 t2 101q0 45 -1 92.5t-9 91.5t-25.5 85t-48.5 73q-31 33 -86 56.5t-145 23.5h-387v-569z"/>
<glyph unicode="в" horiz-adv-x="1019" d="M102 129v827q0 29 9.5 52.5t25.5 40.5q16 16 42 26t50 10h473q16 0 42 -2t53.5 -10t55.5 -24.5t50 -42.5q35 -43 45 -102.5t10 -108.5q0 -41 -6 -84t-34 -80q-14 -18 -40 -38t-69 -26v-4q41 -8 68.5 -27.5t44.5 -41.5q29 -37 32.5 -80t3.5 -84q0 -68 -10 -137.5 t-61 -124.5q-41 -43 -84 -55.5t-80 -12.5h-504q-59 0 -90 35q-18 20 -22.5 44.5t-4.5 49.5zM209 164q0 -14 2 -27.5t10 -23.5q10 -12 23.5 -14.5t29.5 -2.5h388q45 0 79.5 6.5t63.5 40.5q29 35 34 81t5 87q0 35 -5 79t-34 79q-27 31 -57.5 40t-63.5 9h-475v-354zM209 614 h475q35 0 63.5 7.5t55.5 37.5q29 33 35 72t6 76q0 31 -5 73t-40 72q-29 27 -60.5 32t-54.5 5h-432q-6 0 -17.5 -3t-15.5 -7t-7 -13.5t-3 -15.5v-336z"/>
<glyph unicode="г" horiz-adv-x="897" d="M102 0v930q0 25 1 53.5t16 50.5q18 33 48 42t58 9h693v-96h-652q-33 0 -45 -16q-10 -12 -11 -31.5t-1 -30.5v-911h-107z"/>
<glyph unicode="д" horiz-adv-x="1069" d="M-20 0v96h88l350 908q10 29 36.5 61.5t80.5 32.5q53 0 79.5 -33t36.5 -61l350 -908h89v-96h-1110zM180 96h709l-330 862q-4 8 -10 19.5t-14 11.5t-14.5 -11t-10.5 -20z"/>
<glyph unicode="е" horiz-adv-x="1058" d="M61 539q0 57 3.5 118.5t17.5 121t44 113.5t81 97q74 61 166 78.5t174 17.5q57 0 134 -11t142 -50q16 -10 45 -32.5t57.5 -63.5t50 -101.5t21.5 -146.5q0 -12 -1 -30.5t-5 -38t-13 -39t-26 -33.5q-25 -23 -58.5 -28t-55.5 -5h-662q-2 -47 2 -112.5t17 -108.5 q8 -33 27.5 -67t49 -60.5t70.5 -44t94 -17.5h533v-96h-533q-33 0 -69.5 5t-74.5 19.5t-75 41t-67 67.5q-63 82 -76 183.5t-13 222.5zM176 602h662q18 0 27 9.5t13.5 21.5t4.5 23v18q0 80 -22.5 134t-51.5 87q-29 35 -62.5 53.5t-70.5 27.5t-74 11t-74 2q-41 0 -81.5 -3 t-80.5 -15.5t-75 -39t-64 -73.5q-33 -53 -41 -114.5t-10 -141.5z"/>
<glyph unicode="ж" horiz-adv-x="1466" d="M-20 0l493 496q10 10 24.5 28.5t14.5 36.5t-14.5 34.5t-24.5 27.5l-463 462h146l385 -383q29 -29 57.5 -67.5t28.5 -81.5q0 -37 -22.5 -66.5t-49.5 -58.5l-424 -428h-151zM680 0v1085h106v-1085h-106zM840 553q0 43 28.5 82t57.5 67l385 383h145l-463 -462 q-10 -10 -24.5 -26.5t-14.5 -35.5q0 -18 14.5 -36.5t24.5 -28.5l494 -496h-152l-424 428q-27 29 -49 58.5t-22 66.5z"/>
<glyph unicode="з" horiz-adv-x="987" d="M82 0v96h567q23 0 53.5 8.5t53.5 38.5q12 16 19 41t10 48.5t4.5 45t1.5 31.5q0 41 -7.5 85t-46.5 79q-31 29 -63.5 35t-61.5 6h-499v96h514q41 0 70.5 13.5t45.5 31.5q14 14 22.5 36t12.5 42.5t5 39t1 28.5q0 33 -6 73.5t-35 71.5q-14 16 -40.5 29.5t-73.5 13.5h-527v96 h537q86 0 132 -26.5t60 -40.5q45 -45 56.5 -102.5t11.5 -106.5q0 -37 -6 -89t-35 -93q-12 -16 -34.5 -35t-57.5 -29v-6q20 -4 44 -18.5t46 -42.5q31 -41 40 -91.5t9 -93.5q0 -23 -2 -54.5t-9 -65t-23.5 -67.5t-45.5 -61q-25 -23 -50 -35t-51 -18t-47.5 -8t-35.5 -2h-559z "/>
<glyph unicode="и" horiz-adv-x="1112" d="M102 100v985h107v-944q0 -8 1 -17t11 -9q8 0 23 26l559 891q41 66 112 66q35 0 53.5 -15.5t28 -36t11.5 -41t2 -32.5v-973h-107v944v18q0 7 -10 7q-2 0 -7 -4t-16 -21l-553 -878q-27 -41 -51 -59.5t-65 -18.5q-47 0 -73 29.5t-26 82.5z"/>
<glyph unicode="й" horiz-adv-x="1112" d="M102 100v985h107v-944q0 -8 1 -17t11 -9q8 0 23 26l559 891q41 66 112 66q35 0 53.5 -15.5t28 -36t11.5 -41t2 -32.5v-973h-107v944v18q0 7 -10 7q-2 0 -7 -4t-16 -21l-553 -878q-27 -41 -51 -59.5t-65 -18.5q-47 0 -73 29.5t-26 82.5zM254 1372h123q8 -25 22.5 -49.5 t30.5 -38.5q20 -18 53 -29.5t80 -11.5t80 11.5t53 29.5q16 14 30.5 39t23.5 49h122q-12 -41 -37.5 -86t-62.5 -76q-45 -39 -99.5 -52t-109.5 -13t-109.5 13t-99.5 52q-37 31 -62.5 76t-37.5 86z"/>
<glyph unicode="к" horiz-adv-x="917" d="M102 0v1085h107v-1085h-107zM260 559q0 39 28.5 78t55.5 63l414 385h145l-483 -456q-10 -10 -27.5 -29.5t-17.5 -40.5q0 -14 11 -31.5t22 -27.5l530 -500h-152l-456 430q-41 39 -55.5 71.5t-14.5 57.5z"/>
<glyph unicode="л" horiz-adv-x="987" d="M-20 0l407 1012q25 59 57.5 72.5t49.5 13.5q16 0 48.5 -13.5t57.5 -72.5l408 -1012h-121l-373 950q-4 10 -8 21.5t-12 11.5t-12.5 -11t-8.5 -22l-373 -950h-120z"/>
<glyph unicode="м" horiz-adv-x="1388" d="M102 0v985q0 113 103 113q43 0 65.5 -18.5t38.5 -55.5l363 -872q16 -37 22 -37t23 37l362 872q16 37 39 55.5t66 18.5q102 0 102 -113v-985h-106v952q0 4 -1 9.5t-8 5.5q-4 0 -8 -7.5t-6 -11.5l-364 -882q-16 -41 -46 -59.5t-53 -18.5t-52.5 18.5t-45.5 59.5l-365 882 q-2 4 -6 11.5t-8 7.5q-6 0 -7 -5.5t-1 -9.5v-952h-107z"/>
<glyph unicode="н" horiz-adv-x="1069" d="M102 0v1085h107v-477h651v477h107v-1085h-107v512h-651v-512h-107z"/>
<glyph unicode="о" horiz-adv-x="1196" d="M61 549q0 45 4.5 101.5t18.5 114.5t41 114.5t72 99.5q39 39 88 62.5t101 36t106.5 16.5t105.5 4t105.5 -4t106.5 -16.5t100 -36t89 -62.5q45 -43 72 -99.5t41 -114.5t18.5 -114.5t4.5 -101.5q0 -176 -42 -281.5t-94 -156.5q-45 -43 -99 -68t-109.5 -37t-105.5 -15t-87 -3 t-87 3t-105.5 15t-109.5 37t-99 68q-53 51 -94.5 156.5t-41.5 281.5zM176 539q0 -33 1 -78t9.5 -93.5t25.5 -95.5t52 -84q33 -35 73 -56t85 -31.5t90 -13.5t86 -3t86 3t90 13.5t85 32t73 55.5q33 37 51 84t26.5 95.5t9.5 93.5t1 78q0 35 -1 83t-9.5 98t-25.5 97t-50 84 q-31 35 -73 54.5t-88 29.5t-91 13t-84 3t-84 -3t-91 -13t-88 -29.5t-73 -54.5q-33 -37 -50 -84t-25.5 -97t-9.5 -98t-1 -83z"/>
<glyph unicode="п" horiz-adv-x="1064" d="M102 0v928q0 27 3.5 57.5t19.5 52.5q10 14 34.5 30.5t76.5 16.5h593q51 0 76 -16t35 -31q16 -23 19.5 -53.5t3.5 -56.5v-928h-107v928q0 14 -2 29.5t-8 21.5q-4 4 -16.5 7t-18.5 3h-557q-6 0 -18.5 -3t-16.5 -7q-6 -6 -8 -21.5t-2 -29.5v-928h-107z"/>
<glyph unicode="р" horiz-adv-x="1048" d="M102 -348v1298q0 43 19.5 67.5t32.5 35.5q31 23 64.5 27.5t55.5 4.5h275q27 0 65.5 -3t82.5 -16t89 -37.5t86 -67.5t65 -93.5t35 -102.5t13 -104.5t2 -101.5q0 -104 -13 -205.5t-73 -191.5q-66 -96 -160 -129t-225 -33h-307v-348h-107zM209 96h350q74 0 142.5 30 t109.5 93q37 57 49 138t12 188q0 113 -10 179.5t-28 106.5q-39 86 -114 122t-149 36h-313q-8 0 -17.5 -5t-15.5 -9q-10 -10 -13 -19.5t-3 -19.5v-840z"/>
<glyph unicode="с" horiz-adv-x="974" d="M61 528q0 55 3.5 113.5t15.5 116t36.5 111t67.5 96.5q47 47 128 83.5t210 36.5h367v-96h-379q-131 0 -210 -61.5t-103 -159.5q-6 -23 -9.5 -57.5t-6.5 -71.5t-4 -70.5t-1 -54.5q0 -27 2 -61.5t6 -70.5t11.5 -68.5t17.5 -55.5q25 -53 63.5 -86t82.5 -49.5t90.5 -21.5 t82.5 -5h381v-96h-434q-117 0 -194.5 40t-124.5 97q-66 78 -82.5 174t-16.5 217z"/>
<glyph unicode="т" horiz-adv-x="884" d="M-20 989v96h925v-96h-409v-989h-107v989h-409z"/>
<glyph unicode="у" horiz-adv-x="1017" d="M-20 1085h114l402 -952l428 952h114l-649 -1435h-115l164 356z"/>
<glyph unicode="ф" horiz-adv-x="1466" d="M61 530q0 168 27 256t49 125q37 61 85 96t97.5 52.5t94.5 21.5t75 4h191v349h106v-349h191q31 0 76 -4t94 -21.5t97 -52t85 -96.5q23 -37 49.5 -125t26.5 -256q0 -90 -16.5 -191t-73.5 -187q-37 -53 -82 -84t-91 -46.5t-91 -18.5t-82 -3h-183v-348h-106v348h-182 q-37 0 -82 3t-91 18.5t-91.5 46t-81.5 84.5q-29 43 -47.5 91t-27.5 97t-12.5 97t-3.5 93zM176 518q0 -78 10.5 -153.5t51.5 -141.5q27 -43 60.5 -68.5t67 -39t66.5 -16.5t62 -3h186v893h-191q-76 0 -137 -29.5t-100 -85.5q-51 -72 -63.5 -169t-12.5 -187zM786 96h187 q27 0 60.5 3t67.5 16.5t66.5 39t61.5 68.5q41 66 51 141.5t10 153.5q0 90 -12 187.5t-64 168.5q-39 55 -100 85t-137 30h-191v-893z"/>
<glyph unicode="х" horiz-adv-x="880" d="M-20 0l403 557l-385 528h125l317 -448l318 448h125l-383 -528l401 -557h-129l-332 477l-331 -477h-129z"/>
<glyph unicode="ц" horiz-adv-x="1081" d="M102 139v946h107v-915q0 -10 2 -29.5t12 -29.5t28.5 -12.5t33.5 -2.5h569v989h107v-989h141v-96h-844q-23 0 -57.5 4t-59.5 25q-29 23 -34 58.5t-5 51.5z"/>
<glyph unicode="ч" horiz-adv-x="1044" d="M82 801v284h106v-309q0 -29 3.5 -63.5t23.5 -59.5q14 -18 46 -32.5t81 -14.5h494v479h106v-1085h-106v510h-478q-53 0 -118.5 10t-110.5 64q-35 41 -41 99.5t-6 117.5z"/>
<glyph unicode="ш" horiz-adv-x="1597" d="M102 141v944h107v-915q0 -14 1 -28.5t9 -24.5q14 -20 47 -21h479v989h107v-989h479q33 0 47 21q8 10 9.5 24.5t1.5 28.5v915h106v-944q0 -27 -5 -56.5t-28 -51.5q-29 -27 -67.5 -30t-71.5 -3h-1049q-33 0 -71.5 3t-67.5 30q-23 23 -28 52t-5 56z"/>
<glyph unicode="щ" horiz-adv-x="1615" d="M102 141v944h107v-915q0 -14 1 -28.5t9 -24.5q14 -20 47 -21h479v989h107v-989h537v989h106v-989h141v-96h-1362q-33 0 -71.5 3t-67.5 30q-23 23 -28 52t-5 56z"/>
<glyph unicode="ъ" horiz-adv-x="1099" d="M-20 989v96h192q18 0 39.5 -6t36.5 -20q20 -20 24 -48t4 -44v-346h502q35 0 87.5 -10.5t97.5 -53.5q51 -49 63 -115.5t12 -119.5q0 -25 -2 -60t-10 -72.5t-24.5 -73.5t-43.5 -63q-43 -41 -94 -47t-106 -6h-471q-23 0 -47.5 3t-42.5 22q-20 20 -23.5 46.5t-3.5 53.5v803 q0 10 -2 23.5t-6 21.5q-8 10 -21.5 13t-25.5 3h-135zM276 160q0 -6 1.5 -23.5t5.5 -25.5q8 -12 21 -13.5t24 -1.5h450q27 0 56.5 8.5t54.5 42.5q14 18 24.5 57.5t10.5 119.5q0 29 -5.5 73.5t-31.5 79.5q-27 33 -57.5 40t-51.5 7h-502v-364z"/>
<glyph unicode="ы" horiz-adv-x="1302" d="M102 125v960h107v-464h502q35 0 87 -10.5t97 -53.5q51 -49 63.5 -115.5t12.5 -119.5q0 -25 -2 -60t-10.5 -72.5t-24.5 -73.5t-43 -63q-43 -41 -94.5 -47t-106.5 -6h-471q-23 0 -47.5 3t-42.5 22q-20 20 -23.5 46.5t-3.5 53.5zM209 160q0 -8 1 -25.5t5 -23.5 q8 -12 21.5 -13.5t23.5 -1.5h451q27 0 56.5 8.5t53.5 42.5q14 18 24.5 57.5t10.5 119.5q0 29 -5 73.5t-32 79.5q-27 33 -57.5 40t-50.5 7h-502v-364zM1094 0v1085h106v-1085h-106z"/>
<glyph unicode="ь" horiz-adv-x="1032" d="M102 125v960h107v-464h502q35 0 87 -10.5t97 -53.5q51 -49 63.5 -115.5t12.5 -119.5q0 -25 -2 -60t-10.5 -72.5t-24.5 -73.5t-43 -63q-43 -41 -94.5 -47t-106.5 -6h-471q-23 0 -47.5 3t-42.5 22q-20 20 -23.5 46.5t-3.5 53.5zM209 160q0 -8 1 -25.5t5 -23.5 q8 -12 21.5 -13.5t23.5 -1.5h451q27 0 56.5 8.5t53.5 42.5q14 18 24.5 57.5t10.5 119.5q0 29 -5 73.5t-32 79.5q-27 33 -57.5 40t-50.5 7h-502v-364z"/>
<glyph unicode="э" horiz-adv-x="1011" d="M61 0v96h467q35 0 74 6.5t77 23.5t69.5 49t50.5 83q8 23 15 56.5t11 70.5t7.5 74t3.5 65h-746v97h746q2 57 -11.5 126.5t-42.5 116.5q-25 43 -56.5 68.5t-66 38t-68.5 15.5t-61 3h-454v96h456q82 0 160 -23.5t146 -94.5q27 -29 48 -65t35.5 -83t21.5 -108.5t7 -143.5 q0 -137 -21.5 -245.5t-82.5 -186.5q-41 -49 -88 -76.5t-96.5 -40t-98.5 -15.5t-92 -3h-410z"/>
<glyph unicode="ю" horiz-adv-x="1486" d="M102 0v1085h107v-477h172q4 115 34.5 210t98.5 161q45 43 96.5 67.5t103.5 36t101 13.5t88 2q37 0 86 -2t101.5 -13.5t104.5 -36t97 -67.5q45 -45 72 -100.5t40 -112.5t17 -113.5t4 -103.5q0 -49 -4 -107.5t-18 -117t-41 -113.5t-70 -100q-43 -43 -96 -68t-105.5 -37 t-101.5 -15t-86 -3q-39 0 -88 3t-100 15t-103.5 37t-97.5 68q-47 45 -73.5 100t-40 110.5t-16.5 105.5t-3 85h-172v-512h-107zM496 539q0 -31 1 -76t9 -94.5t25.5 -96.5t48.5 -84q31 -35 69.5 -56t81.5 -31.5t87 -13.5t85 -3t85 3t87 13.5t82 32t70 55.5q31 37 48 84 t25.5 96.5t9.5 94.5t1 76q0 33 -2 81t-9.5 99t-23.5 99t-47 83t-71 54.5t-84 29.5t-88 13t-83 3t-83 -3t-88 -13t-84 -29.5t-70 -54.5q-31 -35 -47.5 -83t-23.5 -99t-9 -99t-2 -81z"/>
<glyph unicode="я" horiz-adv-x="1067" d="M61 0l410 389l13 13q5 5 5 12q0 10 -6 11t-10 1h-117q-53 0 -108 15.5t-101 78.5q-39 55 -47 122t-8 122q0 61 12.5 130t59.5 120q29 31 76 51t104 20h459q33 0 66.5 -5t58.5 -27q29 -27 33 -64t4 -69v-920h-107v911q0 12 -1 31t-11 31q-12 14 -30.5 15t-37.5 1h-436 q-29 0 -55.5 -10t-48.5 -45q-23 -35 -27 -80t-4 -86q0 -70 6 -111t20 -67q25 -45 59 -56.5t70 -11.5h201q27 0 54.5 -10t27.5 -51q0 -16 -6 -34.5t-23 -35.5l-411 -391h-144z"/>
<glyph unicode="ѐ" horiz-adv-x="1058" d="M294 1426l64 80l252 -205l-64 -80zM61 539q0 57 3.5 118.5t17.5 121t44 113.5t81 97q74 61 166 78.5t174 17.5q57 0 134 -11t142 -50q16 -10 45 -32.5t57.5 -63.5t50 -101.5t21.5 -146.5q0 -12 -1 -30.5t-5 -38t-13 -39t-26 -33.5q-25 -23 -58.5 -28t-55.5 -5h-662 q-2 -47 2 -112.5t17 -108.5q8 -33 27.5 -67t49 -60.5t70.5 -44t94 -17.5h533v-96h-533q-33 0 -69.5 5t-74.5 19.5t-75 41t-67 67.5q-63 82 -76 183.5t-13 222.5zM176 602h662q18 0 27 9.5t13.5 21.5t4.5 23v18q0 80 -22.5 134t-51.5 87q-29 35 -62.5 53.5t-70.5 27.5t-74 11 t-74 2q-41 0 -81.5 -3t-80.5 -15.5t-75 -39t-64 -73.5q-33 -53 -41 -114.5t-10 -141.5z"/>
<glyph unicode="ё" horiz-adv-x="1058" d="M61 539q0 57 3.5 118.5t17.5 121t44 113.5t81 97q74 61 166 78.5t174 17.5q57 0 134 -11t142 -50q16 -10 45 -32.5t57.5 -63.5t50 -101.5t21.5 -146.5q0 -12 -1 -30.5t-5 -38t-13 -39t-26 -33.5q-25 -23 -58.5 -28t-55.5 -5h-662q-2 -47 2 -112.5t17 -108.5 q8 -33 27.5 -67t49 -60.5t70.5 -44t94 -17.5h533v-96h-533q-33 0 -69.5 5t-74.5 19.5t-75 41t-67 67.5q-63 82 -76 183.5t-13 222.5zM176 602h662q18 0 27 9.5t13.5 21.5t4.5 23v18q0 80 -22.5 134t-51.5 87q-29 35 -62.5 53.5t-70.5 27.5t-74 11t-74 2q-41 0 -81.5 -3 t-80.5 -15.5t-75 -39t-64 -73.5q-33 -53 -41 -114.5t-10 -141.5zM283 1266v168h114v-168h-114zM647 1266v168h115v-168h-115z"/>
<glyph unicode="ђ" horiz-adv-x="1054" d="M-20 1231v96h163v107h107v-107h315v-96h-315v-146h397q82 0 143.5 -17t108.5 -60q59 -55 76.5 -130t17.5 -157v-432q0 -41 -8 -103.5t-20 -113.5q-16 -68 -41 -119t-62 -111q-33 -51 -67.5 -97t-79.5 -93h-137q49 53 101 118.5t93 129.5q29 45 50.5 93t37.5 109 q10 47 18.5 107.5t8.5 107.5v445q0 63 -18.5 102t-34.5 60q-41 45 -86.5 55t-90.5 10h-407v-989h-107v1231h-163z"/>
<glyph unicode="ѓ" horiz-adv-x="815" d="M0 0v930q0 25 1 53.5t15 50.5q18 33 48 42t59 9h692v-96h-651q-33 0 -45 -16q-10 -12 -11.5 -31.5t-1.5 -30.5v-911h-106zM231 1227l252 205l64 -80l-252 -205z"/>
<glyph unicode="є" horiz-adv-x="1005" d="M61 567q0 117 22.5 222.5t84.5 177.5q35 41 77 64.5t83 35.5t78.5 15t66.5 3h457v-96h-455q-27 0 -60.5 -3t-67.5 -15.5t-66.5 -38t-57.5 -68.5q-27 -47 -39 -117.5t-12 -125.5h743v-97h-749q0 -61 10 -138t31 -128q12 -31 32.5 -60.5t52.5 -52t77 -36t108 -13.5h467v-96 h-409q-41 0 -90.5 3t-100.5 15.5t-99 40t-85 76.5q-14 18 -30.5 49t-32 82t-26 125t-10.5 176z"/>
<glyph unicode="ѕ" horiz-adv-x="1032" d="M61 815q0 106 56 176q51 66 117.5 80t144.5 14h520v-96h-563q-18 0 -56 -5t-65 -32q-29 -29 -34 -67.5t-5 -61.5q0 -29 7 -69.5t38 -71.5q14 -14 40 -26.5t53.5 -21.5t53 -16.5t40.5 -9.5l196 -45q98 -23 170 -43t119 -59q51 -41 64.5 -88t13.5 -101q0 -29 -3 -60.5 t-13.5 -62t-29 -59.5t-48.5 -49q-41 -29 -89.5 -35t-80.5 -6h-627v96h622q47 0 79 14.5t48 36.5q14 20 20.5 58.5t6.5 66.5q0 47 -14.5 74t-26.5 39t-31.5 22.5t-50.5 19.5t-73 19.5t-101 24.5l-188 43q-61 14 -105.5 30.5t-73 33t-46 32t-25.5 25.5q-35 41 -47.5 88 t-12.5 92z"/>
<glyph unicode="і" horiz-adv-x="319" d="M102 1282v152h115v-152h-115zM106 0v1085h107v-1085h-107z"/>
<glyph unicode="ї" horiz-adv-x="319" d="M0 1208v162h106v-162h-106zM106 0v1085h107v-1085h-107zM213 1208v162h106v-162h-106z"/>
<glyph unicode="ј" horiz-adv-x="528" d="M-20 -266q102 -4 157.5 10t93.5 45q41 33 62.5 78t21.5 135v1083h107v-1103q0 -27 -4 -62t-16.5 -72.5t-37 -74.5t-65.5 -70q-37 -29 -81 -44t-87 -21.5t-83 -6.5t-68 4v99zM311 1282v152h115v-152h-115z"/>
<glyph unicode="љ" horiz-adv-x="1689" d="M-20 0l587 993q39 66 80 85.5t76 19.5q66 0 104.5 -33t38.5 -88v-356h502q35 0 87 -10.5t97 -53.5q51 -49 63.5 -115.5t12.5 -119.5q0 -25 -2 -60t-10 -72.5t-24.5 -73.5t-43.5 -63q-43 -41 -94 -47t-106 -6h-471q-23 0 -47.5 3t-43.5 22q-20 20 -23 46.5t-3 53.5v838 q0 18 -13.5 29.5t-25.5 11.5q-8 0 -20.5 -5.5t-24.5 -27.5l-580 -971h-116zM866 132q0 -11 6 -21q8 -12 20.5 -13.5t25.5 -1.5h450q27 0 56.5 8.5t54.5 42.5q23 33 28.5 84.5t5.5 87.5q0 78 -13 113t-23 45q-12 16 -38 31.5t-71 15.5h-502v-364v-28z"/>
<glyph unicode="њ" horiz-adv-x="1757" d="M102 0v1085h107v-471h631v471h106v-471h490q35 0 87 -10t97 -53q51 -49 63.5 -115.5t12.5 -120.5q0 -23 -2 -56.5t-10.5 -70t-25 -72.5t-42.5 -63q-43 -41 -94.5 -47t-106.5 -6h-459q-23 0 -47 3t-43 22q-20 20 -23 46.5t-3 53.5v393h-631v-518h-107zM946 160 q0 -8 1 -25.5t5 -23.5q8 -12 21.5 -13.5t23.5 -1.5h439q27 0 56.5 8.5t53.5 42.5q14 20 24.5 58.5t10.5 111.5q0 29 -5 74t-32 80q-27 33 -57.5 40t-50.5 7h-490v-358z"/>
<glyph unicode="ћ" horiz-adv-x="1095" d="M-20 1231v96h163v107h107v-107h315v-96h-315v-146h397q82 0 143.5 -17t108.5 -60q59 -55 76.5 -130t17.5 -157v-721h-106v733q0 35 -8.5 91.5t-44.5 99.5q-39 45 -85.5 55t-91.5 10h-407v-989h-107v1231h-163z"/>
<glyph unicode="ќ" horiz-adv-x="917" d="M102 0v1085h107v-1085h-107zM260 559q0 39 28.5 78t55.5 63l414 385h145l-483 -456q-10 -10 -27.5 -29.5t-17.5 -40.5q0 -14 11 -31.5t22 -27.5l530 -500h-152l-456 430q-41 39 -55.5 71.5t-14.5 57.5zM301 1227l252 205l63 -80l-251 -205z"/>
<glyph unicode="ѝ" horiz-adv-x="1112" d="M663 1426l64 80l252 -205l-64 -80zM102 100v985h107v-944q0 -8 1 -17t11 -9q8 0 23 26l559 891q41 66 112 66q35 0 53.5 -15.5t28 -36t11.5 -41t2 -32.5v-973h-107v944v18q0 7 -10 7q-2 0 -7 -4t-16 -21l-553 -878q-27 -41 -51 -59.5t-65 -18.5q-47 0 -73 29.5t-26 82.5z "/>
<glyph unicode="ў" horiz-adv-x="1056" d="M0 1085h115l401 -952l426 948h115l-645 -1429h-115l162 354zM219 1372h123q8 -25 22.5 -49.5t30.5 -38.5q20 -18 53 -29.5t80 -11.5t80 11.5t54 29.5q16 14 30.5 39t22.5 49h123q-12 -41 -38 -86t-63 -76q-45 -39 -99 -52t-110 -13q-55 0 -109 13t-100 52 q-37 31 -62.5 76t-37.5 86z"/>
<glyph unicode="џ" horiz-adv-x="1069" d="M102 143v942h107v-938q0 -27 3 -34t5 -9q6 -6 17.5 -7t15.5 -1h569q4 0 15.5 1t17.5 7q2 2 5 9.5t3 33.5v938h107v-942q0 -23 -3 -51.5t-24 -52.5q-25 -29 -55.5 -34t-59.5 -5h-233v-360h-115v360h-233q-29 0 -59.5 5t-55.5 34q-20 25 -23.5 53t-3.5 51z"/>
<glyph unicode="Ґ" horiz-adv-x="1120" d="M143 0v1276q0 29 4.5 60.5t22.5 54.5q12 16 41 29.5t80 13.5h700q12 0 25.5 1t23.5 11q4 6 7.5 17.5t3.5 33.5v193h110v-246q0 -16 -3 -43t-23 -43q-16 -16 -42 -18.5t-51 -2.5h-729q-12 0 -25.5 -1t-23.5 -17q-6 -8 -8 -23.5t-2 -50.5v-1245h-111z"/>
<glyph unicode="ґ" horiz-adv-x="827" d="M102 0v952q0 29 3.5 52.5t25.5 46.5q23 25 48.5 29.5t47.5 4.5h480q8 0 21 2.5t24 12.5q10 10 10 18v17v211h106v-238q0 -16 -4 -43t-24 -47q-23 -20 -50.5 -24.5t-46.5 -4.5h-483q-10 0 -22.5 -2t-20.5 -14q-4 -8 -6 -22.5t-2 -24.5v-926h-107z"/>
<glyph unicode="Ү" horiz-adv-x="1216" d="M-41 1434h123l526 -863l527 863h122l-593 -963v-471h-111v471z"/>
<glyph unicode="Ӏ" horiz-adv-x="397" d="M143 0v1434h111v-1434h-111z"/>
<glyph unicode=" " horiz-adv-x="1024"/>
<glyph unicode=" " horiz-adv-x="2048"/>
<glyph unicode=" " horiz-adv-x="1024"/>
<glyph unicode=" " horiz-adv-x="2048"/>
<glyph unicode=" " horiz-adv-x="681"/>
<glyph unicode=" " horiz-adv-x="512"/>
<glyph unicode=" " horiz-adv-x="339"/>
<glyph unicode=" " horiz-adv-x="1253"/>
<glyph unicode=" " horiz-adv-x="327"/>
<glyph unicode=" " horiz-adv-x="204"/>
<glyph unicode=" " horiz-adv-x="20"/>
<glyph unicode="​" horiz-adv-x="0"/>
<glyph unicode="‌" horiz-adv-x="0"/>
<glyph unicode="‍" horiz-adv-x="0"/>
<glyph unicode="‎" horiz-adv-x="681"/>
<glyph unicode="‏" horiz-adv-x="681"/>
<glyph unicode="‐" horiz-adv-x="819" d="M205 512v205h409v-205h-409z"/>
<glyph unicode="‑" horiz-adv-x="819" d="M205 512v205h409v-205h-409z"/>
<glyph unicode="‒" horiz-adv-x="1253" d="M205 512v205h844v-205h-844z"/>
<glyph unicode="–" horiz-adv-x="1212" d="M102 496v118h1008v-118h-1008z"/>
<glyph unicode="—" horiz-adv-x="2334" d="M143 496v118h2048v-118h-2048z"/>
<glyph unicode="―" horiz-adv-x="4096" d="M205 512v205h3686v-205h-3686z"/>
<glyph unicode="‖" horiz-adv-x="614" d="M409 -334v1850h103v-1850h-103zM102 -334v1850h103v-1850h-103z"/>
<glyph unicode="‘" horiz-adv-x="409" d="M0 1372l92 62l215 -320l-92 -61z"/>
<glyph unicode="’" horiz-adv-x="430" d="M61 1114l215 320l93 -62l-215 -319z"/>
<glyph unicode="‚" horiz-adv-x="409" d="M0 -115l215 320l92 -62l-215 -319z"/>
<glyph unicode="“" horiz-adv-x="727" d="M61 1372l93 62l215 -320l-93 -61zM358 1372l93 62l215 -320l-93 -61z"/>
<glyph unicode="”" horiz-adv-x="727" d="M61 1114l215 320l93 -62l-215 -319zM358 1114l215 320l93 -62l-215 -319z"/>
<glyph unicode="„" horiz-adv-x="706" d="M0 -115l215 320l92 -62l-215 -319zM297 -115l215 320l92 -62l-215 -319z"/>
<glyph unicode="†" horiz-adv-x="913" d="M61 905v99h340v430h111v-430h340v-99h-340v-1253h-111v1253h-340z"/>
<glyph unicode="‡" horiz-adv-x="913" d="M61 53v99h340v753h-340v99h340v430h111v-430h340v-99h-340v-753h340v-99h-340v-401h-111v401h-340z"/>
<glyph unicode="•" horiz-adv-x="1105" d="M143 713q0 84 33 158.5t88 130t130 88t159 32.5t158.5 -32.5t130 -88t88.5 -130t33 -158.5t-33 -159t-88.5 -130t-130 -88t-158.5 -33t-159 33t-130 88t-88 130t-33 159z"/>
<glyph unicode="․" horiz-adv-x="327" d="M102 0v178h123v-178h-123z"/>
<glyph unicode="‥" horiz-adv-x="655" d="M430 0v178h123v-178h-123zM102 0v178h123v-178h-123z"/>
<glyph unicode="…" horiz-adv-x="983" d="M143 0v178h123v-178h-123zM430 0v178h123v-178h-123zM717 0v178h123v-178h-123z"/>
<glyph unicode="‪" horiz-adv-x="0"/>
<glyph unicode=" " horiz-adv-x="389"/>
<glyph unicode="‰" horiz-adv-x="2048" d="M102 1104q0 33 2 70.5t10.5 74.5t24 72t41.5 61q23 23 49.5 35.5t52 18.5t50 8t41.5 2q16 0 40.5 -2t50 -8t52.5 -18.5t49 -35.5q27 -27 42.5 -61.5t23.5 -71.5t10 -74.5t2 -70.5t-2 -71t-10 -74.5t-23.5 -71.5t-42.5 -62q-23 -23 -49.5 -35t-52 -18t-50 -8t-40.5 -2 t-41 2t-50.5 8t-52 18.5t-49.5 34.5q-27 27 -42 62t-23.5 71.5t-10.5 74.5t-2 71zM205 1104q0 -100 13 -143t28 -62q29 -35 62.5 -44t64.5 -9t64.5 9t62.5 44q14 18 27.5 61.5t13.5 143.5t-13.5 143t-27.5 62q-29 35 -63 44t-64 9q-31 0 -65 -9.5t-62 -43.5 q-14 -18 -27.5 -61.5t-13.5 -143.5zM328 0l651 1434h96l-651 -1434h-96zM752 330q0 33 2 70.5t10 74.5t23.5 72t41.5 61q23 23 49.5 35t52 18.5t50.5 8.5t41 2t40.5 -2t50.5 -8.5t52.5 -18.5t48.5 -35q27 -27 42.5 -61.5t23.5 -71.5t10 -75t2 -70q0 -33 -2 -71t-10 -75 t-23.5 -71.5t-42.5 -61.5q-23 -23 -49 -35t-52 -18t-50.5 -8t-40.5 -2t-41 2t-50.5 8t-52 18.5t-49.5 34.5q-27 27 -42 61.5t-23 71.5t-10 75t-2 71zM854 330q0 -53 6 -108.5t39 -96.5q29 -37 60.5 -45t62.5 -8t62.5 8t60.5 45q33 41 39 96t6 109q0 53 -6 108.5t-39 96.5 q-29 37 -60.5 45t-62.5 8t-62.5 -8.5t-60.5 -44.5q-33 -41 -39 -96.5t-6 -108.5zM1405 330q0 33 2 70.5t10 74.5t23.5 72t42.5 61q23 23 49.5 35t52 18.5t50 8.5t40.5 2t41 -2t50.5 -8.5t52 -18.5t49.5 -35q27 -27 42 -61.5t23.5 -71.5t10.5 -75t2 -70q0 -33 -2 -71 t-10.5 -75t-24 -71.5t-41.5 -61.5q-23 -23 -49.5 -35t-52 -18t-50 -8t-41.5 -2q-16 0 -40.5 2t-50 8t-52.5 18.5t-49 34.5q-27 27 -42.5 61.5t-23.5 71.5t-10 75t-2 71zM1507 330q0 -53 6.5 -108.5t38.5 -96.5q29 -37 61 -45t62 -8q31 0 62.5 8t60.5 45q33 41 39 96t6 109 q0 53 -6 108.5t-39 96.5q-29 37 -60.5 45t-62.5 8t-62.5 -8.5t-60.5 -44.5q-33 -41 -39 -96.5t-6 -108.5z"/>
<glyph unicode="′" horiz-adv-x="315" d="M102 1051v383h111v-383h-111z"/>
<glyph unicode="″" horiz-adv-x="630" d="M417 1051v383h111v-383h-111zM102 1051v383h111v-383h-111z"/>
<glyph unicode="‴" horiz-adv-x="946" d="M733 1051v383h111v-383h-111zM417 1051v383h111v-383h-111zM102 1051v383h111v-383h-111z"/>
<glyph unicode="‵" horiz-adv-x="438" d="M61 1352l64 80l252 -205l-64 -80z"/>
<glyph unicode="‶" horiz-adv-x="876" d="M499 1352l64 80l252 -205l-64 -80zM61 1352l64 80l252 -205l-64 -80z"/>
<glyph unicode="‷" horiz-adv-x="1314" d="M938 1352l64 80l252 -205l-64 -80zM499 1352l64 80l252 -205l-64 -80zM61 1352l64 80l252 -205l-64 -80z"/>
<glyph unicode="‹" horiz-adv-x="591" d="M102 575q0 33 9.5 52.5t21.5 38.5l268 393l88 -60l-253 -366q-8 -12 -15.5 -26.5t-7.5 -31.5q0 -16 7 -30.5t16 -26.5l253 -366l-88 -60l-268 393q-12 18 -21.5 37.5t-9.5 52.5z"/>
<glyph unicode="›" horiz-adv-x="591" d="M102 152l254 366q8 12 15.5 26.5t7.5 30.5t-7 31t-16 27l-254 366l88 60l269 -393q12 -18 21 -38t9 -53t-9 -52t-21 -38l-269 -393z"/>
<glyph unicode="‼" horiz-adv-x="794" d="M540 0v158h111v-158h-111zM540 324v1110h111v-1110h-111zM143 0v158h111v-158h-111zM143 324v1110h111v-1110h-111z"/>
<glyph unicode="⁇" horiz-adv-x="1789" d="M915 1335v99h474q61 0 121.5 -13.5t113.5 -68.5q57 -59 70.5 -131t13.5 -134q0 -78 -15.5 -131t-41 -91t-60 -64.5t-73.5 -48.5l-201 -119q-14 -8 -34.5 -23.5t-35.5 -36.5q-10 -16 -16 -34.5t-6 -38.5v-176h-111v155q0 35 6 73t33 75q6 10 32.5 36.5t86.5 61.5l188 111 q86 51 109.5 107t23.5 130q0 20 -1 46t-6 53.5t-14 54t-28 47.5q-35 43 -84 52t-86 9h-459zM1114 0v158h111v-158h-111zM20 1335v99h474q61 0 121.5 -13.5t113.5 -68.5q57 -59 70.5 -131t13.5 -134q0 -78 -15.5 -131t-41 -91t-60 -64.5t-73.5 -48.5l-201 -119 q-14 -8 -34.5 -23.5t-35.5 -36.5q-10 -16 -16 -34.5t-6 -38.5v-176h-111v155q0 35 6 73t33 75q6 10 32.5 36.5t86.5 61.5l188 111q86 51 109.5 107t23.5 130q0 20 -1 46t-6 53.5t-14 54t-28 47.5q-35 43 -84 52t-86 9h-459zM219 0v158h111v-158h-111z"/>
<glyph unicode="⁈" horiz-adv-x="1292" d="M1038 0v158h111v-158h-111zM1038 324v1110h111v-1110h-111zM20 1335v99h474q61 0 121.5 -13.5t113.5 -68.5q57 -59 70.5 -131t13.5 -134q0 -78 -15.5 -131t-41 -91t-60 -64.5t-73.5 -48.5l-201 -119q-14 -8 -34.5 -23.5t-35.5 -36.5q-10 -16 -16 -34.5t-6 -38.5v-176 h-111v155q0 35 6 73t33 75q6 10 32.5 36.5t86.5 61.5l188 111q86 51 109.5 107t23.5 130q0 20 -1 46t-6 53.5t-14 54t-28 47.5q-35 43 -84 52t-86 9h-459zM219 0v158h111v-158h-111z"/>
<glyph unicode="⁉" horiz-adv-x="1292" d="M417 1335v99h474q61 0 121.5 -13.5t113.5 -68.5q57 -59 70.5 -131t13.5 -134q0 -78 -15.5 -131t-41 -91t-60 -64.5t-73.5 -48.5l-201 -119q-14 -8 -34.5 -23.5t-35.5 -36.5q-10 -16 -16 -34.5t-6 -38.5v-176h-111v155q0 35 6 73t33 75q6 10 32.5 36.5t86.5 61.5l188 111 q86 51 109.5 107t23.5 130q0 20 -1 46t-6 53.5t-14 54t-28 47.5q-35 43 -84 52t-86 9h-459zM616 0v158h111v-158h-111zM143 0v158h111v-158h-111zM143 324v1110h111v-1110h-111z"/>
<glyph unicode="⁗" horiz-adv-x="1261" d="M1048 1051v383h111v-383h-111zM733 1051v383h111v-383h-111zM417 1051v383h111v-383h-111zM102 1051v383h111v-383h-111z"/>
<glyph unicode=" " horiz-adv-x="487"/>
<glyph unicode="⁠" horiz-adv-x="0"/>
<glyph unicode="₨" horiz-adv-x="2467" d="M1497 815q0 106 56 176q51 66 117.5 80t144.5 14h520v-96h-563q-18 0 -56 -5t-65 -32q-29 -29 -34 -67.5t-5 -61.5q0 -29 7 -69.5t38 -71.5q14 -14 40 -26.5t53.5 -21.5t53 -16.5t40.5 -9.5l196 -45q98 -23 170 -43t119 -59q51 -41 64.5 -88t13.5 -101q0 -29 -3 -60.5 t-13.5 -62t-29 -59.5t-48.5 -49q-41 -29 -89.5 -35t-80.5 -6h-627v96h622q47 0 79 14.5t48 36.5q14 20 20.5 58.5t6.5 66.5q0 47 -14.5 74t-26.5 39t-31.5 22.5t-50.5 19.5t-73 19.5t-101 24.5l-188 43q-61 14 -105.5 30.5t-73 33t-46 32t-25.5 25.5q-35 41 -47.5 88 t-12.5 92zM143 0v1214q0 47 8.5 89.5t51.5 80.5q37 33 75.5 41.5t79.5 8.5h605q31 0 67.5 -4.5t73.5 -17.5t70.5 -37.5t60.5 -63.5q41 -63 52 -145.5t11 -161.5q0 -66 -9 -147t-54 -152q-25 -37 -55.5 -62t-64.5 -39t-68.5 -19t-67.5 -5h-317v-11l671 -569h-162l-632 541 q-25 23 -32 31t-7 26v33q0 23 13 35t36 12h444q53 0 92 25.5t56 54.5q16 29 27.5 85t11.5 169q0 25 -1 60.5t-7.5 74.5t-19.5 76t-40 61q-20 18 -45 28.5t-48.5 15.5t-44 6t-32.5 1h-586q-16 0 -35.5 -3t-37.5 -19t-23.5 -36t-5.5 -38v-1239h-111z"/>
<glyph unicode="™" horiz-adv-x="1843" d="M0 1346v90h752v-90h-328v-732h-96v732h-328zM811 614v754q0 27 10 42t23.5 23.5t27 10.5t21.5 2q35 0 58.5 -9.5t38 -21.5t21.5 -26.5t11 -24.5l233 -647q4 -6 9.5 -16.5t11.5 -10.5t11 10.5t9 16.5l234 647q10 29 26.5 45t35 24.5t36 10.5t31.5 2q8 0 21.5 -2 t26.5 -10.5t23.5 -23.5t10.5 -42v-754h-96v721q0 16 -6.5 19.5t-10.5 3.5q-6 0 -12 -8.5t-10 -16.5l-230 -639q-10 -31 -34.5 -60.5t-65.5 -29.5t-65.5 30t-34.5 60l-230 639q-4 8 -10 16.5t-12 8.5q-4 0 -10.5 -3t-6.5 -20v-721h-96z"/>
<glyph unicode="≠" horiz-adv-x="1159" d="M80 -289l897 1850h102l-897 -1850h-102zM143 475v98h873v-98h-873zM143 696v99h873v-99h-873z"/>
<glyph unicode="" horiz-adv-x="1085" d="M0 1085h1085v-1085h-1085v1085z"/>
<glyph unicode="ﬁ" horiz-adv-x="862" d="M645 1282v152h115v-152h-115zM649 0v1085h107v-1085h-107zM20 989v96h142q0 27 3 62t12 70.5t25.5 69.5t45.5 63q31 31 69.5 49t81.5 29.5t85 14.5t79 3v-96q-51 0 -117.5 -10.5t-107.5 -45.5q-20 -18 -33.5 -42.5t-22 -53.5t-11.5 -58.5t-3 -54.5h293v-96h-293v-989 h-106v989h-142z"/>
<glyph unicode="ﬂ" horiz-adv-x="854" d="M645 0v1434h107v-1434h-107zM20 989v96h142q0 27 3 62t12 70.5t25.5 69.5t45.5 63q31 31 69.5 49t81.5 29.5t85 14.5t79 3v-96q-51 0 -117.5 -10.5t-107.5 -45.5q-20 -18 -33.5 -42.5t-22 -53.5t-11.5 -58.5t-3 -54.5h293v-96h-293v-989h-106v989h-142z"/>
</font>
</defs>
</svg>
